M48
;DRILL file {KiCad (5.0.0)} date 11/01/18 18:16:06
;FORMAT={-:-/ absolute / inch / decimal}
FMAT,2
INCH,TZ
T1C0.0080
T2C0.0130
T3C0.0393
T4C0.0400
T5C0.0354
T6C0.1063
%
G90
G05
M72
T1
X3.6176Y-4.4231
X3.637Y-3.6426
X3.6419Y-3.6743
X3.6862Y-3.6353
X3.824Y-3.8258
X3.8272Y-3.8771
X3.8331Y-3.5418
X3.9983Y-3.4612
X4.0323Y-3.4467
X4.0413Y-4.1455
X4.0735Y-3.6735
X4.0877Y-3.633
X4.1409Y-4.137
X4.1668Y-4.1806
X4.1886Y-4.0573
X4.2264Y-4.2547
X4.229Y-4.191
X4.2291Y-3.3492
X4.238Y-4.1551
X4.2563Y-4.1747
X4.2665Y-4.2649
X4.2709Y-4.1492
X4.2814Y-4.178
X4.2919Y-4.0308
X4.3069Y-4.2577
X4.3224Y-4.0785
X4.3275Y-3.3499
X4.3475Y-3.4571
X4.3488Y-3.6042
X4.3516Y-3.4283
X4.3551Y-3.3285
X4.3811Y-4.2852
X4.3921Y-3.3116
X4.3926Y-3.4295
X4.4059Y-3.9578
X4.4082Y-4.1406
X4.4256Y-3.9356
X4.4485Y-3.9105
X4.4702Y-4.0592
X4.4935Y-3.8295
X4.5096Y-4.6692
X4.5349Y-4.1557
X4.5574Y-4.2978
X4.5655Y-3.4175
X4.6076Y-4.2984
X4.6087Y-4.6692
X4.6329Y-4.2848
X4.6479Y-3.8003
X4.6481Y-4.0369
X4.65Y-4.0055
X4.6632Y-4.2768
X4.6863Y-3.9409
X4.7337Y-3.9487
X4.7449Y-4.1529
X4.7543Y-4.0631
X4.7816Y-4.4552
X4.7893Y-3.5114
X4.7926Y-3.6562
X4.8111Y-4.0006
X4.8119Y-3.7594
X4.8132Y-4.3486
X4.8403Y-4.1056
X4.8889Y-4.0695
X4.9149Y-4.4492
X4.9202Y-3.7683
X4.9297Y-3.947
X4.9324Y-4.0386
X4.933Y-4.2169
X4.9457Y-4.0976
X4.9552Y-4.5261
X4.9552Y-4.553
X4.9862Y-4.2532
X4.9889Y-4.6959
X5.0166Y-3.545
X5.0342Y-4.4567
X5.035Y-3.9675
X5.0354Y-4.131
X5.0489Y-4.8154
X5.0496Y-4.2059
X5.1189Y-4.5048
X5.1837Y-4.0481
X5.2097Y-4.4547
X5.3786Y-3.954
X5.4398Y-3.5465
X5.5194Y-3.4186
X5.5764Y-3.5276
X5.6084Y-3.5327
X5.6363Y-4.8132
X5.6619Y-4.1719
X5.684Y-4.1229
X5.7227Y-4.1031
X5.7664Y-4.2442
X5.8308Y-4.1054
X5.9244Y-4.5433
X5.9376Y-4.684
X5.9591Y-4.4674
X6.1212Y-4.3027
X6.2863Y-4.3037
X6.4303Y-4.2464
X6.4695Y-4.4795
X6.5435Y-4.4795
X6.6128Y-4.3186
X6.6567Y-4.2165
X6.6668Y-4.5425
X6.701Y-4.5852
X6.7224Y-4.3035
X6.7475Y-4.5075
X6.7975Y-4.2075
X6.7975Y-4.2575
X6.7975Y-4.3575
X6.7975Y-4.4575
X6.7975Y-4.5575
X6.8475Y-4.2075
X6.8475Y-4.2575
X6.8475Y-4.4075
X6.8475Y-4.5075
X6.8475Y-4.6075
X6.8975Y-4.3575
X6.8975Y-4.4575
X6.8975Y-4.5575
X6.8975Y-4.6575
X6.9475Y-4.4075
X6.9475Y-4.5075
X6.9475Y-4.6075
X6.9975Y-4.3575
X6.9975Y-4.4575
X6.9975Y-4.5575
X6.9975Y-4.6575
X7.0475Y-4.4075
X7.0475Y-4.5075
X7.0475Y-4.6075
X7.0475Y-4.7075
X7.0975Y-4.4575
X7.3095Y-4.2155
X7.8568Y-3.457
X7.9573Y-3.7415
X7.9674Y-4.8142
X7.9703Y-4.3184
X8.1641Y-4.8274
X8.2386Y-3.9205
X8.3956Y-3.9135
X8.4212Y-3.9415
X8.4592Y-3.6426
X8.5666Y-4.1572
T2
X3.7975Y-3.9399
X3.8314Y-4.0511
X3.8611Y-4.218
X3.8615Y-3.8655
X3.8835Y-3.8455
X3.9125Y-3.8425
X3.9339Y-3.9161
X3.9375Y-3.8575
X3.9725Y-3.8575
X3.9925Y-3.9825
X4.0075Y-3.8475
X4.0125Y-3.9275
X4.0125Y-3.9575
X4.0325Y-3.8225
X4.0375Y-3.9075
X4.0575Y-3.7975
X4.0625Y-3.8825
X4.0775Y-3.7725
X4.0875Y-3.8625
X4.0948Y-4.0065
X4.1025Y-3.7525
X4.1125Y-3.8375
X4.1195Y-3.7035
X4.1275Y-3.7325
X4.1525Y-3.8769
X4.2475Y-3.7575
X4.2517Y-3.8365
X4.2975Y-3.7075
X4.2975Y-3.8075
X4.3095Y-3.5035
X4.3475Y-3.6575
X4.3475Y-3.7575
X4.3475Y-3.8575
X4.3603Y-3.8182
X4.3775Y-4.0975
X4.3975Y-3.6075
X4.3975Y-3.7075
X4.3975Y-3.8075
X4.4475Y-3.5575
X4.4475Y-3.6575
X4.4475Y-3.9575
X4.4975Y-3.5075
X4.4975Y-3.6075
X4.4975Y-3.9075
X4.4975Y-4.0075
X4.5475Y-3.4575
X4.5475Y-3.5575
X4.5475Y-3.9575
X4.5475Y-4.0575
X4.5975Y-3.5075
X4.5975Y-3.6075
X4.5975Y-3.7075
X4.5975Y-3.8075
X4.5975Y-3.9075
X4.5975Y-4.0075
X4.6075Y-3.4655
X4.6399Y-3.6202
X4.6475Y-3.5575
X4.6475Y-3.7575
X4.6475Y-3.8575
X4.6475Y-3.9575
X4.6975Y-3.6075
X4.6975Y-3.8075
X4.6975Y-3.9075
X4.7025Y-4.1225
X4.7475Y-3.6575
X4.7475Y-3.8575
X4.7975Y-3.7075
X4.8075Y-3.8695
X4.8475Y-3.7575
X4.9075Y-3.9175
X5.1794Y-4.5264
X5.2133Y-4.0521
X5.2448Y-4.4074
X5.3087Y-4.509
X5.3215Y-4.2755
X5.3226Y-4.3754
X5.3496Y-4.2134
X5.4114Y-3.4746
X5.4555Y-4.0955
X5.4939Y-4.2071
X5.5223Y-3.6012
X5.614Y-4.1376
X5.6735Y-3.6915
X5.6995Y-4.2175
X5.7944Y-3.9435
X5.8015Y-3.5575
X5.8555Y-4.0235
X5.8923Y-3.9535
X5.9835Y-4.5627
X6.0375Y-4.0195
X6.0455Y-4.1115
X6.0555Y-4.4575
X6.1195Y-3.6655
X6.1915Y-3.7415
X6.2418Y-4.4495
X6.2455Y-4.5855
X6.2675Y-3.6195
X6.2995Y-3.8455
X6.3415Y-4.4255
X6.4875Y-3.6535
X6.5035Y-4.3215
X6.5043Y-4.3947
X6.5615Y-3.6595
X6.5795Y-4.0855
X6.5795Y-4.1595
X6.6515Y-3.6755
X6.7195Y-4.0735
X6.7535Y-4.6775
X6.9715Y-4.1655
X6.9895Y-4.2355
X7.119Y-3.861
X7.1335Y-3.9915
X7.1422Y-4.6295
X7.2081Y-3.8615
X7.2548Y-3.4326
X7.2595Y-4.5855
X7.3255Y-3.5795
X7.3618Y-3.8648
X7.4115Y-4.2195
X7.4625Y-3.4474
X7.6475Y-3.4095
X7.6555Y-4.5115
X7.8255Y-4.3815
X7.8695Y-3.4095
X7.9954Y-4.2119
X8.1753Y-3.5048
X8.1855Y-4.0255
X8.2425Y-4.2525
X8.3688Y-4.2399
X8.4475Y-4.0795
X8.4615Y-4.1955
T3
X7.428Y-4.6334
X7.528Y-4.6334
T4
X6.5555Y-4.7198
X6.6555Y-4.7198
X4.9475Y-4.3075
X4.9475Y-4.4075
X5.0475Y-4.3075
X5.0475Y-4.4075
X5.1475Y-4.3075
X5.1475Y-4.4075
X3.9475Y-4.6244
X3.9475Y-4.7244
X4.0475Y-4.6244
X4.0475Y-4.7244
X4.1475Y-4.6244
X4.1475Y-4.7244
X4.2475Y-4.6244
X4.2475Y-4.7244
X4.3475Y-4.6244
X4.3475Y-4.7244
X4.4475Y-4.6244
X4.4475Y-4.7244
X4.5475Y-4.6244
X4.5475Y-4.7244
X4.6475Y-4.6244
X4.6475Y-4.7244
X4.7475Y-4.6244
X4.7475Y-4.7244
X4.8475Y-4.6244
X4.8475Y-4.7244
X4.9475Y-4.6244
X4.9475Y-4.7244
X5.0475Y-4.6244
X5.0475Y-4.7244
X5.1475Y-4.6244
X5.1475Y-4.7244
X5.2475Y-4.6244
X5.2475Y-4.7244
X5.3475Y-4.6244
X5.3475Y-4.7244
X5.4475Y-4.6244
X5.4475Y-4.7244
X5.5475Y-4.6244
X5.5475Y-4.7244
X5.6475Y-4.6244
X5.6475Y-4.7244
X5.7475Y-4.6244
X5.7475Y-4.7244
X5.8475Y-4.6244
X5.8475Y-4.7244
X6.8433Y-4.7198
X6.9433Y-4.7198
X6.2976Y-4.7198
T5
X3.6222Y-3.9321
X3.6222Y-4.1053
T6
X3.5475Y-4.7075
X3.5475Y-3.3575
X8.7475Y-3.3575
X8.7475Y-4.7075
T0
M30
