G04 #@! TF.GenerationSoftware,KiCad,Pcbnew,(5.0.0)*
G04 #@! TF.CreationDate,2018-11-01T18:13:55-10:00*
G04 #@! TF.ProjectId,dstat-mainboard,64737461742D6D61696E626F6172642E,1.2.3*
G04 #@! TF.SameCoordinates,Original*
G04 #@! TF.FileFunction,Paste,Bot*
G04 #@! TF.FilePolarity,Positive*
%FSLAX46Y46*%
G04 Gerber Fmt 4.6, Leading zero omitted, Abs format (unit mm)*
G04 Created by KiCad (PCBNEW (5.0.0)) date 11/01/18 18:13:55*
%MOMM*%
%LPD*%
G01*
G04 APERTURE LIST*
%ADD10C,0.150000*%
%ADD11C,0.975000*%
G04 APERTURE END LIST*
D10*
G04 #@! TO.C,C42*
G36*
X212520142Y-99047174D02*
X212543803Y-99050684D01*
X212567007Y-99056496D01*
X212589529Y-99064554D01*
X212611153Y-99074782D01*
X212631670Y-99087079D01*
X212650883Y-99101329D01*
X212668607Y-99117393D01*
X212684671Y-99135117D01*
X212698921Y-99154330D01*
X212711218Y-99174847D01*
X212721446Y-99196471D01*
X212729504Y-99218993D01*
X212735316Y-99242197D01*
X212738826Y-99265858D01*
X212740000Y-99289750D01*
X212740000Y-100202250D01*
X212738826Y-100226142D01*
X212735316Y-100249803D01*
X212729504Y-100273007D01*
X212721446Y-100295529D01*
X212711218Y-100317153D01*
X212698921Y-100337670D01*
X212684671Y-100356883D01*
X212668607Y-100374607D01*
X212650883Y-100390671D01*
X212631670Y-100404921D01*
X212611153Y-100417218D01*
X212589529Y-100427446D01*
X212567007Y-100435504D01*
X212543803Y-100441316D01*
X212520142Y-100444826D01*
X212496250Y-100446000D01*
X212008750Y-100446000D01*
X211984858Y-100444826D01*
X211961197Y-100441316D01*
X211937993Y-100435504D01*
X211915471Y-100427446D01*
X211893847Y-100417218D01*
X211873330Y-100404921D01*
X211854117Y-100390671D01*
X211836393Y-100374607D01*
X211820329Y-100356883D01*
X211806079Y-100337670D01*
X211793782Y-100317153D01*
X211783554Y-100295529D01*
X211775496Y-100273007D01*
X211769684Y-100249803D01*
X211766174Y-100226142D01*
X211765000Y-100202250D01*
X211765000Y-99289750D01*
X211766174Y-99265858D01*
X211769684Y-99242197D01*
X211775496Y-99218993D01*
X211783554Y-99196471D01*
X211793782Y-99174847D01*
X211806079Y-99154330D01*
X211820329Y-99135117D01*
X211836393Y-99117393D01*
X211854117Y-99101329D01*
X211873330Y-99087079D01*
X211893847Y-99074782D01*
X211915471Y-99064554D01*
X211937993Y-99056496D01*
X211961197Y-99050684D01*
X211984858Y-99047174D01*
X212008750Y-99046000D01*
X212496250Y-99046000D01*
X212520142Y-99047174D01*
X212520142Y-99047174D01*
G37*
D11*
X212252500Y-99746000D03*
D10*
G36*
X210645142Y-99047174D02*
X210668803Y-99050684D01*
X210692007Y-99056496D01*
X210714529Y-99064554D01*
X210736153Y-99074782D01*
X210756670Y-99087079D01*
X210775883Y-99101329D01*
X210793607Y-99117393D01*
X210809671Y-99135117D01*
X210823921Y-99154330D01*
X210836218Y-99174847D01*
X210846446Y-99196471D01*
X210854504Y-99218993D01*
X210860316Y-99242197D01*
X210863826Y-99265858D01*
X210865000Y-99289750D01*
X210865000Y-100202250D01*
X210863826Y-100226142D01*
X210860316Y-100249803D01*
X210854504Y-100273007D01*
X210846446Y-100295529D01*
X210836218Y-100317153D01*
X210823921Y-100337670D01*
X210809671Y-100356883D01*
X210793607Y-100374607D01*
X210775883Y-100390671D01*
X210756670Y-100404921D01*
X210736153Y-100417218D01*
X210714529Y-100427446D01*
X210692007Y-100435504D01*
X210668803Y-100441316D01*
X210645142Y-100444826D01*
X210621250Y-100446000D01*
X210133750Y-100446000D01*
X210109858Y-100444826D01*
X210086197Y-100441316D01*
X210062993Y-100435504D01*
X210040471Y-100427446D01*
X210018847Y-100417218D01*
X209998330Y-100404921D01*
X209979117Y-100390671D01*
X209961393Y-100374607D01*
X209945329Y-100356883D01*
X209931079Y-100337670D01*
X209918782Y-100317153D01*
X209908554Y-100295529D01*
X209900496Y-100273007D01*
X209894684Y-100249803D01*
X209891174Y-100226142D01*
X209890000Y-100202250D01*
X209890000Y-99289750D01*
X209891174Y-99265858D01*
X209894684Y-99242197D01*
X209900496Y-99218993D01*
X209908554Y-99196471D01*
X209918782Y-99174847D01*
X209931079Y-99154330D01*
X209945329Y-99135117D01*
X209961393Y-99117393D01*
X209979117Y-99101329D01*
X209998330Y-99087079D01*
X210018847Y-99074782D01*
X210040471Y-99064554D01*
X210062993Y-99056496D01*
X210086197Y-99050684D01*
X210109858Y-99047174D01*
X210133750Y-99046000D01*
X210621250Y-99046000D01*
X210645142Y-99047174D01*
X210645142Y-99047174D01*
G37*
D11*
X210377500Y-99746000D03*
G04 #@! TD*
D10*
G04 #@! TO.C,C43*
G36*
X217092142Y-99047174D02*
X217115803Y-99050684D01*
X217139007Y-99056496D01*
X217161529Y-99064554D01*
X217183153Y-99074782D01*
X217203670Y-99087079D01*
X217222883Y-99101329D01*
X217240607Y-99117393D01*
X217256671Y-99135117D01*
X217270921Y-99154330D01*
X217283218Y-99174847D01*
X217293446Y-99196471D01*
X217301504Y-99218993D01*
X217307316Y-99242197D01*
X217310826Y-99265858D01*
X217312000Y-99289750D01*
X217312000Y-100202250D01*
X217310826Y-100226142D01*
X217307316Y-100249803D01*
X217301504Y-100273007D01*
X217293446Y-100295529D01*
X217283218Y-100317153D01*
X217270921Y-100337670D01*
X217256671Y-100356883D01*
X217240607Y-100374607D01*
X217222883Y-100390671D01*
X217203670Y-100404921D01*
X217183153Y-100417218D01*
X217161529Y-100427446D01*
X217139007Y-100435504D01*
X217115803Y-100441316D01*
X217092142Y-100444826D01*
X217068250Y-100446000D01*
X216580750Y-100446000D01*
X216556858Y-100444826D01*
X216533197Y-100441316D01*
X216509993Y-100435504D01*
X216487471Y-100427446D01*
X216465847Y-100417218D01*
X216445330Y-100404921D01*
X216426117Y-100390671D01*
X216408393Y-100374607D01*
X216392329Y-100356883D01*
X216378079Y-100337670D01*
X216365782Y-100317153D01*
X216355554Y-100295529D01*
X216347496Y-100273007D01*
X216341684Y-100249803D01*
X216338174Y-100226142D01*
X216337000Y-100202250D01*
X216337000Y-99289750D01*
X216338174Y-99265858D01*
X216341684Y-99242197D01*
X216347496Y-99218993D01*
X216355554Y-99196471D01*
X216365782Y-99174847D01*
X216378079Y-99154330D01*
X216392329Y-99135117D01*
X216408393Y-99117393D01*
X216426117Y-99101329D01*
X216445330Y-99087079D01*
X216465847Y-99074782D01*
X216487471Y-99064554D01*
X216509993Y-99056496D01*
X216533197Y-99050684D01*
X216556858Y-99047174D01*
X216580750Y-99046000D01*
X217068250Y-99046000D01*
X217092142Y-99047174D01*
X217092142Y-99047174D01*
G37*
D11*
X216824500Y-99746000D03*
D10*
G36*
X215217142Y-99047174D02*
X215240803Y-99050684D01*
X215264007Y-99056496D01*
X215286529Y-99064554D01*
X215308153Y-99074782D01*
X215328670Y-99087079D01*
X215347883Y-99101329D01*
X215365607Y-99117393D01*
X215381671Y-99135117D01*
X215395921Y-99154330D01*
X215408218Y-99174847D01*
X215418446Y-99196471D01*
X215426504Y-99218993D01*
X215432316Y-99242197D01*
X215435826Y-99265858D01*
X215437000Y-99289750D01*
X215437000Y-100202250D01*
X215435826Y-100226142D01*
X215432316Y-100249803D01*
X215426504Y-100273007D01*
X215418446Y-100295529D01*
X215408218Y-100317153D01*
X215395921Y-100337670D01*
X215381671Y-100356883D01*
X215365607Y-100374607D01*
X215347883Y-100390671D01*
X215328670Y-100404921D01*
X215308153Y-100417218D01*
X215286529Y-100427446D01*
X215264007Y-100435504D01*
X215240803Y-100441316D01*
X215217142Y-100444826D01*
X215193250Y-100446000D01*
X214705750Y-100446000D01*
X214681858Y-100444826D01*
X214658197Y-100441316D01*
X214634993Y-100435504D01*
X214612471Y-100427446D01*
X214590847Y-100417218D01*
X214570330Y-100404921D01*
X214551117Y-100390671D01*
X214533393Y-100374607D01*
X214517329Y-100356883D01*
X214503079Y-100337670D01*
X214490782Y-100317153D01*
X214480554Y-100295529D01*
X214472496Y-100273007D01*
X214466684Y-100249803D01*
X214463174Y-100226142D01*
X214462000Y-100202250D01*
X214462000Y-99289750D01*
X214463174Y-99265858D01*
X214466684Y-99242197D01*
X214472496Y-99218993D01*
X214480554Y-99196471D01*
X214490782Y-99174847D01*
X214503079Y-99154330D01*
X214517329Y-99135117D01*
X214533393Y-99117393D01*
X214551117Y-99101329D01*
X214570330Y-99087079D01*
X214590847Y-99074782D01*
X214612471Y-99064554D01*
X214634993Y-99056496D01*
X214658197Y-99050684D01*
X214681858Y-99047174D01*
X214705750Y-99046000D01*
X215193250Y-99046000D01*
X215217142Y-99047174D01*
X215217142Y-99047174D01*
G37*
D11*
X214949500Y-99746000D03*
G04 #@! TD*
D10*
G04 #@! TO.C,C44*
G36*
X115716142Y-97615274D02*
X115739803Y-97618784D01*
X115763007Y-97624596D01*
X115785529Y-97632654D01*
X115807153Y-97642882D01*
X115827670Y-97655179D01*
X115846883Y-97669429D01*
X115864607Y-97685493D01*
X115880671Y-97703217D01*
X115894921Y-97722430D01*
X115907218Y-97742947D01*
X115917446Y-97764571D01*
X115925504Y-97787093D01*
X115931316Y-97810297D01*
X115934826Y-97833958D01*
X115936000Y-97857850D01*
X115936000Y-98345350D01*
X115934826Y-98369242D01*
X115931316Y-98392903D01*
X115925504Y-98416107D01*
X115917446Y-98438629D01*
X115907218Y-98460253D01*
X115894921Y-98480770D01*
X115880671Y-98499983D01*
X115864607Y-98517707D01*
X115846883Y-98533771D01*
X115827670Y-98548021D01*
X115807153Y-98560318D01*
X115785529Y-98570546D01*
X115763007Y-98578604D01*
X115739803Y-98584416D01*
X115716142Y-98587926D01*
X115692250Y-98589100D01*
X114779750Y-98589100D01*
X114755858Y-98587926D01*
X114732197Y-98584416D01*
X114708993Y-98578604D01*
X114686471Y-98570546D01*
X114664847Y-98560318D01*
X114644330Y-98548021D01*
X114625117Y-98533771D01*
X114607393Y-98517707D01*
X114591329Y-98499983D01*
X114577079Y-98480770D01*
X114564782Y-98460253D01*
X114554554Y-98438629D01*
X114546496Y-98416107D01*
X114540684Y-98392903D01*
X114537174Y-98369242D01*
X114536000Y-98345350D01*
X114536000Y-97857850D01*
X114537174Y-97833958D01*
X114540684Y-97810297D01*
X114546496Y-97787093D01*
X114554554Y-97764571D01*
X114564782Y-97742947D01*
X114577079Y-97722430D01*
X114591329Y-97703217D01*
X114607393Y-97685493D01*
X114625117Y-97669429D01*
X114644330Y-97655179D01*
X114664847Y-97642882D01*
X114686471Y-97632654D01*
X114708993Y-97624596D01*
X114732197Y-97618784D01*
X114755858Y-97615274D01*
X114779750Y-97614100D01*
X115692250Y-97614100D01*
X115716142Y-97615274D01*
X115716142Y-97615274D01*
G37*
D11*
X115236000Y-98101600D03*
D10*
G36*
X115716142Y-95740274D02*
X115739803Y-95743784D01*
X115763007Y-95749596D01*
X115785529Y-95757654D01*
X115807153Y-95767882D01*
X115827670Y-95780179D01*
X115846883Y-95794429D01*
X115864607Y-95810493D01*
X115880671Y-95828217D01*
X115894921Y-95847430D01*
X115907218Y-95867947D01*
X115917446Y-95889571D01*
X115925504Y-95912093D01*
X115931316Y-95935297D01*
X115934826Y-95958958D01*
X115936000Y-95982850D01*
X115936000Y-96470350D01*
X115934826Y-96494242D01*
X115931316Y-96517903D01*
X115925504Y-96541107D01*
X115917446Y-96563629D01*
X115907218Y-96585253D01*
X115894921Y-96605770D01*
X115880671Y-96624983D01*
X115864607Y-96642707D01*
X115846883Y-96658771D01*
X115827670Y-96673021D01*
X115807153Y-96685318D01*
X115785529Y-96695546D01*
X115763007Y-96703604D01*
X115739803Y-96709416D01*
X115716142Y-96712926D01*
X115692250Y-96714100D01*
X114779750Y-96714100D01*
X114755858Y-96712926D01*
X114732197Y-96709416D01*
X114708993Y-96703604D01*
X114686471Y-96695546D01*
X114664847Y-96685318D01*
X114644330Y-96673021D01*
X114625117Y-96658771D01*
X114607393Y-96642707D01*
X114591329Y-96624983D01*
X114577079Y-96605770D01*
X114564782Y-96585253D01*
X114554554Y-96563629D01*
X114546496Y-96541107D01*
X114540684Y-96517903D01*
X114537174Y-96494242D01*
X114536000Y-96470350D01*
X114536000Y-95982850D01*
X114537174Y-95958958D01*
X114540684Y-95935297D01*
X114546496Y-95912093D01*
X114554554Y-95889571D01*
X114564782Y-95867947D01*
X114577079Y-95847430D01*
X114591329Y-95828217D01*
X114607393Y-95810493D01*
X114625117Y-95794429D01*
X114644330Y-95780179D01*
X114664847Y-95767882D01*
X114686471Y-95757654D01*
X114708993Y-95749596D01*
X114732197Y-95743784D01*
X114755858Y-95740274D01*
X114779750Y-95739100D01*
X115692250Y-95739100D01*
X115716142Y-95740274D01*
X115716142Y-95740274D01*
G37*
D11*
X115236000Y-96226600D03*
G04 #@! TD*
D10*
G04 #@! TO.C,C45*
G36*
X113073065Y-103489362D02*
X113096726Y-103492872D01*
X113119930Y-103498684D01*
X113142452Y-103506742D01*
X113164076Y-103516970D01*
X113184593Y-103529267D01*
X113203806Y-103543517D01*
X113221530Y-103559581D01*
X113566245Y-103904296D01*
X113582309Y-103922020D01*
X113596559Y-103941233D01*
X113608856Y-103961750D01*
X113619084Y-103983374D01*
X113627142Y-104005896D01*
X113632954Y-104029100D01*
X113636464Y-104052761D01*
X113637638Y-104076653D01*
X113636464Y-104100545D01*
X113632954Y-104124206D01*
X113627142Y-104147410D01*
X113619084Y-104169932D01*
X113608856Y-104191556D01*
X113596559Y-104212073D01*
X113582309Y-104231286D01*
X113566245Y-104249010D01*
X112921010Y-104894245D01*
X112903286Y-104910309D01*
X112884073Y-104924559D01*
X112863556Y-104936856D01*
X112841932Y-104947084D01*
X112819410Y-104955142D01*
X112796206Y-104960954D01*
X112772545Y-104964464D01*
X112748653Y-104965638D01*
X112724761Y-104964464D01*
X112701100Y-104960954D01*
X112677896Y-104955142D01*
X112655374Y-104947084D01*
X112633750Y-104936856D01*
X112613233Y-104924559D01*
X112594020Y-104910309D01*
X112576296Y-104894245D01*
X112231581Y-104549530D01*
X112215517Y-104531806D01*
X112201267Y-104512593D01*
X112188970Y-104492076D01*
X112178742Y-104470452D01*
X112170684Y-104447930D01*
X112164872Y-104424726D01*
X112161362Y-104401065D01*
X112160188Y-104377173D01*
X112161362Y-104353281D01*
X112164872Y-104329620D01*
X112170684Y-104306416D01*
X112178742Y-104283894D01*
X112188970Y-104262270D01*
X112201267Y-104241753D01*
X112215517Y-104222540D01*
X112231581Y-104204816D01*
X112876816Y-103559581D01*
X112894540Y-103543517D01*
X112913753Y-103529267D01*
X112934270Y-103516970D01*
X112955894Y-103506742D01*
X112978416Y-103498684D01*
X113001620Y-103492872D01*
X113025281Y-103489362D01*
X113049173Y-103488188D01*
X113073065Y-103489362D01*
X113073065Y-103489362D01*
G37*
D11*
X112898913Y-104226913D03*
D10*
G36*
X111747239Y-102163536D02*
X111770900Y-102167046D01*
X111794104Y-102172858D01*
X111816626Y-102180916D01*
X111838250Y-102191144D01*
X111858767Y-102203441D01*
X111877980Y-102217691D01*
X111895704Y-102233755D01*
X112240419Y-102578470D01*
X112256483Y-102596194D01*
X112270733Y-102615407D01*
X112283030Y-102635924D01*
X112293258Y-102657548D01*
X112301316Y-102680070D01*
X112307128Y-102703274D01*
X112310638Y-102726935D01*
X112311812Y-102750827D01*
X112310638Y-102774719D01*
X112307128Y-102798380D01*
X112301316Y-102821584D01*
X112293258Y-102844106D01*
X112283030Y-102865730D01*
X112270733Y-102886247D01*
X112256483Y-102905460D01*
X112240419Y-102923184D01*
X111595184Y-103568419D01*
X111577460Y-103584483D01*
X111558247Y-103598733D01*
X111537730Y-103611030D01*
X111516106Y-103621258D01*
X111493584Y-103629316D01*
X111470380Y-103635128D01*
X111446719Y-103638638D01*
X111422827Y-103639812D01*
X111398935Y-103638638D01*
X111375274Y-103635128D01*
X111352070Y-103629316D01*
X111329548Y-103621258D01*
X111307924Y-103611030D01*
X111287407Y-103598733D01*
X111268194Y-103584483D01*
X111250470Y-103568419D01*
X110905755Y-103223704D01*
X110889691Y-103205980D01*
X110875441Y-103186767D01*
X110863144Y-103166250D01*
X110852916Y-103144626D01*
X110844858Y-103122104D01*
X110839046Y-103098900D01*
X110835536Y-103075239D01*
X110834362Y-103051347D01*
X110835536Y-103027455D01*
X110839046Y-103003794D01*
X110844858Y-102980590D01*
X110852916Y-102958068D01*
X110863144Y-102936444D01*
X110875441Y-102915927D01*
X110889691Y-102896714D01*
X110905755Y-102878990D01*
X111550990Y-102233755D01*
X111568714Y-102217691D01*
X111587927Y-102203441D01*
X111608444Y-102191144D01*
X111630068Y-102180916D01*
X111652590Y-102172858D01*
X111675794Y-102167046D01*
X111699455Y-102163536D01*
X111723347Y-102162362D01*
X111747239Y-102163536D01*
X111747239Y-102163536D01*
G37*
D11*
X111573087Y-102901087D03*
G04 #@! TD*
D10*
G04 #@! TO.C,C46*
G36*
X109146719Y-90039462D02*
X109170380Y-90042972D01*
X109193584Y-90048784D01*
X109216106Y-90056842D01*
X109237730Y-90067070D01*
X109258247Y-90079367D01*
X109277460Y-90093617D01*
X109295184Y-90109681D01*
X109940419Y-90754916D01*
X109956483Y-90772640D01*
X109970733Y-90791853D01*
X109983030Y-90812370D01*
X109993258Y-90833994D01*
X110001316Y-90856516D01*
X110007128Y-90879720D01*
X110010638Y-90903381D01*
X110011812Y-90927273D01*
X110010638Y-90951165D01*
X110007128Y-90974826D01*
X110001316Y-90998030D01*
X109993258Y-91020552D01*
X109983030Y-91042176D01*
X109970733Y-91062693D01*
X109956483Y-91081906D01*
X109940419Y-91099630D01*
X109595704Y-91444345D01*
X109577980Y-91460409D01*
X109558767Y-91474659D01*
X109538250Y-91486956D01*
X109516626Y-91497184D01*
X109494104Y-91505242D01*
X109470900Y-91511054D01*
X109447239Y-91514564D01*
X109423347Y-91515738D01*
X109399455Y-91514564D01*
X109375794Y-91511054D01*
X109352590Y-91505242D01*
X109330068Y-91497184D01*
X109308444Y-91486956D01*
X109287927Y-91474659D01*
X109268714Y-91460409D01*
X109250990Y-91444345D01*
X108605755Y-90799110D01*
X108589691Y-90781386D01*
X108575441Y-90762173D01*
X108563144Y-90741656D01*
X108552916Y-90720032D01*
X108544858Y-90697510D01*
X108539046Y-90674306D01*
X108535536Y-90650645D01*
X108534362Y-90626753D01*
X108535536Y-90602861D01*
X108539046Y-90579200D01*
X108544858Y-90555996D01*
X108552916Y-90533474D01*
X108563144Y-90511850D01*
X108575441Y-90491333D01*
X108589691Y-90472120D01*
X108605755Y-90454396D01*
X108950470Y-90109681D01*
X108968194Y-90093617D01*
X108987407Y-90079367D01*
X109007924Y-90067070D01*
X109029548Y-90056842D01*
X109052070Y-90048784D01*
X109075274Y-90042972D01*
X109098935Y-90039462D01*
X109122827Y-90038288D01*
X109146719Y-90039462D01*
X109146719Y-90039462D01*
G37*
D11*
X109273087Y-90777013D03*
D10*
G36*
X110472545Y-88713636D02*
X110496206Y-88717146D01*
X110519410Y-88722958D01*
X110541932Y-88731016D01*
X110563556Y-88741244D01*
X110584073Y-88753541D01*
X110603286Y-88767791D01*
X110621010Y-88783855D01*
X111266245Y-89429090D01*
X111282309Y-89446814D01*
X111296559Y-89466027D01*
X111308856Y-89486544D01*
X111319084Y-89508168D01*
X111327142Y-89530690D01*
X111332954Y-89553894D01*
X111336464Y-89577555D01*
X111337638Y-89601447D01*
X111336464Y-89625339D01*
X111332954Y-89649000D01*
X111327142Y-89672204D01*
X111319084Y-89694726D01*
X111308856Y-89716350D01*
X111296559Y-89736867D01*
X111282309Y-89756080D01*
X111266245Y-89773804D01*
X110921530Y-90118519D01*
X110903806Y-90134583D01*
X110884593Y-90148833D01*
X110864076Y-90161130D01*
X110842452Y-90171358D01*
X110819930Y-90179416D01*
X110796726Y-90185228D01*
X110773065Y-90188738D01*
X110749173Y-90189912D01*
X110725281Y-90188738D01*
X110701620Y-90185228D01*
X110678416Y-90179416D01*
X110655894Y-90171358D01*
X110634270Y-90161130D01*
X110613753Y-90148833D01*
X110594540Y-90134583D01*
X110576816Y-90118519D01*
X109931581Y-89473284D01*
X109915517Y-89455560D01*
X109901267Y-89436347D01*
X109888970Y-89415830D01*
X109878742Y-89394206D01*
X109870684Y-89371684D01*
X109864872Y-89348480D01*
X109861362Y-89324819D01*
X109860188Y-89300927D01*
X109861362Y-89277035D01*
X109864872Y-89253374D01*
X109870684Y-89230170D01*
X109878742Y-89207648D01*
X109888970Y-89186024D01*
X109901267Y-89165507D01*
X109915517Y-89146294D01*
X109931581Y-89128570D01*
X110276296Y-88783855D01*
X110294020Y-88767791D01*
X110313233Y-88753541D01*
X110333750Y-88741244D01*
X110355374Y-88731016D01*
X110377896Y-88722958D01*
X110401100Y-88717146D01*
X110424761Y-88713636D01*
X110448653Y-88712462D01*
X110472545Y-88713636D01*
X110472545Y-88713636D01*
G37*
D11*
X110598913Y-89451187D03*
G04 #@! TD*
D10*
G04 #@! TO.C,C47*
G36*
X117347239Y-85263636D02*
X117370900Y-85267146D01*
X117394104Y-85272958D01*
X117416626Y-85281016D01*
X117438250Y-85291244D01*
X117458767Y-85303541D01*
X117477980Y-85317791D01*
X117495704Y-85333855D01*
X117840419Y-85678570D01*
X117856483Y-85696294D01*
X117870733Y-85715507D01*
X117883030Y-85736024D01*
X117893258Y-85757648D01*
X117901316Y-85780170D01*
X117907128Y-85803374D01*
X117910638Y-85827035D01*
X117911812Y-85850927D01*
X117910638Y-85874819D01*
X117907128Y-85898480D01*
X117901316Y-85921684D01*
X117893258Y-85944206D01*
X117883030Y-85965830D01*
X117870733Y-85986347D01*
X117856483Y-86005560D01*
X117840419Y-86023284D01*
X117195184Y-86668519D01*
X117177460Y-86684583D01*
X117158247Y-86698833D01*
X117137730Y-86711130D01*
X117116106Y-86721358D01*
X117093584Y-86729416D01*
X117070380Y-86735228D01*
X117046719Y-86738738D01*
X117022827Y-86739912D01*
X116998935Y-86738738D01*
X116975274Y-86735228D01*
X116952070Y-86729416D01*
X116929548Y-86721358D01*
X116907924Y-86711130D01*
X116887407Y-86698833D01*
X116868194Y-86684583D01*
X116850470Y-86668519D01*
X116505755Y-86323804D01*
X116489691Y-86306080D01*
X116475441Y-86286867D01*
X116463144Y-86266350D01*
X116452916Y-86244726D01*
X116444858Y-86222204D01*
X116439046Y-86199000D01*
X116435536Y-86175339D01*
X116434362Y-86151447D01*
X116435536Y-86127555D01*
X116439046Y-86103894D01*
X116444858Y-86080690D01*
X116452916Y-86058168D01*
X116463144Y-86036544D01*
X116475441Y-86016027D01*
X116489691Y-85996814D01*
X116505755Y-85979090D01*
X117150990Y-85333855D01*
X117168714Y-85317791D01*
X117187927Y-85303541D01*
X117208444Y-85291244D01*
X117230068Y-85281016D01*
X117252590Y-85272958D01*
X117275794Y-85267146D01*
X117299455Y-85263636D01*
X117323347Y-85262462D01*
X117347239Y-85263636D01*
X117347239Y-85263636D01*
G37*
D11*
X117173087Y-86001187D03*
D10*
G36*
X118673065Y-86589462D02*
X118696726Y-86592972D01*
X118719930Y-86598784D01*
X118742452Y-86606842D01*
X118764076Y-86617070D01*
X118784593Y-86629367D01*
X118803806Y-86643617D01*
X118821530Y-86659681D01*
X119166245Y-87004396D01*
X119182309Y-87022120D01*
X119196559Y-87041333D01*
X119208856Y-87061850D01*
X119219084Y-87083474D01*
X119227142Y-87105996D01*
X119232954Y-87129200D01*
X119236464Y-87152861D01*
X119237638Y-87176753D01*
X119236464Y-87200645D01*
X119232954Y-87224306D01*
X119227142Y-87247510D01*
X119219084Y-87270032D01*
X119208856Y-87291656D01*
X119196559Y-87312173D01*
X119182309Y-87331386D01*
X119166245Y-87349110D01*
X118521010Y-87994345D01*
X118503286Y-88010409D01*
X118484073Y-88024659D01*
X118463556Y-88036956D01*
X118441932Y-88047184D01*
X118419410Y-88055242D01*
X118396206Y-88061054D01*
X118372545Y-88064564D01*
X118348653Y-88065738D01*
X118324761Y-88064564D01*
X118301100Y-88061054D01*
X118277896Y-88055242D01*
X118255374Y-88047184D01*
X118233750Y-88036956D01*
X118213233Y-88024659D01*
X118194020Y-88010409D01*
X118176296Y-87994345D01*
X117831581Y-87649630D01*
X117815517Y-87631906D01*
X117801267Y-87612693D01*
X117788970Y-87592176D01*
X117778742Y-87570552D01*
X117770684Y-87548030D01*
X117764872Y-87524826D01*
X117761362Y-87501165D01*
X117760188Y-87477273D01*
X117761362Y-87453381D01*
X117764872Y-87429720D01*
X117770684Y-87406516D01*
X117778742Y-87383994D01*
X117788970Y-87362370D01*
X117801267Y-87341853D01*
X117815517Y-87322640D01*
X117831581Y-87304916D01*
X118476816Y-86659681D01*
X118494540Y-86643617D01*
X118513753Y-86629367D01*
X118534270Y-86617070D01*
X118555894Y-86606842D01*
X118578416Y-86598784D01*
X118601620Y-86592972D01*
X118625281Y-86589462D01*
X118649173Y-86588288D01*
X118673065Y-86589462D01*
X118673065Y-86589462D01*
G37*
D11*
X118498913Y-87327013D03*
G04 #@! TD*
D10*
G04 #@! TO.C,C48*
G36*
X118146719Y-103589362D02*
X118170380Y-103592872D01*
X118193584Y-103598684D01*
X118216106Y-103606742D01*
X118237730Y-103616970D01*
X118258247Y-103629267D01*
X118277460Y-103643517D01*
X118295184Y-103659581D01*
X118940419Y-104304816D01*
X118956483Y-104322540D01*
X118970733Y-104341753D01*
X118983030Y-104362270D01*
X118993258Y-104383894D01*
X119001316Y-104406416D01*
X119007128Y-104429620D01*
X119010638Y-104453281D01*
X119011812Y-104477173D01*
X119010638Y-104501065D01*
X119007128Y-104524726D01*
X119001316Y-104547930D01*
X118993258Y-104570452D01*
X118983030Y-104592076D01*
X118970733Y-104612593D01*
X118956483Y-104631806D01*
X118940419Y-104649530D01*
X118595704Y-104994245D01*
X118577980Y-105010309D01*
X118558767Y-105024559D01*
X118538250Y-105036856D01*
X118516626Y-105047084D01*
X118494104Y-105055142D01*
X118470900Y-105060954D01*
X118447239Y-105064464D01*
X118423347Y-105065638D01*
X118399455Y-105064464D01*
X118375794Y-105060954D01*
X118352590Y-105055142D01*
X118330068Y-105047084D01*
X118308444Y-105036856D01*
X118287927Y-105024559D01*
X118268714Y-105010309D01*
X118250990Y-104994245D01*
X117605755Y-104349010D01*
X117589691Y-104331286D01*
X117575441Y-104312073D01*
X117563144Y-104291556D01*
X117552916Y-104269932D01*
X117544858Y-104247410D01*
X117539046Y-104224206D01*
X117535536Y-104200545D01*
X117534362Y-104176653D01*
X117535536Y-104152761D01*
X117539046Y-104129100D01*
X117544858Y-104105896D01*
X117552916Y-104083374D01*
X117563144Y-104061750D01*
X117575441Y-104041233D01*
X117589691Y-104022020D01*
X117605755Y-104004296D01*
X117950470Y-103659581D01*
X117968194Y-103643517D01*
X117987407Y-103629267D01*
X118007924Y-103616970D01*
X118029548Y-103606742D01*
X118052070Y-103598684D01*
X118075274Y-103592872D01*
X118098935Y-103589362D01*
X118122827Y-103588188D01*
X118146719Y-103589362D01*
X118146719Y-103589362D01*
G37*
D11*
X118273087Y-104326913D03*
D10*
G36*
X119472545Y-102263536D02*
X119496206Y-102267046D01*
X119519410Y-102272858D01*
X119541932Y-102280916D01*
X119563556Y-102291144D01*
X119584073Y-102303441D01*
X119603286Y-102317691D01*
X119621010Y-102333755D01*
X120266245Y-102978990D01*
X120282309Y-102996714D01*
X120296559Y-103015927D01*
X120308856Y-103036444D01*
X120319084Y-103058068D01*
X120327142Y-103080590D01*
X120332954Y-103103794D01*
X120336464Y-103127455D01*
X120337638Y-103151347D01*
X120336464Y-103175239D01*
X120332954Y-103198900D01*
X120327142Y-103222104D01*
X120319084Y-103244626D01*
X120308856Y-103266250D01*
X120296559Y-103286767D01*
X120282309Y-103305980D01*
X120266245Y-103323704D01*
X119921530Y-103668419D01*
X119903806Y-103684483D01*
X119884593Y-103698733D01*
X119864076Y-103711030D01*
X119842452Y-103721258D01*
X119819930Y-103729316D01*
X119796726Y-103735128D01*
X119773065Y-103738638D01*
X119749173Y-103739812D01*
X119725281Y-103738638D01*
X119701620Y-103735128D01*
X119678416Y-103729316D01*
X119655894Y-103721258D01*
X119634270Y-103711030D01*
X119613753Y-103698733D01*
X119594540Y-103684483D01*
X119576816Y-103668419D01*
X118931581Y-103023184D01*
X118915517Y-103005460D01*
X118901267Y-102986247D01*
X118888970Y-102965730D01*
X118878742Y-102944106D01*
X118870684Y-102921584D01*
X118864872Y-102898380D01*
X118861362Y-102874719D01*
X118860188Y-102850827D01*
X118861362Y-102826935D01*
X118864872Y-102803274D01*
X118870684Y-102780070D01*
X118878742Y-102757548D01*
X118888970Y-102735924D01*
X118901267Y-102715407D01*
X118915517Y-102696194D01*
X118931581Y-102678470D01*
X119276296Y-102333755D01*
X119294020Y-102317691D01*
X119313233Y-102303441D01*
X119333750Y-102291144D01*
X119355374Y-102280916D01*
X119377896Y-102272858D01*
X119401100Y-102267046D01*
X119424761Y-102263536D01*
X119448653Y-102262362D01*
X119472545Y-102263536D01*
X119472545Y-102263536D01*
G37*
D11*
X119598913Y-103001087D03*
G04 #@! TD*
D10*
G04 #@! TO.C,C49*
G36*
X107373065Y-97989462D02*
X107396726Y-97992972D01*
X107419930Y-97998784D01*
X107442452Y-98006842D01*
X107464076Y-98017070D01*
X107484593Y-98029367D01*
X107503806Y-98043617D01*
X107521530Y-98059681D01*
X107866245Y-98404396D01*
X107882309Y-98422120D01*
X107896559Y-98441333D01*
X107908856Y-98461850D01*
X107919084Y-98483474D01*
X107927142Y-98505996D01*
X107932954Y-98529200D01*
X107936464Y-98552861D01*
X107937638Y-98576753D01*
X107936464Y-98600645D01*
X107932954Y-98624306D01*
X107927142Y-98647510D01*
X107919084Y-98670032D01*
X107908856Y-98691656D01*
X107896559Y-98712173D01*
X107882309Y-98731386D01*
X107866245Y-98749110D01*
X107221010Y-99394345D01*
X107203286Y-99410409D01*
X107184073Y-99424659D01*
X107163556Y-99436956D01*
X107141932Y-99447184D01*
X107119410Y-99455242D01*
X107096206Y-99461054D01*
X107072545Y-99464564D01*
X107048653Y-99465738D01*
X107024761Y-99464564D01*
X107001100Y-99461054D01*
X106977896Y-99455242D01*
X106955374Y-99447184D01*
X106933750Y-99436956D01*
X106913233Y-99424659D01*
X106894020Y-99410409D01*
X106876296Y-99394345D01*
X106531581Y-99049630D01*
X106515517Y-99031906D01*
X106501267Y-99012693D01*
X106488970Y-98992176D01*
X106478742Y-98970552D01*
X106470684Y-98948030D01*
X106464872Y-98924826D01*
X106461362Y-98901165D01*
X106460188Y-98877273D01*
X106461362Y-98853381D01*
X106464872Y-98829720D01*
X106470684Y-98806516D01*
X106478742Y-98783994D01*
X106488970Y-98762370D01*
X106501267Y-98741853D01*
X106515517Y-98722640D01*
X106531581Y-98704916D01*
X107176816Y-98059681D01*
X107194540Y-98043617D01*
X107213753Y-98029367D01*
X107234270Y-98017070D01*
X107255894Y-98006842D01*
X107278416Y-97998784D01*
X107301620Y-97992972D01*
X107325281Y-97989462D01*
X107349173Y-97988288D01*
X107373065Y-97989462D01*
X107373065Y-97989462D01*
G37*
D11*
X107198913Y-98727013D03*
D10*
G36*
X106047239Y-96663636D02*
X106070900Y-96667146D01*
X106094104Y-96672958D01*
X106116626Y-96681016D01*
X106138250Y-96691244D01*
X106158767Y-96703541D01*
X106177980Y-96717791D01*
X106195704Y-96733855D01*
X106540419Y-97078570D01*
X106556483Y-97096294D01*
X106570733Y-97115507D01*
X106583030Y-97136024D01*
X106593258Y-97157648D01*
X106601316Y-97180170D01*
X106607128Y-97203374D01*
X106610638Y-97227035D01*
X106611812Y-97250927D01*
X106610638Y-97274819D01*
X106607128Y-97298480D01*
X106601316Y-97321684D01*
X106593258Y-97344206D01*
X106583030Y-97365830D01*
X106570733Y-97386347D01*
X106556483Y-97405560D01*
X106540419Y-97423284D01*
X105895184Y-98068519D01*
X105877460Y-98084583D01*
X105858247Y-98098833D01*
X105837730Y-98111130D01*
X105816106Y-98121358D01*
X105793584Y-98129416D01*
X105770380Y-98135228D01*
X105746719Y-98138738D01*
X105722827Y-98139912D01*
X105698935Y-98138738D01*
X105675274Y-98135228D01*
X105652070Y-98129416D01*
X105629548Y-98121358D01*
X105607924Y-98111130D01*
X105587407Y-98098833D01*
X105568194Y-98084583D01*
X105550470Y-98068519D01*
X105205755Y-97723804D01*
X105189691Y-97706080D01*
X105175441Y-97686867D01*
X105163144Y-97666350D01*
X105152916Y-97644726D01*
X105144858Y-97622204D01*
X105139046Y-97599000D01*
X105135536Y-97575339D01*
X105134362Y-97551447D01*
X105135536Y-97527555D01*
X105139046Y-97503894D01*
X105144858Y-97480690D01*
X105152916Y-97458168D01*
X105163144Y-97436544D01*
X105175441Y-97416027D01*
X105189691Y-97396814D01*
X105205755Y-97379090D01*
X105850990Y-96733855D01*
X105868714Y-96717791D01*
X105887927Y-96703541D01*
X105908444Y-96691244D01*
X105930068Y-96681016D01*
X105952590Y-96672958D01*
X105975794Y-96667146D01*
X105999455Y-96663636D01*
X106023347Y-96662462D01*
X106047239Y-96663636D01*
X106047239Y-96663636D01*
G37*
D11*
X105873087Y-97401187D03*
G04 #@! TD*
D10*
G04 #@! TO.C,C50*
G36*
X123972545Y-97663636D02*
X123996206Y-97667146D01*
X124019410Y-97672958D01*
X124041932Y-97681016D01*
X124063556Y-97691244D01*
X124084073Y-97703541D01*
X124103286Y-97717791D01*
X124121010Y-97733855D01*
X124766245Y-98379090D01*
X124782309Y-98396814D01*
X124796559Y-98416027D01*
X124808856Y-98436544D01*
X124819084Y-98458168D01*
X124827142Y-98480690D01*
X124832954Y-98503894D01*
X124836464Y-98527555D01*
X124837638Y-98551447D01*
X124836464Y-98575339D01*
X124832954Y-98599000D01*
X124827142Y-98622204D01*
X124819084Y-98644726D01*
X124808856Y-98666350D01*
X124796559Y-98686867D01*
X124782309Y-98706080D01*
X124766245Y-98723804D01*
X124421530Y-99068519D01*
X124403806Y-99084583D01*
X124384593Y-99098833D01*
X124364076Y-99111130D01*
X124342452Y-99121358D01*
X124319930Y-99129416D01*
X124296726Y-99135228D01*
X124273065Y-99138738D01*
X124249173Y-99139912D01*
X124225281Y-99138738D01*
X124201620Y-99135228D01*
X124178416Y-99129416D01*
X124155894Y-99121358D01*
X124134270Y-99111130D01*
X124113753Y-99098833D01*
X124094540Y-99084583D01*
X124076816Y-99068519D01*
X123431581Y-98423284D01*
X123415517Y-98405560D01*
X123401267Y-98386347D01*
X123388970Y-98365830D01*
X123378742Y-98344206D01*
X123370684Y-98321684D01*
X123364872Y-98298480D01*
X123361362Y-98274819D01*
X123360188Y-98250927D01*
X123361362Y-98227035D01*
X123364872Y-98203374D01*
X123370684Y-98180170D01*
X123378742Y-98157648D01*
X123388970Y-98136024D01*
X123401267Y-98115507D01*
X123415517Y-98096294D01*
X123431581Y-98078570D01*
X123776296Y-97733855D01*
X123794020Y-97717791D01*
X123813233Y-97703541D01*
X123833750Y-97691244D01*
X123855374Y-97681016D01*
X123877896Y-97672958D01*
X123901100Y-97667146D01*
X123924761Y-97663636D01*
X123948653Y-97662462D01*
X123972545Y-97663636D01*
X123972545Y-97663636D01*
G37*
D11*
X124098913Y-98401187D03*
D10*
G36*
X122646719Y-98989462D02*
X122670380Y-98992972D01*
X122693584Y-98998784D01*
X122716106Y-99006842D01*
X122737730Y-99017070D01*
X122758247Y-99029367D01*
X122777460Y-99043617D01*
X122795184Y-99059681D01*
X123440419Y-99704916D01*
X123456483Y-99722640D01*
X123470733Y-99741853D01*
X123483030Y-99762370D01*
X123493258Y-99783994D01*
X123501316Y-99806516D01*
X123507128Y-99829720D01*
X123510638Y-99853381D01*
X123511812Y-99877273D01*
X123510638Y-99901165D01*
X123507128Y-99924826D01*
X123501316Y-99948030D01*
X123493258Y-99970552D01*
X123483030Y-99992176D01*
X123470733Y-100012693D01*
X123456483Y-100031906D01*
X123440419Y-100049630D01*
X123095704Y-100394345D01*
X123077980Y-100410409D01*
X123058767Y-100424659D01*
X123038250Y-100436956D01*
X123016626Y-100447184D01*
X122994104Y-100455242D01*
X122970900Y-100461054D01*
X122947239Y-100464564D01*
X122923347Y-100465738D01*
X122899455Y-100464564D01*
X122875794Y-100461054D01*
X122852590Y-100455242D01*
X122830068Y-100447184D01*
X122808444Y-100436956D01*
X122787927Y-100424659D01*
X122768714Y-100410409D01*
X122750990Y-100394345D01*
X122105755Y-99749110D01*
X122089691Y-99731386D01*
X122075441Y-99712173D01*
X122063144Y-99691656D01*
X122052916Y-99670032D01*
X122044858Y-99647510D01*
X122039046Y-99624306D01*
X122035536Y-99600645D01*
X122034362Y-99576753D01*
X122035536Y-99552861D01*
X122039046Y-99529200D01*
X122044858Y-99505996D01*
X122052916Y-99483474D01*
X122063144Y-99461850D01*
X122075441Y-99441333D01*
X122089691Y-99422120D01*
X122105755Y-99404396D01*
X122450470Y-99059681D01*
X122468194Y-99043617D01*
X122487407Y-99029367D01*
X122507924Y-99017070D01*
X122529548Y-99006842D01*
X122552070Y-98998784D01*
X122575274Y-98992972D01*
X122598935Y-98989462D01*
X122622827Y-98988288D01*
X122646719Y-98989462D01*
X122646719Y-98989462D01*
G37*
D11*
X122773087Y-99727013D03*
G04 #@! TD*
D10*
G04 #@! TO.C,C51*
G36*
X115716142Y-94215274D02*
X115739803Y-94218784D01*
X115763007Y-94224596D01*
X115785529Y-94232654D01*
X115807153Y-94242882D01*
X115827670Y-94255179D01*
X115846883Y-94269429D01*
X115864607Y-94285493D01*
X115880671Y-94303217D01*
X115894921Y-94322430D01*
X115907218Y-94342947D01*
X115917446Y-94364571D01*
X115925504Y-94387093D01*
X115931316Y-94410297D01*
X115934826Y-94433958D01*
X115936000Y-94457850D01*
X115936000Y-94945350D01*
X115934826Y-94969242D01*
X115931316Y-94992903D01*
X115925504Y-95016107D01*
X115917446Y-95038629D01*
X115907218Y-95060253D01*
X115894921Y-95080770D01*
X115880671Y-95099983D01*
X115864607Y-95117707D01*
X115846883Y-95133771D01*
X115827670Y-95148021D01*
X115807153Y-95160318D01*
X115785529Y-95170546D01*
X115763007Y-95178604D01*
X115739803Y-95184416D01*
X115716142Y-95187926D01*
X115692250Y-95189100D01*
X114779750Y-95189100D01*
X114755858Y-95187926D01*
X114732197Y-95184416D01*
X114708993Y-95178604D01*
X114686471Y-95170546D01*
X114664847Y-95160318D01*
X114644330Y-95148021D01*
X114625117Y-95133771D01*
X114607393Y-95117707D01*
X114591329Y-95099983D01*
X114577079Y-95080770D01*
X114564782Y-95060253D01*
X114554554Y-95038629D01*
X114546496Y-95016107D01*
X114540684Y-94992903D01*
X114537174Y-94969242D01*
X114536000Y-94945350D01*
X114536000Y-94457850D01*
X114537174Y-94433958D01*
X114540684Y-94410297D01*
X114546496Y-94387093D01*
X114554554Y-94364571D01*
X114564782Y-94342947D01*
X114577079Y-94322430D01*
X114591329Y-94303217D01*
X114607393Y-94285493D01*
X114625117Y-94269429D01*
X114644330Y-94255179D01*
X114664847Y-94242882D01*
X114686471Y-94232654D01*
X114708993Y-94224596D01*
X114732197Y-94218784D01*
X114755858Y-94215274D01*
X114779750Y-94214100D01*
X115692250Y-94214100D01*
X115716142Y-94215274D01*
X115716142Y-94215274D01*
G37*
D11*
X115236000Y-94701600D03*
D10*
G36*
X115716142Y-92340274D02*
X115739803Y-92343784D01*
X115763007Y-92349596D01*
X115785529Y-92357654D01*
X115807153Y-92367882D01*
X115827670Y-92380179D01*
X115846883Y-92394429D01*
X115864607Y-92410493D01*
X115880671Y-92428217D01*
X115894921Y-92447430D01*
X115907218Y-92467947D01*
X115917446Y-92489571D01*
X115925504Y-92512093D01*
X115931316Y-92535297D01*
X115934826Y-92558958D01*
X115936000Y-92582850D01*
X115936000Y-93070350D01*
X115934826Y-93094242D01*
X115931316Y-93117903D01*
X115925504Y-93141107D01*
X115917446Y-93163629D01*
X115907218Y-93185253D01*
X115894921Y-93205770D01*
X115880671Y-93224983D01*
X115864607Y-93242707D01*
X115846883Y-93258771D01*
X115827670Y-93273021D01*
X115807153Y-93285318D01*
X115785529Y-93295546D01*
X115763007Y-93303604D01*
X115739803Y-93309416D01*
X115716142Y-93312926D01*
X115692250Y-93314100D01*
X114779750Y-93314100D01*
X114755858Y-93312926D01*
X114732197Y-93309416D01*
X114708993Y-93303604D01*
X114686471Y-93295546D01*
X114664847Y-93285318D01*
X114644330Y-93273021D01*
X114625117Y-93258771D01*
X114607393Y-93242707D01*
X114591329Y-93224983D01*
X114577079Y-93205770D01*
X114564782Y-93185253D01*
X114554554Y-93163629D01*
X114546496Y-93141107D01*
X114540684Y-93117903D01*
X114537174Y-93094242D01*
X114536000Y-93070350D01*
X114536000Y-92582850D01*
X114537174Y-92558958D01*
X114540684Y-92535297D01*
X114546496Y-92512093D01*
X114554554Y-92489571D01*
X114564782Y-92467947D01*
X114577079Y-92447430D01*
X114591329Y-92428217D01*
X114607393Y-92410493D01*
X114625117Y-92394429D01*
X114644330Y-92380179D01*
X114664847Y-92367882D01*
X114686471Y-92357654D01*
X114708993Y-92349596D01*
X114732197Y-92343784D01*
X114755858Y-92340274D01*
X114779750Y-92339100D01*
X115692250Y-92339100D01*
X115716142Y-92340274D01*
X115716142Y-92340274D01*
G37*
D11*
X115236000Y-92826600D03*
G04 #@! TD*
D10*
G04 #@! TO.C,C55*
G36*
X96631942Y-100650174D02*
X96655603Y-100653684D01*
X96678807Y-100659496D01*
X96701329Y-100667554D01*
X96722953Y-100677782D01*
X96743470Y-100690079D01*
X96762683Y-100704329D01*
X96780407Y-100720393D01*
X96796471Y-100738117D01*
X96810721Y-100757330D01*
X96823018Y-100777847D01*
X96833246Y-100799471D01*
X96841304Y-100821993D01*
X96847116Y-100845197D01*
X96850626Y-100868858D01*
X96851800Y-100892750D01*
X96851800Y-101380250D01*
X96850626Y-101404142D01*
X96847116Y-101427803D01*
X96841304Y-101451007D01*
X96833246Y-101473529D01*
X96823018Y-101495153D01*
X96810721Y-101515670D01*
X96796471Y-101534883D01*
X96780407Y-101552607D01*
X96762683Y-101568671D01*
X96743470Y-101582921D01*
X96722953Y-101595218D01*
X96701329Y-101605446D01*
X96678807Y-101613504D01*
X96655603Y-101619316D01*
X96631942Y-101622826D01*
X96608050Y-101624000D01*
X95695550Y-101624000D01*
X95671658Y-101622826D01*
X95647997Y-101619316D01*
X95624793Y-101613504D01*
X95602271Y-101605446D01*
X95580647Y-101595218D01*
X95560130Y-101582921D01*
X95540917Y-101568671D01*
X95523193Y-101552607D01*
X95507129Y-101534883D01*
X95492879Y-101515670D01*
X95480582Y-101495153D01*
X95470354Y-101473529D01*
X95462296Y-101451007D01*
X95456484Y-101427803D01*
X95452974Y-101404142D01*
X95451800Y-101380250D01*
X95451800Y-100892750D01*
X95452974Y-100868858D01*
X95456484Y-100845197D01*
X95462296Y-100821993D01*
X95470354Y-100799471D01*
X95480582Y-100777847D01*
X95492879Y-100757330D01*
X95507129Y-100738117D01*
X95523193Y-100720393D01*
X95540917Y-100704329D01*
X95560130Y-100690079D01*
X95580647Y-100677782D01*
X95602271Y-100667554D01*
X95624793Y-100659496D01*
X95647997Y-100653684D01*
X95671658Y-100650174D01*
X95695550Y-100649000D01*
X96608050Y-100649000D01*
X96631942Y-100650174D01*
X96631942Y-100650174D01*
G37*
D11*
X96151800Y-101136500D03*
D10*
G36*
X96631942Y-102525174D02*
X96655603Y-102528684D01*
X96678807Y-102534496D01*
X96701329Y-102542554D01*
X96722953Y-102552782D01*
X96743470Y-102565079D01*
X96762683Y-102579329D01*
X96780407Y-102595393D01*
X96796471Y-102613117D01*
X96810721Y-102632330D01*
X96823018Y-102652847D01*
X96833246Y-102674471D01*
X96841304Y-102696993D01*
X96847116Y-102720197D01*
X96850626Y-102743858D01*
X96851800Y-102767750D01*
X96851800Y-103255250D01*
X96850626Y-103279142D01*
X96847116Y-103302803D01*
X96841304Y-103326007D01*
X96833246Y-103348529D01*
X96823018Y-103370153D01*
X96810721Y-103390670D01*
X96796471Y-103409883D01*
X96780407Y-103427607D01*
X96762683Y-103443671D01*
X96743470Y-103457921D01*
X96722953Y-103470218D01*
X96701329Y-103480446D01*
X96678807Y-103488504D01*
X96655603Y-103494316D01*
X96631942Y-103497826D01*
X96608050Y-103499000D01*
X95695550Y-103499000D01*
X95671658Y-103497826D01*
X95647997Y-103494316D01*
X95624793Y-103488504D01*
X95602271Y-103480446D01*
X95580647Y-103470218D01*
X95560130Y-103457921D01*
X95540917Y-103443671D01*
X95523193Y-103427607D01*
X95507129Y-103409883D01*
X95492879Y-103390670D01*
X95480582Y-103370153D01*
X95470354Y-103348529D01*
X95462296Y-103326007D01*
X95456484Y-103302803D01*
X95452974Y-103279142D01*
X95451800Y-103255250D01*
X95451800Y-102767750D01*
X95452974Y-102743858D01*
X95456484Y-102720197D01*
X95462296Y-102696993D01*
X95470354Y-102674471D01*
X95480582Y-102652847D01*
X95492879Y-102632330D01*
X95507129Y-102613117D01*
X95523193Y-102595393D01*
X95540917Y-102579329D01*
X95560130Y-102565079D01*
X95580647Y-102552782D01*
X95602271Y-102542554D01*
X95624793Y-102534496D01*
X95647997Y-102528684D01*
X95671658Y-102525174D01*
X95695550Y-102524000D01*
X96608050Y-102524000D01*
X96631942Y-102525174D01*
X96631942Y-102525174D01*
G37*
D11*
X96151800Y-103011500D03*
G04 #@! TD*
D10*
G04 #@! TO.C,C56*
G36*
X123403719Y-105424262D02*
X123427380Y-105427772D01*
X123450584Y-105433584D01*
X123473106Y-105441642D01*
X123494730Y-105451870D01*
X123515247Y-105464167D01*
X123534460Y-105478417D01*
X123552184Y-105494481D01*
X124197419Y-106139716D01*
X124213483Y-106157440D01*
X124227733Y-106176653D01*
X124240030Y-106197170D01*
X124250258Y-106218794D01*
X124258316Y-106241316D01*
X124264128Y-106264520D01*
X124267638Y-106288181D01*
X124268812Y-106312073D01*
X124267638Y-106335965D01*
X124264128Y-106359626D01*
X124258316Y-106382830D01*
X124250258Y-106405352D01*
X124240030Y-106426976D01*
X124227733Y-106447493D01*
X124213483Y-106466706D01*
X124197419Y-106484430D01*
X123852704Y-106829145D01*
X123834980Y-106845209D01*
X123815767Y-106859459D01*
X123795250Y-106871756D01*
X123773626Y-106881984D01*
X123751104Y-106890042D01*
X123727900Y-106895854D01*
X123704239Y-106899364D01*
X123680347Y-106900538D01*
X123656455Y-106899364D01*
X123632794Y-106895854D01*
X123609590Y-106890042D01*
X123587068Y-106881984D01*
X123565444Y-106871756D01*
X123544927Y-106859459D01*
X123525714Y-106845209D01*
X123507990Y-106829145D01*
X122862755Y-106183910D01*
X122846691Y-106166186D01*
X122832441Y-106146973D01*
X122820144Y-106126456D01*
X122809916Y-106104832D01*
X122801858Y-106082310D01*
X122796046Y-106059106D01*
X122792536Y-106035445D01*
X122791362Y-106011553D01*
X122792536Y-105987661D01*
X122796046Y-105964000D01*
X122801858Y-105940796D01*
X122809916Y-105918274D01*
X122820144Y-105896650D01*
X122832441Y-105876133D01*
X122846691Y-105856920D01*
X122862755Y-105839196D01*
X123207470Y-105494481D01*
X123225194Y-105478417D01*
X123244407Y-105464167D01*
X123264924Y-105451870D01*
X123286548Y-105441642D01*
X123309070Y-105433584D01*
X123332274Y-105427772D01*
X123355935Y-105424262D01*
X123379827Y-105423088D01*
X123403719Y-105424262D01*
X123403719Y-105424262D01*
G37*
D11*
X123530087Y-106161813D03*
D10*
G36*
X124729545Y-104098436D02*
X124753206Y-104101946D01*
X124776410Y-104107758D01*
X124798932Y-104115816D01*
X124820556Y-104126044D01*
X124841073Y-104138341D01*
X124860286Y-104152591D01*
X124878010Y-104168655D01*
X125523245Y-104813890D01*
X125539309Y-104831614D01*
X125553559Y-104850827D01*
X125565856Y-104871344D01*
X125576084Y-104892968D01*
X125584142Y-104915490D01*
X125589954Y-104938694D01*
X125593464Y-104962355D01*
X125594638Y-104986247D01*
X125593464Y-105010139D01*
X125589954Y-105033800D01*
X125584142Y-105057004D01*
X125576084Y-105079526D01*
X125565856Y-105101150D01*
X125553559Y-105121667D01*
X125539309Y-105140880D01*
X125523245Y-105158604D01*
X125178530Y-105503319D01*
X125160806Y-105519383D01*
X125141593Y-105533633D01*
X125121076Y-105545930D01*
X125099452Y-105556158D01*
X125076930Y-105564216D01*
X125053726Y-105570028D01*
X125030065Y-105573538D01*
X125006173Y-105574712D01*
X124982281Y-105573538D01*
X124958620Y-105570028D01*
X124935416Y-105564216D01*
X124912894Y-105556158D01*
X124891270Y-105545930D01*
X124870753Y-105533633D01*
X124851540Y-105519383D01*
X124833816Y-105503319D01*
X124188581Y-104858084D01*
X124172517Y-104840360D01*
X124158267Y-104821147D01*
X124145970Y-104800630D01*
X124135742Y-104779006D01*
X124127684Y-104756484D01*
X124121872Y-104733280D01*
X124118362Y-104709619D01*
X124117188Y-104685727D01*
X124118362Y-104661835D01*
X124121872Y-104638174D01*
X124127684Y-104614970D01*
X124135742Y-104592448D01*
X124145970Y-104570824D01*
X124158267Y-104550307D01*
X124172517Y-104531094D01*
X124188581Y-104513370D01*
X124533296Y-104168655D01*
X124551020Y-104152591D01*
X124570233Y-104138341D01*
X124590750Y-104126044D01*
X124612374Y-104115816D01*
X124634896Y-104107758D01*
X124658100Y-104101946D01*
X124681761Y-104098436D01*
X124705653Y-104097262D01*
X124729545Y-104098436D01*
X124729545Y-104098436D01*
G37*
D11*
X124855913Y-104835987D03*
G04 #@! TD*
D10*
G04 #@! TO.C,C57*
G36*
X127560545Y-101233536D02*
X127584206Y-101237046D01*
X127607410Y-101242858D01*
X127629932Y-101250916D01*
X127651556Y-101261144D01*
X127672073Y-101273441D01*
X127691286Y-101287691D01*
X127709010Y-101303755D01*
X128354245Y-101948990D01*
X128370309Y-101966714D01*
X128384559Y-101985927D01*
X128396856Y-102006444D01*
X128407084Y-102028068D01*
X128415142Y-102050590D01*
X128420954Y-102073794D01*
X128424464Y-102097455D01*
X128425638Y-102121347D01*
X128424464Y-102145239D01*
X128420954Y-102168900D01*
X128415142Y-102192104D01*
X128407084Y-102214626D01*
X128396856Y-102236250D01*
X128384559Y-102256767D01*
X128370309Y-102275980D01*
X128354245Y-102293704D01*
X128009530Y-102638419D01*
X127991806Y-102654483D01*
X127972593Y-102668733D01*
X127952076Y-102681030D01*
X127930452Y-102691258D01*
X127907930Y-102699316D01*
X127884726Y-102705128D01*
X127861065Y-102708638D01*
X127837173Y-102709812D01*
X127813281Y-102708638D01*
X127789620Y-102705128D01*
X127766416Y-102699316D01*
X127743894Y-102691258D01*
X127722270Y-102681030D01*
X127701753Y-102668733D01*
X127682540Y-102654483D01*
X127664816Y-102638419D01*
X127019581Y-101993184D01*
X127003517Y-101975460D01*
X126989267Y-101956247D01*
X126976970Y-101935730D01*
X126966742Y-101914106D01*
X126958684Y-101891584D01*
X126952872Y-101868380D01*
X126949362Y-101844719D01*
X126948188Y-101820827D01*
X126949362Y-101796935D01*
X126952872Y-101773274D01*
X126958684Y-101750070D01*
X126966742Y-101727548D01*
X126976970Y-101705924D01*
X126989267Y-101685407D01*
X127003517Y-101666194D01*
X127019581Y-101648470D01*
X127364296Y-101303755D01*
X127382020Y-101287691D01*
X127401233Y-101273441D01*
X127421750Y-101261144D01*
X127443374Y-101250916D01*
X127465896Y-101242858D01*
X127489100Y-101237046D01*
X127512761Y-101233536D01*
X127536653Y-101232362D01*
X127560545Y-101233536D01*
X127560545Y-101233536D01*
G37*
D11*
X127686913Y-101971087D03*
D10*
G36*
X126234719Y-102559362D02*
X126258380Y-102562872D01*
X126281584Y-102568684D01*
X126304106Y-102576742D01*
X126325730Y-102586970D01*
X126346247Y-102599267D01*
X126365460Y-102613517D01*
X126383184Y-102629581D01*
X127028419Y-103274816D01*
X127044483Y-103292540D01*
X127058733Y-103311753D01*
X127071030Y-103332270D01*
X127081258Y-103353894D01*
X127089316Y-103376416D01*
X127095128Y-103399620D01*
X127098638Y-103423281D01*
X127099812Y-103447173D01*
X127098638Y-103471065D01*
X127095128Y-103494726D01*
X127089316Y-103517930D01*
X127081258Y-103540452D01*
X127071030Y-103562076D01*
X127058733Y-103582593D01*
X127044483Y-103601806D01*
X127028419Y-103619530D01*
X126683704Y-103964245D01*
X126665980Y-103980309D01*
X126646767Y-103994559D01*
X126626250Y-104006856D01*
X126604626Y-104017084D01*
X126582104Y-104025142D01*
X126558900Y-104030954D01*
X126535239Y-104034464D01*
X126511347Y-104035638D01*
X126487455Y-104034464D01*
X126463794Y-104030954D01*
X126440590Y-104025142D01*
X126418068Y-104017084D01*
X126396444Y-104006856D01*
X126375927Y-103994559D01*
X126356714Y-103980309D01*
X126338990Y-103964245D01*
X125693755Y-103319010D01*
X125677691Y-103301286D01*
X125663441Y-103282073D01*
X125651144Y-103261556D01*
X125640916Y-103239932D01*
X125632858Y-103217410D01*
X125627046Y-103194206D01*
X125623536Y-103170545D01*
X125622362Y-103146653D01*
X125623536Y-103122761D01*
X125627046Y-103099100D01*
X125632858Y-103075896D01*
X125640916Y-103053374D01*
X125651144Y-103031750D01*
X125663441Y-103011233D01*
X125677691Y-102992020D01*
X125693755Y-102974296D01*
X126038470Y-102629581D01*
X126056194Y-102613517D01*
X126075407Y-102599267D01*
X126095924Y-102586970D01*
X126117548Y-102576742D01*
X126140070Y-102568684D01*
X126163274Y-102562872D01*
X126186935Y-102559362D01*
X126210827Y-102558188D01*
X126234719Y-102559362D01*
X126234719Y-102559362D01*
G37*
D11*
X126361087Y-103296913D03*
G04 #@! TD*
D10*
G04 #@! TO.C,FB3*
G36*
X113516142Y-95915274D02*
X113539803Y-95918784D01*
X113563007Y-95924596D01*
X113585529Y-95932654D01*
X113607153Y-95942882D01*
X113627670Y-95955179D01*
X113646883Y-95969429D01*
X113664607Y-95985493D01*
X113680671Y-96003217D01*
X113694921Y-96022430D01*
X113707218Y-96042947D01*
X113717446Y-96064571D01*
X113725504Y-96087093D01*
X113731316Y-96110297D01*
X113734826Y-96133958D01*
X113736000Y-96157850D01*
X113736000Y-96645350D01*
X113734826Y-96669242D01*
X113731316Y-96692903D01*
X113725504Y-96716107D01*
X113717446Y-96738629D01*
X113707218Y-96760253D01*
X113694921Y-96780770D01*
X113680671Y-96799983D01*
X113664607Y-96817707D01*
X113646883Y-96833771D01*
X113627670Y-96848021D01*
X113607153Y-96860318D01*
X113585529Y-96870546D01*
X113563007Y-96878604D01*
X113539803Y-96884416D01*
X113516142Y-96887926D01*
X113492250Y-96889100D01*
X112579750Y-96889100D01*
X112555858Y-96887926D01*
X112532197Y-96884416D01*
X112508993Y-96878604D01*
X112486471Y-96870546D01*
X112464847Y-96860318D01*
X112444330Y-96848021D01*
X112425117Y-96833771D01*
X112407393Y-96817707D01*
X112391329Y-96799983D01*
X112377079Y-96780770D01*
X112364782Y-96760253D01*
X112354554Y-96738629D01*
X112346496Y-96716107D01*
X112340684Y-96692903D01*
X112337174Y-96669242D01*
X112336000Y-96645350D01*
X112336000Y-96157850D01*
X112337174Y-96133958D01*
X112340684Y-96110297D01*
X112346496Y-96087093D01*
X112354554Y-96064571D01*
X112364782Y-96042947D01*
X112377079Y-96022430D01*
X112391329Y-96003217D01*
X112407393Y-95985493D01*
X112425117Y-95969429D01*
X112444330Y-95955179D01*
X112464847Y-95942882D01*
X112486471Y-95932654D01*
X112508993Y-95924596D01*
X112532197Y-95918784D01*
X112555858Y-95915274D01*
X112579750Y-95914100D01*
X113492250Y-95914100D01*
X113516142Y-95915274D01*
X113516142Y-95915274D01*
G37*
D11*
X113036000Y-96401600D03*
D10*
G36*
X113516142Y-94040274D02*
X113539803Y-94043784D01*
X113563007Y-94049596D01*
X113585529Y-94057654D01*
X113607153Y-94067882D01*
X113627670Y-94080179D01*
X113646883Y-94094429D01*
X113664607Y-94110493D01*
X113680671Y-94128217D01*
X113694921Y-94147430D01*
X113707218Y-94167947D01*
X113717446Y-94189571D01*
X113725504Y-94212093D01*
X113731316Y-94235297D01*
X113734826Y-94258958D01*
X113736000Y-94282850D01*
X113736000Y-94770350D01*
X113734826Y-94794242D01*
X113731316Y-94817903D01*
X113725504Y-94841107D01*
X113717446Y-94863629D01*
X113707218Y-94885253D01*
X113694921Y-94905770D01*
X113680671Y-94924983D01*
X113664607Y-94942707D01*
X113646883Y-94958771D01*
X113627670Y-94973021D01*
X113607153Y-94985318D01*
X113585529Y-94995546D01*
X113563007Y-95003604D01*
X113539803Y-95009416D01*
X113516142Y-95012926D01*
X113492250Y-95014100D01*
X112579750Y-95014100D01*
X112555858Y-95012926D01*
X112532197Y-95009416D01*
X112508993Y-95003604D01*
X112486471Y-94995546D01*
X112464847Y-94985318D01*
X112444330Y-94973021D01*
X112425117Y-94958771D01*
X112407393Y-94942707D01*
X112391329Y-94924983D01*
X112377079Y-94905770D01*
X112364782Y-94885253D01*
X112354554Y-94863629D01*
X112346496Y-94841107D01*
X112340684Y-94817903D01*
X112337174Y-94794242D01*
X112336000Y-94770350D01*
X112336000Y-94282850D01*
X112337174Y-94258958D01*
X112340684Y-94235297D01*
X112346496Y-94212093D01*
X112354554Y-94189571D01*
X112364782Y-94167947D01*
X112377079Y-94147430D01*
X112391329Y-94128217D01*
X112407393Y-94110493D01*
X112425117Y-94094429D01*
X112444330Y-94080179D01*
X112464847Y-94067882D01*
X112486471Y-94057654D01*
X112508993Y-94049596D01*
X112532197Y-94043784D01*
X112555858Y-94040274D01*
X112579750Y-94039100D01*
X113492250Y-94039100D01*
X113516142Y-94040274D01*
X113516142Y-94040274D01*
G37*
D11*
X113036000Y-94526600D03*
G04 #@! TD*
M02*
