G04 #@! TF.GenerationSoftware,KiCad,Pcbnew,(5.0.0)*
G04 #@! TF.CreationDate,2018-11-01T18:13:55-10:00*
G04 #@! TF.ProjectId,dstat-mainboard,64737461742D6D61696E626F6172642E,1.2.3*
G04 #@! TF.SameCoordinates,Original*
G04 #@! TF.FileFunction,Legend,Top*
G04 #@! TF.FilePolarity,Positive*
%FSLAX46Y46*%
G04 Gerber Fmt 4.6, Leading zero omitted, Abs format (unit mm)*
G04 Created by KiCad (PCBNEW (5.0.0)) date 11/01/18 18:13:55*
%MOMM*%
%LPD*%
G01*
G04 APERTURE LIST*
%ADD10C,0.250000*%
%ADD11C,0.300000*%
%ADD12C,0.125000*%
%ADD13C,0.150000*%
%ADD14C,0.120000*%
G04 APERTURE END LIST*
D10*
X128476595Y-114053928D02*
X129238500Y-114053928D01*
X128857547Y-114434880D02*
X128857547Y-113672976D01*
X129619452Y-113434880D02*
X130238500Y-113434880D01*
X129905166Y-113815833D01*
X130048023Y-113815833D01*
X130143261Y-113863452D01*
X130190880Y-113911071D01*
X130238500Y-114006309D01*
X130238500Y-114244404D01*
X130190880Y-114339642D01*
X130143261Y-114387261D01*
X130048023Y-114434880D01*
X129762309Y-114434880D01*
X129667071Y-114387261D01*
X129619452Y-114339642D01*
X130524214Y-113434880D02*
X130857547Y-114434880D01*
X131190880Y-113434880D01*
X131428976Y-113434880D02*
X132048023Y-113434880D01*
X131714690Y-113815833D01*
X131857547Y-113815833D01*
X131952785Y-113863452D01*
X132000404Y-113911071D01*
X132048023Y-114006309D01*
X132048023Y-114244404D01*
X132000404Y-114339642D01*
X131952785Y-114387261D01*
X131857547Y-114434880D01*
X131571833Y-114434880D01*
X131476595Y-114387261D01*
X131428976Y-114339642D01*
X124904595Y-113482500D02*
X124809357Y-113434880D01*
X124666500Y-113434880D01*
X124523642Y-113482500D01*
X124428404Y-113577738D01*
X124380785Y-113672976D01*
X124333166Y-113863452D01*
X124333166Y-114006309D01*
X124380785Y-114196785D01*
X124428404Y-114292023D01*
X124523642Y-114387261D01*
X124666500Y-114434880D01*
X124761738Y-114434880D01*
X124904595Y-114387261D01*
X124952214Y-114339642D01*
X124952214Y-114006309D01*
X124761738Y-114006309D01*
X125380785Y-114434880D02*
X125380785Y-113434880D01*
X125952214Y-114434880D01*
X125952214Y-113434880D01*
X126428404Y-114434880D02*
X126428404Y-113434880D01*
X126666500Y-113434880D01*
X126809357Y-113482500D01*
X126904595Y-113577738D01*
X126952214Y-113672976D01*
X126999833Y-113863452D01*
X126999833Y-114006309D01*
X126952214Y-114196785D01*
X126904595Y-114292023D01*
X126809357Y-114387261D01*
X126666500Y-114434880D01*
X126428404Y-114434880D01*
X119316547Y-111894928D02*
X120078452Y-111894928D01*
X119697500Y-112275880D02*
X119697500Y-111513976D01*
X98615547Y-108465928D02*
X99377452Y-108465928D01*
X98996500Y-108846880D02*
X98996500Y-108084976D01*
X150034785Y-120022928D02*
X150796690Y-120022928D01*
X150415738Y-120403880D02*
X150415738Y-119641976D01*
X151749071Y-119403880D02*
X151272880Y-119403880D01*
X151225261Y-119880071D01*
X151272880Y-119832452D01*
X151368119Y-119784833D01*
X151606214Y-119784833D01*
X151701452Y-119832452D01*
X151749071Y-119880071D01*
X151796690Y-119975309D01*
X151796690Y-120213404D01*
X151749071Y-120308642D01*
X151701452Y-120356261D01*
X151606214Y-120403880D01*
X151368119Y-120403880D01*
X151272880Y-120356261D01*
X151225261Y-120308642D01*
X152082404Y-119403880D02*
X152415738Y-120403880D01*
X152749071Y-119403880D01*
X143970595Y-122181928D02*
X144732500Y-122181928D01*
X144351547Y-122562880D02*
X144351547Y-121800976D01*
X145113452Y-121562880D02*
X145732500Y-121562880D01*
X145399166Y-121943833D01*
X145542023Y-121943833D01*
X145637261Y-121991452D01*
X145684880Y-122039071D01*
X145732500Y-122134309D01*
X145732500Y-122372404D01*
X145684880Y-122467642D01*
X145637261Y-122515261D01*
X145542023Y-122562880D01*
X145256309Y-122562880D01*
X145161071Y-122515261D01*
X145113452Y-122467642D01*
X146018214Y-121562880D02*
X146351547Y-122562880D01*
X146684880Y-121562880D01*
X146922976Y-121562880D02*
X147542023Y-121562880D01*
X147208690Y-121943833D01*
X147351547Y-121943833D01*
X147446785Y-121991452D01*
X147494404Y-122039071D01*
X147542023Y-122134309D01*
X147542023Y-122372404D01*
X147494404Y-122467642D01*
X147446785Y-122515261D01*
X147351547Y-122562880D01*
X147065833Y-122562880D01*
X146970595Y-122515261D01*
X146922976Y-122467642D01*
D11*
X147903500Y-115125357D02*
X147832071Y-115268214D01*
X147832071Y-115482500D01*
X147903500Y-115696785D01*
X148046357Y-115839642D01*
X148189214Y-115911071D01*
X148474928Y-115982500D01*
X148689214Y-115982500D01*
X148974928Y-115911071D01*
X149117785Y-115839642D01*
X149260642Y-115696785D01*
X149332071Y-115482500D01*
X149332071Y-115339642D01*
X149260642Y-115125357D01*
X149189214Y-115053928D01*
X148689214Y-115053928D01*
X148689214Y-115339642D01*
X149332071Y-114411071D02*
X147832071Y-114411071D01*
X149332071Y-113553928D01*
X147832071Y-113553928D01*
X149332071Y-112839642D02*
X147832071Y-112839642D01*
X147832071Y-112482500D01*
X147903500Y-112268214D01*
X148046357Y-112125357D01*
X148189214Y-112053928D01*
X148474928Y-111982500D01*
X148689214Y-111982500D01*
X148974928Y-112053928D01*
X149117785Y-112125357D01*
X149260642Y-112268214D01*
X149332071Y-112482500D01*
X149332071Y-112839642D01*
D10*
X145930928Y-116022214D02*
X145930928Y-115260309D01*
X146311880Y-115641261D02*
X145549976Y-115641261D01*
X145407119Y-114831738D02*
X145359500Y-114784119D01*
X145311880Y-114688880D01*
X145311880Y-114450785D01*
X145359500Y-114355547D01*
X145407119Y-114307928D01*
X145502357Y-114260309D01*
X145597595Y-114260309D01*
X145740452Y-114307928D01*
X146311880Y-114879357D01*
X146311880Y-114260309D01*
X145311880Y-113974595D02*
X146311880Y-113641261D01*
X145311880Y-113307928D01*
X146311880Y-112403166D02*
X145835690Y-112736500D01*
X146311880Y-112974595D02*
X145311880Y-112974595D01*
X145311880Y-112593642D01*
X145359500Y-112498404D01*
X145407119Y-112450785D01*
X145502357Y-112403166D01*
X145645214Y-112403166D01*
X145740452Y-112450785D01*
X145788071Y-112498404D01*
X145835690Y-112593642D01*
X145835690Y-112974595D01*
X143390928Y-116022214D02*
X143390928Y-115260309D01*
X143771880Y-115641261D02*
X143009976Y-115641261D01*
X143105214Y-114355547D02*
X143771880Y-114355547D01*
X142724261Y-114593642D02*
X143438547Y-114831738D01*
X143438547Y-114212690D01*
X142771880Y-113974595D02*
X143771880Y-113641261D01*
X142771880Y-113307928D01*
X143771880Y-112403166D02*
X143295690Y-112736500D01*
X143771880Y-112974595D02*
X142771880Y-112974595D01*
X142771880Y-112593642D01*
X142819500Y-112498404D01*
X142867119Y-112450785D01*
X142962357Y-112403166D01*
X143105214Y-112403166D01*
X143200452Y-112450785D01*
X143248071Y-112498404D01*
X143295690Y-112593642D01*
X143295690Y-112974595D01*
D11*
X175490357Y-121670071D02*
X175847500Y-123170071D01*
X176133214Y-122098642D01*
X176418928Y-123170071D01*
X176776071Y-121670071D01*
X177276071Y-123098642D02*
X177490357Y-123170071D01*
X177847500Y-123170071D01*
X177990357Y-123098642D01*
X178061785Y-123027214D01*
X178133214Y-122884357D01*
X178133214Y-122741500D01*
X178061785Y-122598642D01*
X177990357Y-122527214D01*
X177847500Y-122455785D01*
X177561785Y-122384357D01*
X177418928Y-122312928D01*
X177347500Y-122241500D01*
X177276071Y-122098642D01*
X177276071Y-121955785D01*
X177347500Y-121812928D01*
X177418928Y-121741500D01*
X177561785Y-121670071D01*
X177918928Y-121670071D01*
X178133214Y-121741500D01*
X172224071Y-121670071D02*
X172581214Y-123170071D01*
X172866928Y-122098642D01*
X173152642Y-123170071D01*
X173509785Y-121670071D01*
X174081214Y-122384357D02*
X174581214Y-122384357D01*
X174795500Y-123170071D02*
X174081214Y-123170071D01*
X174081214Y-121670071D01*
X174795500Y-121670071D01*
X169140214Y-123170071D02*
X168640214Y-122455785D01*
X168283071Y-123170071D02*
X168283071Y-121670071D01*
X168854500Y-121670071D01*
X168997357Y-121741500D01*
X169068785Y-121812928D01*
X169140214Y-121955785D01*
X169140214Y-122170071D01*
X169068785Y-122312928D01*
X168997357Y-122384357D01*
X168854500Y-122455785D01*
X168283071Y-122455785D01*
X169783071Y-122384357D02*
X170283071Y-122384357D01*
X170497357Y-123170071D02*
X169783071Y-123170071D01*
X169783071Y-121670071D01*
X170497357Y-121670071D01*
X165965214Y-123027214D02*
X165893785Y-123098642D01*
X165679500Y-123170071D01*
X165536642Y-123170071D01*
X165322357Y-123098642D01*
X165179500Y-122955785D01*
X165108071Y-122812928D01*
X165036642Y-122527214D01*
X165036642Y-122312928D01*
X165108071Y-122027214D01*
X165179500Y-121884357D01*
X165322357Y-121741500D01*
X165536642Y-121670071D01*
X165679500Y-121670071D01*
X165893785Y-121741500D01*
X165965214Y-121812928D01*
X166608071Y-122384357D02*
X167108071Y-122384357D01*
X167322357Y-123170071D02*
X166608071Y-123170071D01*
X166608071Y-121670071D01*
X167322357Y-121670071D01*
X159579500Y-123170071D02*
X159079500Y-122455785D01*
X158722357Y-123170071D02*
X158722357Y-121670071D01*
X159293785Y-121670071D01*
X159436642Y-121741500D01*
X159508071Y-121812928D01*
X159579500Y-121955785D01*
X159579500Y-122170071D01*
X159508071Y-122312928D01*
X159436642Y-122384357D01*
X159293785Y-122455785D01*
X158722357Y-122455785D01*
X160150928Y-123098642D02*
X160365214Y-123170071D01*
X160722357Y-123170071D01*
X160865214Y-123098642D01*
X160936642Y-123027214D01*
X161008071Y-122884357D01*
X161008071Y-122741500D01*
X160936642Y-122598642D01*
X160865214Y-122527214D01*
X160722357Y-122455785D01*
X160436642Y-122384357D01*
X160293785Y-122312928D01*
X160222357Y-122241500D01*
X160150928Y-122098642D01*
X160150928Y-121955785D01*
X160222357Y-121812928D01*
X160293785Y-121741500D01*
X160436642Y-121670071D01*
X160793785Y-121670071D01*
X161008071Y-121741500D01*
D12*
X188342547Y-121320500D02*
X188294928Y-121296690D01*
X188223500Y-121296690D01*
X188152071Y-121320500D01*
X188104452Y-121368119D01*
X188080642Y-121415738D01*
X188056833Y-121510976D01*
X188056833Y-121582404D01*
X188080642Y-121677642D01*
X188104452Y-121725261D01*
X188152071Y-121772880D01*
X188223500Y-121796690D01*
X188271119Y-121796690D01*
X188342547Y-121772880D01*
X188366357Y-121749071D01*
X188366357Y-121582404D01*
X188271119Y-121582404D01*
X188580642Y-121796690D02*
X188580642Y-121296690D01*
X188866357Y-121796690D01*
X188866357Y-121296690D01*
X189104452Y-121796690D02*
X189104452Y-121296690D01*
X189223500Y-121296690D01*
X189294928Y-121320500D01*
X189342547Y-121368119D01*
X189366357Y-121415738D01*
X189390166Y-121510976D01*
X189390166Y-121582404D01*
X189366357Y-121677642D01*
X189342547Y-121725261D01*
X189294928Y-121772880D01*
X189223500Y-121796690D01*
X189104452Y-121796690D01*
X190434166Y-121606214D02*
X190815119Y-121606214D01*
X190624642Y-121796690D02*
X190624642Y-121415738D01*
X191029404Y-121344309D02*
X191053214Y-121320500D01*
X191100833Y-121296690D01*
X191219880Y-121296690D01*
X191267500Y-121320500D01*
X191291309Y-121344309D01*
X191315119Y-121391928D01*
X191315119Y-121439547D01*
X191291309Y-121510976D01*
X191005595Y-121796690D01*
X191315119Y-121796690D01*
X191838928Y-121296690D02*
X192005595Y-121796690D01*
X192172261Y-121296690D01*
X192624642Y-121796690D02*
X192457976Y-121558595D01*
X192338928Y-121796690D02*
X192338928Y-121296690D01*
X192529404Y-121296690D01*
X192577023Y-121320500D01*
X192600833Y-121344309D01*
X192624642Y-121391928D01*
X192624642Y-121463357D01*
X192600833Y-121510976D01*
X192577023Y-121534785D01*
X192529404Y-121558595D01*
X192338928Y-121558595D01*
D13*
G04 #@! TO.C,U6*
X100099028Y-98937918D02*
X98048418Y-100988528D01*
X98048418Y-100988528D02*
X98401972Y-101342082D01*
X98401972Y-101342082D02*
X100452582Y-99291472D01*
X100452582Y-99291472D02*
X100099028Y-98937918D01*
X100269738Y-98655076D02*
G75*
G03X100269738Y-98655076I-99999J0D01*
G01*
D14*
G04 #@! TO.C,U2*
X149626000Y-100592000D02*
X147176000Y-100592000D01*
X147826000Y-103812000D02*
X149626000Y-103812000D01*
D13*
G04 #@! TO.C,SW1*
X200190000Y-92036500D02*
X200190000Y-92286500D01*
X200190000Y-92286500D02*
X193890000Y-92286500D01*
X193890000Y-92286500D02*
X193890000Y-92036500D01*
X200190000Y-87536500D02*
X200190000Y-90136500D01*
X193890000Y-85636500D02*
X193890000Y-85386500D01*
X193890000Y-85386500D02*
X200190000Y-85386500D01*
X200190000Y-85386500D02*
X200190000Y-85636500D01*
X193890000Y-90136500D02*
X193890000Y-87536500D01*
X198690000Y-88836500D02*
G75*
G03X198690000Y-88836500I-1650000J0D01*
G01*
D14*
G04 #@! TO.C,C58*
X149038578Y-104764000D02*
X148521422Y-104764000D01*
X149038578Y-106184000D02*
X148521422Y-106184000D01*
G04 #@! TO.C,C59*
X148984578Y-97992500D02*
X148467422Y-97992500D01*
X148984578Y-99412500D02*
X148467422Y-99412500D01*
G04 #@! TO.C,R21*
X191777936Y-105690000D02*
X194582064Y-105690000D01*
X191777936Y-102970000D02*
X194582064Y-102970000D01*
D13*
G04 #@! TO.C,X2*
X122586441Y-104667396D02*
X125627000Y-101626837D01*
X128702914Y-103359249D02*
X124990604Y-107071559D01*
G04 #@! TO.C,U13*
X208149000Y-108767000D02*
X208149000Y-110367000D01*
X215449000Y-108767000D02*
X215449000Y-103017000D01*
X207799000Y-108767000D02*
X207799000Y-103017000D01*
X215449000Y-108767000D02*
X214999000Y-108767000D01*
X215449000Y-103017000D02*
X214999000Y-103017000D01*
X207799000Y-103017000D02*
X208249000Y-103017000D01*
X207799000Y-108767000D02*
X208149000Y-108767000D01*
G04 #@! TO.C,P2*
X167780000Y-118614000D02*
X170320000Y-118614000D01*
X164960000Y-118334000D02*
X166510000Y-118334000D01*
X167780000Y-118614000D02*
X167780000Y-121154000D01*
X166510000Y-121434000D02*
X164960000Y-121434000D01*
X164960000Y-121434000D02*
X164960000Y-118334000D01*
X167780000Y-121154000D02*
X170320000Y-121154000D01*
X170320000Y-121154000D02*
X170320000Y-118614000D01*
G04 #@! TO.C,P1*
X161230000Y-121154000D02*
X161230000Y-118614000D01*
X158410000Y-121434000D02*
X158410000Y-118334000D01*
X159960000Y-121434000D02*
X158410000Y-121434000D01*
X158410000Y-118334000D02*
X159960000Y-118334000D01*
G04 #@! TO.C,P3*
X177630000Y-121154000D02*
X177630000Y-118614000D01*
X175090000Y-121154000D02*
X177630000Y-121154000D01*
X172270000Y-121434000D02*
X172270000Y-118334000D01*
X173820000Y-121434000D02*
X172270000Y-121434000D01*
X175090000Y-118614000D02*
X175090000Y-121154000D01*
X172270000Y-118334000D02*
X173820000Y-118334000D01*
X175090000Y-118614000D02*
X177630000Y-118614000D01*
G04 #@! TO.C,D1*
X122956000Y-112650000D02*
X121156000Y-112650000D01*
X122956000Y-111250000D02*
X121156000Y-111250000D01*
G04 #@! TO.C,D2*
X99696500Y-111780000D02*
X99696500Y-109980000D01*
X98296500Y-111780000D02*
X98296500Y-109980000D01*
G04 #@! TO.C,CON1*
X129476000Y-113220000D02*
X132016000Y-113220000D01*
X132016000Y-113220000D02*
X132016000Y-110680000D01*
X132296000Y-107860000D02*
X130746000Y-107860000D01*
X124396000Y-113220000D02*
X129476000Y-113220000D01*
X124396000Y-108140000D02*
X124396000Y-113220000D01*
X129476000Y-110680000D02*
X129476000Y-108140000D01*
X132016000Y-110680000D02*
X129476000Y-110680000D01*
X132296000Y-107860000D02*
X132296000Y-109410000D01*
X129476000Y-108140000D02*
X124396000Y-108140000D01*
G04 #@! TO.C,P7*
X192481000Y-116418000D02*
X187401000Y-116418000D01*
X192481000Y-120863000D02*
X187401000Y-120863000D01*
X187401000Y-114513000D02*
X192481000Y-114513000D01*
X187401000Y-114513000D02*
X187401000Y-120863000D01*
X192481000Y-114513000D02*
X192481000Y-120863000D01*
G04 #@! TO.C,U1*
X185878000Y-89212000D02*
G75*
G03X185878000Y-89212000I-100000J0D01*
G01*
X186328000Y-89462000D02*
X185828000Y-89462000D01*
X186328000Y-92362000D02*
X186328000Y-89462000D01*
X185828000Y-92362000D02*
X186328000Y-92362000D01*
X185828000Y-89462000D02*
X185828000Y-92362000D01*
G04 #@! TO.C,U3*
X166966000Y-116963000D02*
X167191000Y-116963000D01*
X166966000Y-112313000D02*
X167191000Y-112313000D01*
X172216000Y-112313000D02*
X171991000Y-112313000D01*
X172216000Y-116963000D02*
X171991000Y-116963000D01*
X166966000Y-116963000D02*
X166966000Y-112313000D01*
X172216000Y-116963000D02*
X172216000Y-112313000D01*
X167191000Y-116963000D02*
X167191000Y-118313000D01*
G04 #@! TO.C,U4*
X158316000Y-106313000D02*
X158171000Y-106313000D01*
X158316000Y-110463000D02*
X158171000Y-110463000D01*
X153166000Y-110463000D02*
X153311000Y-110463000D01*
X153166000Y-106313000D02*
X153311000Y-106313000D01*
X158316000Y-106313000D02*
X158316000Y-110463000D01*
X153166000Y-106313000D02*
X153166000Y-110463000D01*
X158171000Y-106313000D02*
X158171000Y-104913000D01*
G04 #@! TO.C,U5*
X157041000Y-114638000D02*
G75*
G03X157041000Y-114638000I-100000J0D01*
G01*
X157191000Y-114088000D02*
X157191000Y-114588000D01*
X160091000Y-114088000D02*
X157191000Y-114088000D01*
X160091000Y-114588000D02*
X160091000Y-114088000D01*
X157191000Y-114588000D02*
X160091000Y-114588000D01*
G04 #@! TO.C,U7*
X142006000Y-104413000D02*
X141756000Y-104413000D01*
X142006000Y-107763000D02*
X141756000Y-107763000D01*
X138656000Y-107763000D02*
X138906000Y-107763000D01*
X138656000Y-104413000D02*
X138906000Y-104413000D01*
X142006000Y-104413000D02*
X142006000Y-107763000D01*
X138656000Y-104413000D02*
X138656000Y-107763000D01*
X141756000Y-104413000D02*
X141756000Y-103163000D01*
G04 #@! TO.C,U8*
X168592000Y-92343000D02*
X168447000Y-92343000D01*
X168592000Y-96493000D02*
X168447000Y-96493000D01*
X163442000Y-96493000D02*
X163587000Y-96493000D01*
X163442000Y-92343000D02*
X163587000Y-92343000D01*
X168592000Y-92343000D02*
X168592000Y-96493000D01*
X163442000Y-92343000D02*
X163442000Y-96493000D01*
X168447000Y-92343000D02*
X168447000Y-90943000D01*
G04 #@! TO.C,U9*
X182391000Y-117188000D02*
G75*
G03X182391000Y-117188000I-100000J0D01*
G01*
X181741000Y-116938000D02*
X182241000Y-116938000D01*
X181741000Y-114038000D02*
X181741000Y-116938000D01*
X182241000Y-114038000D02*
X181741000Y-114038000D01*
X182241000Y-116938000D02*
X182241000Y-114038000D01*
G04 #@! TO.C,U10*
X175066000Y-109018000D02*
X175066000Y-108873000D01*
X170916000Y-109018000D02*
X170916000Y-108873000D01*
X170916000Y-103868000D02*
X170916000Y-104013000D01*
X175066000Y-103868000D02*
X175066000Y-104013000D01*
X175066000Y-109018000D02*
X170916000Y-109018000D01*
X175066000Y-103868000D02*
X170916000Y-103868000D01*
X175066000Y-108873000D02*
X176466000Y-108873000D01*
G04 #@! TO.C,U11*
X158066000Y-92413000D02*
X157816000Y-92413000D01*
X158066000Y-95763000D02*
X157816000Y-95763000D01*
X154716000Y-95763000D02*
X154966000Y-95763000D01*
X154716000Y-92413000D02*
X154966000Y-92413000D01*
X158066000Y-92413000D02*
X158066000Y-95763000D01*
X154716000Y-92413000D02*
X154716000Y-95763000D01*
X157816000Y-92413000D02*
X157816000Y-91163000D01*
G04 #@! TO.C,UR1*
X160666840Y-108588240D02*
X160715100Y-108588240D01*
X163465820Y-107887200D02*
X163465820Y-108588240D01*
X163465820Y-108588240D02*
X163216900Y-108588240D01*
X160666840Y-108588240D02*
X160466180Y-108588240D01*
X160466180Y-108588240D02*
X160466180Y-107887200D01*
G04 #@! TO.C,UR2*
X158841840Y-94488240D02*
X158890100Y-94488240D01*
X161640820Y-93787200D02*
X161640820Y-94488240D01*
X161640820Y-94488240D02*
X161391900Y-94488240D01*
X158841840Y-94488240D02*
X158641180Y-94488240D01*
X158641180Y-94488240D02*
X158641180Y-93787200D01*
G04 #@! TO.C,USB1*
X95751740Y-98223360D02*
X86551860Y-98223360D01*
X95751740Y-105924640D02*
X95751740Y-98223360D01*
X86551860Y-105924640D02*
X95751740Y-105924640D01*
X86551860Y-98223360D02*
X86551860Y-105924640D01*
X87552620Y-98223360D02*
X87552620Y-105924640D01*
G04 #@! TO.C,X1*
X218698620Y-92396640D02*
X206999380Y-92396640D01*
X206999380Y-97395360D02*
X218698620Y-97395360D01*
X206999380Y-92396640D02*
X206999380Y-93245000D01*
X206999380Y-97395360D02*
X206999380Y-96547000D01*
X218698620Y-92396640D02*
X218698620Y-93245000D01*
X218698620Y-97395360D02*
X218698620Y-96547000D01*
G04 #@! TO.C,P6*
X149796000Y-116190000D02*
X98996000Y-116190000D01*
X101536000Y-121270000D02*
X149796000Y-121270000D01*
X149796000Y-116190000D02*
X149796000Y-121270000D01*
X98996000Y-116190000D02*
X98996000Y-118730000D01*
X98716000Y-120000000D02*
X98716000Y-121550000D01*
X98996000Y-118730000D02*
X101536000Y-118730000D01*
X101536000Y-118730000D02*
X101536000Y-121270000D01*
X98716000Y-121550000D02*
X100266000Y-121550000D01*
G04 #@! TO.C,U12*
X189366000Y-105038000D02*
X189366000Y-100638000D01*
X183916000Y-106613000D02*
X183916000Y-100638000D01*
G04 #@! TO.C,U14*
X144025000Y-88909500D02*
X143850000Y-88909500D01*
X144025000Y-92259500D02*
X143775000Y-92259500D01*
X140675000Y-92259500D02*
X140925000Y-92259500D01*
X140675000Y-88909500D02*
X140925000Y-88909500D01*
X144025000Y-88909500D02*
X144025000Y-92259500D01*
X140675000Y-88909500D02*
X140675000Y-92259500D01*
X143850000Y-88909500D02*
X143850000Y-87659500D01*
D14*
G04 #@! TO.C,C1*
X143341422Y-94374500D02*
X143858578Y-94374500D01*
X143341422Y-95794500D02*
X143858578Y-95794500D01*
G04 #@! TO.C,C2*
X145371000Y-90079422D02*
X145371000Y-90596578D01*
X146791000Y-90079422D02*
X146791000Y-90596578D01*
G04 #@! TO.C,C3*
X149236000Y-90079422D02*
X149236000Y-90596578D01*
X147816000Y-90079422D02*
X147816000Y-90596578D01*
G04 #@! TO.C,C4*
X186376578Y-93206500D02*
X185859422Y-93206500D01*
X186376578Y-94626500D02*
X185859422Y-94626500D01*
G04 #@! TO.C,C5*
X185859422Y-87364500D02*
X186376578Y-87364500D01*
X185859422Y-88784500D02*
X186376578Y-88784500D01*
G04 #@! TO.C,C6*
X154999578Y-113678000D02*
X154482422Y-113678000D01*
X154999578Y-115098000D02*
X154482422Y-115098000D01*
G04 #@! TO.C,C7*
X141121000Y-97329422D02*
X141121000Y-97846578D01*
X142541000Y-97329422D02*
X142541000Y-97846578D01*
G04 #@! TO.C,C8*
X159882422Y-110478000D02*
X160399578Y-110478000D01*
X159882422Y-111898000D02*
X160399578Y-111898000D01*
G04 #@! TO.C,C9*
X167051000Y-110429422D02*
X167051000Y-110946578D01*
X165631000Y-110429422D02*
X165631000Y-110946578D01*
G04 #@! TO.C,C10*
X137121000Y-102346578D02*
X137121000Y-101829422D01*
X138541000Y-102346578D02*
X138541000Y-101829422D01*
G04 #@! TO.C,C11*
X143572422Y-109048000D02*
X144089578Y-109048000D01*
X143572422Y-107628000D02*
X144089578Y-107628000D01*
G04 #@! TO.C,C13*
X136822422Y-109298000D02*
X137339578Y-109298000D01*
X136822422Y-107878000D02*
X137339578Y-107878000D01*
G04 #@! TO.C,C14*
X94927922Y-110284000D02*
X95445078Y-110284000D01*
X94927922Y-108864000D02*
X95445078Y-108864000D01*
G04 #@! TO.C,C15*
X165775578Y-90378000D02*
X165258422Y-90378000D01*
X165775578Y-88958000D02*
X165258422Y-88958000D01*
G04 #@! TO.C,C16*
X169406000Y-92133922D02*
X169406000Y-92651078D01*
X170826000Y-92133922D02*
X170826000Y-92651078D01*
G04 #@! TO.C,C17*
X169101000Y-104429422D02*
X169101000Y-104946578D01*
X167681000Y-104429422D02*
X167681000Y-104946578D01*
G04 #@! TO.C,C18*
X183777422Y-118655000D02*
X184294578Y-118655000D01*
X183777422Y-117235000D02*
X184294578Y-117235000D01*
G04 #@! TO.C,C19*
X153381000Y-90579422D02*
X153381000Y-91096578D01*
X154801000Y-90579422D02*
X154801000Y-91096578D01*
G04 #@! TO.C,C20*
X212259000Y-116937422D02*
X212259000Y-117454578D01*
X210839000Y-116937422D02*
X210839000Y-117454578D01*
G04 #@! TO.C,C21*
X212365422Y-112881000D02*
X212882578Y-112881000D01*
X212365422Y-111461000D02*
X212882578Y-111461000D01*
G04 #@! TO.C,C22*
X157882422Y-99048000D02*
X158399578Y-99048000D01*
X157882422Y-97628000D02*
X158399578Y-97628000D01*
G04 #@! TO.C,C23*
X209039000Y-116987422D02*
X209039000Y-117504578D01*
X210459000Y-116987422D02*
X210459000Y-117504578D01*
G04 #@! TO.C,C24*
X212365422Y-114956000D02*
X212882578Y-114956000D01*
X212365422Y-113536000D02*
X212882578Y-113536000D01*
G04 #@! TO.C,C25*
X161851000Y-97079422D02*
X161851000Y-97596578D01*
X160431000Y-97079422D02*
X160431000Y-97596578D01*
G04 #@! TO.C,C26*
X205309000Y-112343936D02*
X205309000Y-113548064D01*
X203489000Y-112343936D02*
X203489000Y-113548064D01*
G04 #@! TO.C,C27*
X207559000Y-111987422D02*
X207559000Y-112504578D01*
X206139000Y-111987422D02*
X206139000Y-112504578D01*
G04 #@! TO.C,C28*
X181882422Y-99378000D02*
X182399578Y-99378000D01*
X181882422Y-100798000D02*
X182399578Y-100798000D01*
G04 #@! TO.C,C29*
X154649578Y-99548000D02*
X154132422Y-99548000D01*
X154649578Y-98128000D02*
X154132422Y-98128000D01*
G04 #@! TO.C,C30*
X209559000Y-111987422D02*
X209559000Y-112504578D01*
X208139000Y-111987422D02*
X208139000Y-112504578D01*
G04 #@! TO.C,C31*
X154649578Y-100128000D02*
X154132422Y-100128000D01*
X154649578Y-101548000D02*
X154132422Y-101548000D01*
G04 #@! TO.C,C32*
X219317000Y-107237422D02*
X219317000Y-107754578D01*
X217897000Y-107237422D02*
X217897000Y-107754578D01*
G04 #@! TO.C,C33*
X215897000Y-107237422D02*
X215897000Y-107754578D01*
X217317000Y-107237422D02*
X217317000Y-107754578D01*
G04 #@! TO.C,C34*
X154543064Y-102478000D02*
X153338936Y-102478000D01*
X154543064Y-104298000D02*
X153338936Y-104298000D01*
G04 #@! TO.C,C35*
X207402000Y-108254578D02*
X207402000Y-107737422D01*
X205982000Y-108254578D02*
X205982000Y-107737422D01*
G04 #@! TO.C,C36*
X205116000Y-108254578D02*
X205116000Y-107737422D01*
X203696000Y-108254578D02*
X203696000Y-107737422D01*
G04 #@! TO.C,C37*
X184851000Y-109579422D02*
X184851000Y-110096578D01*
X183431000Y-109579422D02*
X183431000Y-110096578D01*
G04 #@! TO.C,C38*
X181399578Y-108298000D02*
X180882422Y-108298000D01*
X181399578Y-106878000D02*
X180882422Y-106878000D01*
G04 #@! TO.C,C39*
X182299578Y-94948000D02*
X181782422Y-94948000D01*
X182299578Y-93528000D02*
X181782422Y-93528000D01*
G04 #@! TO.C,C40*
X188931000Y-109579422D02*
X188931000Y-110096578D01*
X190351000Y-109579422D02*
X190351000Y-110096578D01*
G04 #@! TO.C,C41*
X190882422Y-95158000D02*
X191399578Y-95158000D01*
X190882422Y-93738000D02*
X191399578Y-93738000D01*
G04 #@! TO.C,C52*
X182360000Y-89349078D02*
X182360000Y-88831922D01*
X183780000Y-89349078D02*
X183780000Y-88831922D01*
G04 #@! TO.C,C53*
X181748000Y-89349078D02*
X181748000Y-88831922D01*
X180328000Y-89349078D02*
X180328000Y-88831922D01*
G04 #@! TO.C,C54*
X178096000Y-89692564D02*
X178096000Y-88488436D01*
X179916000Y-89692564D02*
X179916000Y-88488436D01*
G04 #@! TO.C,FB1*
X100778578Y-104406000D02*
X100261422Y-104406000D01*
X100778578Y-102986000D02*
X100261422Y-102986000D01*
G04 #@! TO.C,FB2*
X97928500Y-105604578D02*
X97928500Y-105087422D01*
X96508500Y-105604578D02*
X96508500Y-105087422D01*
G04 #@! TO.C,R1*
X140541000Y-96329422D02*
X140541000Y-96846578D01*
X139121000Y-96329422D02*
X139121000Y-96846578D01*
G04 #@! TO.C,R2*
X139121000Y-100579422D02*
X139121000Y-101096578D01*
X140541000Y-100579422D02*
X140541000Y-101096578D01*
G04 #@! TO.C,R3*
X156931000Y-117829422D02*
X156931000Y-118346578D01*
X158351000Y-117829422D02*
X158351000Y-118346578D01*
G04 #@! TO.C,R4*
X142541000Y-100579422D02*
X142541000Y-101096578D01*
X141121000Y-100579422D02*
X141121000Y-101096578D01*
G04 #@! TO.C,R5*
X138291000Y-105829422D02*
X138291000Y-106346578D01*
X136871000Y-105829422D02*
X136871000Y-106346578D01*
G04 #@! TO.C,R6*
X136822422Y-111298000D02*
X137339578Y-111298000D01*
X136822422Y-109878000D02*
X137339578Y-109878000D01*
G04 #@! TO.C,R7*
X94927922Y-112660000D02*
X95445078Y-112660000D01*
X94927922Y-111240000D02*
X95445078Y-111240000D01*
G04 #@! TO.C,R8*
X140839578Y-109878000D02*
X140322422Y-109878000D01*
X140839578Y-111298000D02*
X140322422Y-111298000D01*
G04 #@! TO.C,R9*
X180281000Y-119729422D02*
X180281000Y-120246578D01*
X181701000Y-119729422D02*
X181701000Y-120246578D01*
G04 #@! TO.C,R10*
X156899578Y-90698000D02*
X156382422Y-90698000D01*
X156899578Y-89278000D02*
X156382422Y-89278000D01*
G04 #@! TO.C,R11*
X206637422Y-117893000D02*
X207154578Y-117893000D01*
X206637422Y-116473000D02*
X207154578Y-116473000D01*
G04 #@! TO.C,R12*
X214759000Y-117354578D02*
X214759000Y-116837422D01*
X213339000Y-117354578D02*
X213339000Y-116837422D01*
G04 #@! TO.C,R13*
X200590422Y-112006000D02*
X201107578Y-112006000D01*
X200590422Y-110586000D02*
X201107578Y-110586000D01*
G04 #@! TO.C,R14*
X200490422Y-115306000D02*
X201007578Y-115306000D01*
X200490422Y-113886000D02*
X201007578Y-113886000D01*
G04 #@! TO.C,R15*
X186601000Y-109579422D02*
X186601000Y-110096578D01*
X185181000Y-109579422D02*
X185181000Y-110096578D01*
G04 #@! TO.C,R16*
X181399578Y-106548000D02*
X180882422Y-106548000D01*
X181399578Y-105128000D02*
X180882422Y-105128000D01*
G04 #@! TO.C,R17*
X182299578Y-96948000D02*
X181782422Y-96948000D01*
X182299578Y-95528000D02*
X181782422Y-95528000D01*
G04 #@! TO.C,R18*
X192526936Y-100474000D02*
X193731064Y-100474000D01*
X192526936Y-102294000D02*
X193731064Y-102294000D01*
G04 #@! TO.C,R19*
X188601000Y-109579422D02*
X188601000Y-110096578D01*
X187181000Y-109579422D02*
X187181000Y-110096578D01*
G04 #@! TO.C,R20*
X190882422Y-97698000D02*
X191399578Y-97698000D01*
X190882422Y-96278000D02*
X191399578Y-96278000D01*
G04 #@! TO.C,R22*
X203607578Y-99086000D02*
X203090422Y-99086000D01*
X203607578Y-100506000D02*
X203090422Y-100506000D01*
G04 #@! TO.C,R23*
X203607578Y-102606000D02*
X203090422Y-102606000D01*
X203607578Y-101186000D02*
X203090422Y-101186000D01*
G04 #@! TO.C,R24*
X203607578Y-96986000D02*
X203090422Y-96986000D01*
X203607578Y-98406000D02*
X203090422Y-98406000D01*
G04 #@! TO.C,R25*
X102246000Y-110938578D02*
X102246000Y-110421422D01*
X100826000Y-110938578D02*
X100826000Y-110421422D01*
G04 #@! TO.C,R26*
X120384000Y-108135422D02*
X120384000Y-108652578D01*
X121804000Y-108135422D02*
X121804000Y-108652578D01*
D13*
G04 #@! TO.C,IC1*
X125326396Y-95307514D02*
X126227957Y-94405952D01*
X115586000Y-105861082D02*
X116063297Y-105383785D01*
X105439018Y-95714100D02*
X105916315Y-95236803D01*
X115586000Y-85567118D02*
X115108703Y-86044415D01*
X125732982Y-95714100D02*
X125255685Y-96191397D01*
X115586000Y-85567118D02*
X116063297Y-86044415D01*
X105439018Y-95714100D02*
X105916315Y-96191397D01*
X115586000Y-105861082D02*
X115108703Y-105383785D01*
X125732982Y-95714100D02*
X125326396Y-95307514D01*
D14*
G04 #@! TO.C,C12*
X136837422Y-111748000D02*
X137354578Y-111748000D01*
X136837422Y-113168000D02*
X137354578Y-113168000D01*
G04 #@! TO.C,U6*
D13*
X100826177Y-97410126D02*
X100253757Y-97982546D01*
X100220085Y-98083561D01*
X100220085Y-98150905D01*
X100253757Y-98251920D01*
X100388444Y-98386607D01*
X100489459Y-98420279D01*
X100556803Y-98420279D01*
X100657818Y-98386607D01*
X101230238Y-97814187D01*
X101870001Y-98453951D02*
X101735314Y-98319264D01*
X101634299Y-98285592D01*
X101566955Y-98285592D01*
X101398596Y-98319264D01*
X101230238Y-98420279D01*
X100960864Y-98689653D01*
X100927192Y-98790668D01*
X100927192Y-98858012D01*
X100960864Y-98959027D01*
X101095551Y-99093714D01*
X101196566Y-99127386D01*
X101263909Y-99127386D01*
X101364925Y-99093714D01*
X101533283Y-98925355D01*
X101566955Y-98824340D01*
X101566955Y-98756996D01*
X101533283Y-98655981D01*
X101398596Y-98521294D01*
X101297581Y-98487622D01*
X101230238Y-98487622D01*
X101129222Y-98521294D01*
G04 #@! TO.C,U2*
X145224595Y-101598480D02*
X145224595Y-102408004D01*
X145272214Y-102503242D01*
X145319833Y-102550861D01*
X145415071Y-102598480D01*
X145605547Y-102598480D01*
X145700785Y-102550861D01*
X145748404Y-102503242D01*
X145796023Y-102408004D01*
X145796023Y-101598480D01*
X146224595Y-101693719D02*
X146272214Y-101646100D01*
X146367452Y-101598480D01*
X146605547Y-101598480D01*
X146700785Y-101646100D01*
X146748404Y-101693719D01*
X146796023Y-101788957D01*
X146796023Y-101884195D01*
X146748404Y-102027052D01*
X146176976Y-102598480D01*
X146796023Y-102598480D01*
G04 #@! TO.C,SW1*
X195706666Y-93741261D02*
X195849523Y-93788880D01*
X196087619Y-93788880D01*
X196182857Y-93741261D01*
X196230476Y-93693642D01*
X196278095Y-93598404D01*
X196278095Y-93503166D01*
X196230476Y-93407928D01*
X196182857Y-93360309D01*
X196087619Y-93312690D01*
X195897142Y-93265071D01*
X195801904Y-93217452D01*
X195754285Y-93169833D01*
X195706666Y-93074595D01*
X195706666Y-92979357D01*
X195754285Y-92884119D01*
X195801904Y-92836500D01*
X195897142Y-92788880D01*
X196135238Y-92788880D01*
X196278095Y-92836500D01*
X196611428Y-92788880D02*
X196849523Y-93788880D01*
X197040000Y-93074595D01*
X197230476Y-93788880D01*
X197468571Y-92788880D01*
X198373333Y-93788880D02*
X197801904Y-93788880D01*
X198087619Y-93788880D02*
X198087619Y-92788880D01*
X197992380Y-92931738D01*
X197897142Y-93026976D01*
X197801904Y-93074595D01*
G04 #@! TO.C,C58*
X148137142Y-107481142D02*
X148089523Y-107528761D01*
X147946666Y-107576380D01*
X147851428Y-107576380D01*
X147708571Y-107528761D01*
X147613333Y-107433523D01*
X147565714Y-107338285D01*
X147518095Y-107147809D01*
X147518095Y-107004952D01*
X147565714Y-106814476D01*
X147613333Y-106719238D01*
X147708571Y-106624000D01*
X147851428Y-106576380D01*
X147946666Y-106576380D01*
X148089523Y-106624000D01*
X148137142Y-106671619D01*
X149041904Y-106576380D02*
X148565714Y-106576380D01*
X148518095Y-107052571D01*
X148565714Y-107004952D01*
X148660952Y-106957333D01*
X148899047Y-106957333D01*
X148994285Y-107004952D01*
X149041904Y-107052571D01*
X149089523Y-107147809D01*
X149089523Y-107385904D01*
X149041904Y-107481142D01*
X148994285Y-107528761D01*
X148899047Y-107576380D01*
X148660952Y-107576380D01*
X148565714Y-107528761D01*
X148518095Y-107481142D01*
X149660952Y-107004952D02*
X149565714Y-106957333D01*
X149518095Y-106909714D01*
X149470476Y-106814476D01*
X149470476Y-106766857D01*
X149518095Y-106671619D01*
X149565714Y-106624000D01*
X149660952Y-106576380D01*
X149851428Y-106576380D01*
X149946666Y-106624000D01*
X149994285Y-106671619D01*
X150041904Y-106766857D01*
X150041904Y-106814476D01*
X149994285Y-106909714D01*
X149946666Y-106957333D01*
X149851428Y-107004952D01*
X149660952Y-107004952D01*
X149565714Y-107052571D01*
X149518095Y-107100190D01*
X149470476Y-107195428D01*
X149470476Y-107385904D01*
X149518095Y-107481142D01*
X149565714Y-107528761D01*
X149660952Y-107576380D01*
X149851428Y-107576380D01*
X149946666Y-107528761D01*
X149994285Y-107481142D01*
X150041904Y-107385904D01*
X150041904Y-107195428D01*
X149994285Y-107100190D01*
X149946666Y-107052571D01*
X149851428Y-107004952D01*
G04 #@! TO.C,C59*
X145191242Y-99099642D02*
X145143623Y-99147261D01*
X145000766Y-99194880D01*
X144905528Y-99194880D01*
X144762671Y-99147261D01*
X144667433Y-99052023D01*
X144619814Y-98956785D01*
X144572195Y-98766309D01*
X144572195Y-98623452D01*
X144619814Y-98432976D01*
X144667433Y-98337738D01*
X144762671Y-98242500D01*
X144905528Y-98194880D01*
X145000766Y-98194880D01*
X145143623Y-98242500D01*
X145191242Y-98290119D01*
X146096004Y-98194880D02*
X145619814Y-98194880D01*
X145572195Y-98671071D01*
X145619814Y-98623452D01*
X145715052Y-98575833D01*
X145953147Y-98575833D01*
X146048385Y-98623452D01*
X146096004Y-98671071D01*
X146143623Y-98766309D01*
X146143623Y-99004404D01*
X146096004Y-99099642D01*
X146048385Y-99147261D01*
X145953147Y-99194880D01*
X145715052Y-99194880D01*
X145619814Y-99147261D01*
X145572195Y-99099642D01*
X146619814Y-99194880D02*
X146810290Y-99194880D01*
X146905528Y-99147261D01*
X146953147Y-99099642D01*
X147048385Y-98956785D01*
X147096004Y-98766309D01*
X147096004Y-98385357D01*
X147048385Y-98290119D01*
X147000766Y-98242500D01*
X146905528Y-98194880D01*
X146715052Y-98194880D01*
X146619814Y-98242500D01*
X146572195Y-98290119D01*
X146524576Y-98385357D01*
X146524576Y-98623452D01*
X146572195Y-98718690D01*
X146619814Y-98766309D01*
X146715052Y-98813928D01*
X146905528Y-98813928D01*
X147000766Y-98766309D01*
X147048385Y-98718690D01*
X147096004Y-98623452D01*
G04 #@! TO.C,R21*
X192536842Y-106865680D02*
X192203509Y-106389490D01*
X191965414Y-106865680D02*
X191965414Y-105865680D01*
X192346366Y-105865680D01*
X192441604Y-105913300D01*
X192489223Y-105960919D01*
X192536842Y-106056157D01*
X192536842Y-106199014D01*
X192489223Y-106294252D01*
X192441604Y-106341871D01*
X192346366Y-106389490D01*
X191965414Y-106389490D01*
X192917795Y-105960919D02*
X192965414Y-105913300D01*
X193060652Y-105865680D01*
X193298747Y-105865680D01*
X193393985Y-105913300D01*
X193441604Y-105960919D01*
X193489223Y-106056157D01*
X193489223Y-106151395D01*
X193441604Y-106294252D01*
X192870176Y-106865680D01*
X193489223Y-106865680D01*
X194441604Y-106865680D02*
X193870176Y-106865680D01*
X194155890Y-106865680D02*
X194155890Y-105865680D01*
X194060652Y-106008538D01*
X193965414Y-106103776D01*
X193870176Y-106151395D01*
G04 #@! TO.C,X2*
X126383255Y-106039694D02*
X127561766Y-106275396D01*
X126854659Y-105568290D02*
X127090361Y-106746801D01*
X127157705Y-105399931D02*
X127157705Y-105332587D01*
X127191377Y-105231572D01*
X127359735Y-105063213D01*
X127460751Y-105029542D01*
X127528094Y-105029542D01*
X127629109Y-105063213D01*
X127696453Y-105130557D01*
X127763796Y-105265244D01*
X127763796Y-106073366D01*
X128201529Y-105635633D01*
G04 #@! TO.C,U13*
X205581404Y-101623880D02*
X205581404Y-102433404D01*
X205629023Y-102528642D01*
X205676642Y-102576261D01*
X205771880Y-102623880D01*
X205962357Y-102623880D01*
X206057595Y-102576261D01*
X206105214Y-102528642D01*
X206152833Y-102433404D01*
X206152833Y-101623880D01*
X207152833Y-102623880D02*
X206581404Y-102623880D01*
X206867119Y-102623880D02*
X206867119Y-101623880D01*
X206771880Y-101766738D01*
X206676642Y-101861976D01*
X206581404Y-101909595D01*
X207486166Y-101623880D02*
X208105214Y-101623880D01*
X207771880Y-102004833D01*
X207914738Y-102004833D01*
X208009976Y-102052452D01*
X208057595Y-102100071D01*
X208105214Y-102195309D01*
X208105214Y-102433404D01*
X208057595Y-102528642D01*
X208009976Y-102576261D01*
X207914738Y-102623880D01*
X207629023Y-102623880D01*
X207533785Y-102576261D01*
X207486166Y-102528642D01*
G04 #@! TO.C,P2*
X164777680Y-120622095D02*
X163777680Y-120622095D01*
X163777680Y-120241142D01*
X163825300Y-120145904D01*
X163872919Y-120098285D01*
X163968157Y-120050666D01*
X164111014Y-120050666D01*
X164206252Y-120098285D01*
X164253871Y-120145904D01*
X164301490Y-120241142D01*
X164301490Y-120622095D01*
X163872919Y-119669714D02*
X163825300Y-119622095D01*
X163777680Y-119526857D01*
X163777680Y-119288761D01*
X163825300Y-119193523D01*
X163872919Y-119145904D01*
X163968157Y-119098285D01*
X164063395Y-119098285D01*
X164206252Y-119145904D01*
X164777680Y-119717333D01*
X164777680Y-119098285D01*
G04 #@! TO.C,P3*
X172042080Y-120622095D02*
X171042080Y-120622095D01*
X171042080Y-120241142D01*
X171089700Y-120145904D01*
X171137319Y-120098285D01*
X171232557Y-120050666D01*
X171375414Y-120050666D01*
X171470652Y-120098285D01*
X171518271Y-120145904D01*
X171565890Y-120241142D01*
X171565890Y-120622095D01*
X171042080Y-119717333D02*
X171042080Y-119098285D01*
X171423033Y-119431619D01*
X171423033Y-119288761D01*
X171470652Y-119193523D01*
X171518271Y-119145904D01*
X171613509Y-119098285D01*
X171851604Y-119098285D01*
X171946842Y-119145904D01*
X171994461Y-119193523D01*
X172042080Y-119288761D01*
X172042080Y-119574476D01*
X171994461Y-119669714D01*
X171946842Y-119717333D01*
G04 #@! TO.C,D1*
X121270804Y-113876080D02*
X121270804Y-112876080D01*
X121508900Y-112876080D01*
X121651757Y-112923700D01*
X121746995Y-113018938D01*
X121794614Y-113114176D01*
X121842233Y-113304652D01*
X121842233Y-113447509D01*
X121794614Y-113637985D01*
X121746995Y-113733223D01*
X121651757Y-113828461D01*
X121508900Y-113876080D01*
X121270804Y-113876080D01*
X122794614Y-113876080D02*
X122223185Y-113876080D01*
X122508900Y-113876080D02*
X122508900Y-112876080D01*
X122413661Y-113018938D01*
X122318423Y-113114176D01*
X122223185Y-113161795D01*
G04 #@! TO.C,D2*
X98178880Y-111418095D02*
X97178880Y-111418095D01*
X97178880Y-111180000D01*
X97226500Y-111037142D01*
X97321738Y-110941904D01*
X97416976Y-110894285D01*
X97607452Y-110846666D01*
X97750309Y-110846666D01*
X97940785Y-110894285D01*
X98036023Y-110941904D01*
X98131261Y-111037142D01*
X98178880Y-111180000D01*
X98178880Y-111418095D01*
X97274119Y-110465714D02*
X97226500Y-110418095D01*
X97178880Y-110322857D01*
X97178880Y-110084761D01*
X97226500Y-109989523D01*
X97274119Y-109941904D01*
X97369357Y-109894285D01*
X97464595Y-109894285D01*
X97607452Y-109941904D01*
X98178880Y-110513333D01*
X98178880Y-109894285D01*
G04 #@! TO.C,CON1*
X129278214Y-107481642D02*
X129230595Y-107529261D01*
X129087738Y-107576880D01*
X128992500Y-107576880D01*
X128849642Y-107529261D01*
X128754404Y-107434023D01*
X128706785Y-107338785D01*
X128659166Y-107148309D01*
X128659166Y-107005452D01*
X128706785Y-106814976D01*
X128754404Y-106719738D01*
X128849642Y-106624500D01*
X128992500Y-106576880D01*
X129087738Y-106576880D01*
X129230595Y-106624500D01*
X129278214Y-106672119D01*
X129897261Y-106576880D02*
X130087738Y-106576880D01*
X130182976Y-106624500D01*
X130278214Y-106719738D01*
X130325833Y-106910214D01*
X130325833Y-107243547D01*
X130278214Y-107434023D01*
X130182976Y-107529261D01*
X130087738Y-107576880D01*
X129897261Y-107576880D01*
X129802023Y-107529261D01*
X129706785Y-107434023D01*
X129659166Y-107243547D01*
X129659166Y-106910214D01*
X129706785Y-106719738D01*
X129802023Y-106624500D01*
X129897261Y-106576880D01*
X130754404Y-107576880D02*
X130754404Y-106576880D01*
X131325833Y-107576880D01*
X131325833Y-106576880D01*
X132325833Y-107576880D02*
X131754404Y-107576880D01*
X132040119Y-107576880D02*
X132040119Y-106576880D01*
X131944880Y-106719738D01*
X131849642Y-106814976D01*
X131754404Y-106862595D01*
G04 #@! TO.C,P7*
X193747880Y-118371595D02*
X192747880Y-118371595D01*
X192747880Y-117990642D01*
X192795500Y-117895404D01*
X192843119Y-117847785D01*
X192938357Y-117800166D01*
X193081214Y-117800166D01*
X193176452Y-117847785D01*
X193224071Y-117895404D01*
X193271690Y-117990642D01*
X193271690Y-118371595D01*
X192747880Y-117466833D02*
X192747880Y-116800166D01*
X193747880Y-117228738D01*
G04 #@! TO.C,U1*
X187769595Y-90320880D02*
X187769595Y-91130404D01*
X187817214Y-91225642D01*
X187864833Y-91273261D01*
X187960071Y-91320880D01*
X188150547Y-91320880D01*
X188245785Y-91273261D01*
X188293404Y-91225642D01*
X188341023Y-91130404D01*
X188341023Y-90320880D01*
X189341023Y-91320880D02*
X188769595Y-91320880D01*
X189055309Y-91320880D02*
X189055309Y-90320880D01*
X188960071Y-90463738D01*
X188864833Y-90558976D01*
X188769595Y-90606595D01*
G04 #@! TO.C,U3*
X172618380Y-115410904D02*
X173427904Y-115410904D01*
X173523142Y-115363285D01*
X173570761Y-115315666D01*
X173618380Y-115220428D01*
X173618380Y-115029952D01*
X173570761Y-114934714D01*
X173523142Y-114887095D01*
X173427904Y-114839476D01*
X172618380Y-114839476D01*
X172618380Y-114458523D02*
X172618380Y-113839476D01*
X172999333Y-114172809D01*
X172999333Y-114029952D01*
X173046952Y-113934714D01*
X173094571Y-113887095D01*
X173189809Y-113839476D01*
X173427904Y-113839476D01*
X173523142Y-113887095D01*
X173570761Y-113934714D01*
X173618380Y-114029952D01*
X173618380Y-114315666D01*
X173570761Y-114410904D01*
X173523142Y-114458523D01*
G04 #@! TO.C,U4*
X158693380Y-109149904D02*
X159502904Y-109149904D01*
X159598142Y-109102285D01*
X159645761Y-109054666D01*
X159693380Y-108959428D01*
X159693380Y-108768952D01*
X159645761Y-108673714D01*
X159598142Y-108626095D01*
X159502904Y-108578476D01*
X158693380Y-108578476D01*
X159026714Y-107673714D02*
X159693380Y-107673714D01*
X158645761Y-107911809D02*
X159360047Y-108149904D01*
X159360047Y-107530857D01*
G04 #@! TO.C,U5*
X160489880Y-115093404D02*
X161299404Y-115093404D01*
X161394642Y-115045785D01*
X161442261Y-114998166D01*
X161489880Y-114902928D01*
X161489880Y-114712452D01*
X161442261Y-114617214D01*
X161394642Y-114569595D01*
X161299404Y-114521976D01*
X160489880Y-114521976D01*
X160489880Y-113569595D02*
X160489880Y-114045785D01*
X160966071Y-114093404D01*
X160918452Y-114045785D01*
X160870833Y-113950547D01*
X160870833Y-113712452D01*
X160918452Y-113617214D01*
X160966071Y-113569595D01*
X161061309Y-113521976D01*
X161299404Y-113521976D01*
X161394642Y-113569595D01*
X161442261Y-113617214D01*
X161489880Y-113712452D01*
X161489880Y-113950547D01*
X161442261Y-114045785D01*
X161394642Y-114093404D01*
G04 #@! TO.C,U7*
X142383380Y-106849904D02*
X143192904Y-106849904D01*
X143288142Y-106802285D01*
X143335761Y-106754666D01*
X143383380Y-106659428D01*
X143383380Y-106468952D01*
X143335761Y-106373714D01*
X143288142Y-106326095D01*
X143192904Y-106278476D01*
X142383380Y-106278476D01*
X142383380Y-105897523D02*
X142383380Y-105230857D01*
X143383380Y-105659428D01*
G04 #@! TO.C,U8*
X168998880Y-96170404D02*
X169808404Y-96170404D01*
X169903642Y-96122785D01*
X169951261Y-96075166D01*
X169998880Y-95979928D01*
X169998880Y-95789452D01*
X169951261Y-95694214D01*
X169903642Y-95646595D01*
X169808404Y-95598976D01*
X168998880Y-95598976D01*
X169427452Y-94979928D02*
X169379833Y-95075166D01*
X169332214Y-95122785D01*
X169236976Y-95170404D01*
X169189357Y-95170404D01*
X169094119Y-95122785D01*
X169046500Y-95075166D01*
X168998880Y-94979928D01*
X168998880Y-94789452D01*
X169046500Y-94694214D01*
X169094119Y-94646595D01*
X169189357Y-94598976D01*
X169236976Y-94598976D01*
X169332214Y-94646595D01*
X169379833Y-94694214D01*
X169427452Y-94789452D01*
X169427452Y-94979928D01*
X169475071Y-95075166D01*
X169522690Y-95122785D01*
X169617928Y-95170404D01*
X169808404Y-95170404D01*
X169903642Y-95122785D01*
X169951261Y-95075166D01*
X169998880Y-94979928D01*
X169998880Y-94789452D01*
X169951261Y-94694214D01*
X169903642Y-94646595D01*
X169808404Y-94598976D01*
X169617928Y-94598976D01*
X169522690Y-94646595D01*
X169475071Y-94694214D01*
X169427452Y-94789452D01*
G04 #@! TO.C,U9*
X181230595Y-112386880D02*
X181230595Y-113196404D01*
X181278214Y-113291642D01*
X181325833Y-113339261D01*
X181421071Y-113386880D01*
X181611547Y-113386880D01*
X181706785Y-113339261D01*
X181754404Y-113291642D01*
X181802023Y-113196404D01*
X181802023Y-112386880D01*
X182325833Y-113386880D02*
X182516309Y-113386880D01*
X182611547Y-113339261D01*
X182659166Y-113291642D01*
X182754404Y-113148785D01*
X182802023Y-112958309D01*
X182802023Y-112577357D01*
X182754404Y-112482119D01*
X182706785Y-112434500D01*
X182611547Y-112386880D01*
X182421071Y-112386880D01*
X182325833Y-112434500D01*
X182278214Y-112482119D01*
X182230595Y-112577357D01*
X182230595Y-112815452D01*
X182278214Y-112910690D01*
X182325833Y-112958309D01*
X182421071Y-113005928D01*
X182611547Y-113005928D01*
X182706785Y-112958309D01*
X182754404Y-112910690D01*
X182802023Y-112815452D01*
G04 #@! TO.C,U10*
X171927904Y-102353880D02*
X171927904Y-103163404D01*
X171975523Y-103258642D01*
X172023142Y-103306261D01*
X172118380Y-103353880D01*
X172308857Y-103353880D01*
X172404095Y-103306261D01*
X172451714Y-103258642D01*
X172499333Y-103163404D01*
X172499333Y-102353880D01*
X173499333Y-103353880D02*
X172927904Y-103353880D01*
X173213619Y-103353880D02*
X173213619Y-102353880D01*
X173118380Y-102496738D01*
X173023142Y-102591976D01*
X172927904Y-102639595D01*
X174118380Y-102353880D02*
X174213619Y-102353880D01*
X174308857Y-102401500D01*
X174356476Y-102449119D01*
X174404095Y-102544357D01*
X174451714Y-102734833D01*
X174451714Y-102972928D01*
X174404095Y-103163404D01*
X174356476Y-103258642D01*
X174308857Y-103306261D01*
X174213619Y-103353880D01*
X174118380Y-103353880D01*
X174023142Y-103306261D01*
X173975523Y-103258642D01*
X173927904Y-103163404D01*
X173880285Y-102972928D01*
X173880285Y-102734833D01*
X173927904Y-102544357D01*
X173975523Y-102449119D01*
X174023142Y-102401500D01*
X174118380Y-102353880D01*
G04 #@! TO.C,U11*
X153123880Y-95313095D02*
X153933404Y-95313095D01*
X154028642Y-95265476D01*
X154076261Y-95217857D01*
X154123880Y-95122619D01*
X154123880Y-94932142D01*
X154076261Y-94836904D01*
X154028642Y-94789285D01*
X153933404Y-94741666D01*
X153123880Y-94741666D01*
X154123880Y-93741666D02*
X154123880Y-94313095D01*
X154123880Y-94027380D02*
X153123880Y-94027380D01*
X153266738Y-94122619D01*
X153361976Y-94217857D01*
X153409595Y-94313095D01*
X154123880Y-92789285D02*
X154123880Y-93360714D01*
X154123880Y-93075000D02*
X153123880Y-93075000D01*
X153266738Y-93170238D01*
X153361976Y-93265476D01*
X153409595Y-93360714D01*
G04 #@! TO.C,UR1*
X160664595Y-104893880D02*
X160664595Y-105703404D01*
X160712214Y-105798642D01*
X160759833Y-105846261D01*
X160855071Y-105893880D01*
X161045547Y-105893880D01*
X161140785Y-105846261D01*
X161188404Y-105798642D01*
X161236023Y-105703404D01*
X161236023Y-104893880D01*
X162283642Y-105893880D02*
X161950309Y-105417690D01*
X161712214Y-105893880D02*
X161712214Y-104893880D01*
X162093166Y-104893880D01*
X162188404Y-104941500D01*
X162236023Y-104989119D01*
X162283642Y-105084357D01*
X162283642Y-105227214D01*
X162236023Y-105322452D01*
X162188404Y-105370071D01*
X162093166Y-105417690D01*
X161712214Y-105417690D01*
X163236023Y-105893880D02*
X162664595Y-105893880D01*
X162950309Y-105893880D02*
X162950309Y-104893880D01*
X162855071Y-105036738D01*
X162759833Y-105131976D01*
X162664595Y-105179595D01*
G04 #@! TO.C,UR2*
X158759595Y-90923880D02*
X158759595Y-91733404D01*
X158807214Y-91828642D01*
X158854833Y-91876261D01*
X158950071Y-91923880D01*
X159140547Y-91923880D01*
X159235785Y-91876261D01*
X159283404Y-91828642D01*
X159331023Y-91733404D01*
X159331023Y-90923880D01*
X160378642Y-91923880D02*
X160045309Y-91447690D01*
X159807214Y-91923880D02*
X159807214Y-90923880D01*
X160188166Y-90923880D01*
X160283404Y-90971500D01*
X160331023Y-91019119D01*
X160378642Y-91114357D01*
X160378642Y-91257214D01*
X160331023Y-91352452D01*
X160283404Y-91400071D01*
X160188166Y-91447690D01*
X159807214Y-91447690D01*
X160759595Y-91019119D02*
X160807214Y-90971500D01*
X160902452Y-90923880D01*
X161140547Y-90923880D01*
X161235785Y-90971500D01*
X161283404Y-91019119D01*
X161331023Y-91114357D01*
X161331023Y-91209595D01*
X161283404Y-91352452D01*
X160711976Y-91923880D01*
X161331023Y-91923880D01*
G04 #@! TO.C,USB1*
X89998204Y-94484880D02*
X89998204Y-95294404D01*
X90045823Y-95389642D01*
X90093442Y-95437261D01*
X90188680Y-95484880D01*
X90379157Y-95484880D01*
X90474395Y-95437261D01*
X90522014Y-95389642D01*
X90569633Y-95294404D01*
X90569633Y-94484880D01*
X90998204Y-95437261D02*
X91141061Y-95484880D01*
X91379157Y-95484880D01*
X91474395Y-95437261D01*
X91522014Y-95389642D01*
X91569633Y-95294404D01*
X91569633Y-95199166D01*
X91522014Y-95103928D01*
X91474395Y-95056309D01*
X91379157Y-95008690D01*
X91188680Y-94961071D01*
X91093442Y-94913452D01*
X91045823Y-94865833D01*
X90998204Y-94770595D01*
X90998204Y-94675357D01*
X91045823Y-94580119D01*
X91093442Y-94532500D01*
X91188680Y-94484880D01*
X91426776Y-94484880D01*
X91569633Y-94532500D01*
X92331538Y-94961071D02*
X92474395Y-95008690D01*
X92522014Y-95056309D01*
X92569633Y-95151547D01*
X92569633Y-95294404D01*
X92522014Y-95389642D01*
X92474395Y-95437261D01*
X92379157Y-95484880D01*
X91998204Y-95484880D01*
X91998204Y-94484880D01*
X92331538Y-94484880D01*
X92426776Y-94532500D01*
X92474395Y-94580119D01*
X92522014Y-94675357D01*
X92522014Y-94770595D01*
X92474395Y-94865833D01*
X92426776Y-94913452D01*
X92331538Y-94961071D01*
X91998204Y-94961071D01*
X93522014Y-95484880D02*
X92950585Y-95484880D01*
X93236300Y-95484880D02*
X93236300Y-94484880D01*
X93141061Y-94627738D01*
X93045823Y-94722976D01*
X92950585Y-94770595D01*
G04 #@! TO.C,X1*
X212170976Y-90796880D02*
X212837642Y-91796880D01*
X212837642Y-90796880D02*
X212170976Y-91796880D01*
X213742404Y-91796880D02*
X213170976Y-91796880D01*
X213456690Y-91796880D02*
X213456690Y-90796880D01*
X213361452Y-90939738D01*
X213266214Y-91034976D01*
X213170976Y-91082595D01*
G04 #@! TO.C,P6*
X98178380Y-117768595D02*
X97178380Y-117768595D01*
X97178380Y-117387642D01*
X97226000Y-117292404D01*
X97273619Y-117244785D01*
X97368857Y-117197166D01*
X97511714Y-117197166D01*
X97606952Y-117244785D01*
X97654571Y-117292404D01*
X97702190Y-117387642D01*
X97702190Y-117768595D01*
X97178380Y-116340023D02*
X97178380Y-116530500D01*
X97226000Y-116625738D01*
X97273619Y-116673357D01*
X97416476Y-116768595D01*
X97606952Y-116816214D01*
X97987904Y-116816214D01*
X98083142Y-116768595D01*
X98130761Y-116720976D01*
X98178380Y-116625738D01*
X98178380Y-116435261D01*
X98130761Y-116340023D01*
X98083142Y-116292404D01*
X97987904Y-116244785D01*
X97749809Y-116244785D01*
X97654571Y-116292404D01*
X97606952Y-116340023D01*
X97559333Y-116435261D01*
X97559333Y-116625738D01*
X97606952Y-116720976D01*
X97654571Y-116768595D01*
X97749809Y-116816214D01*
G04 #@! TO.C,U12*
X182543380Y-104076095D02*
X183352904Y-104076095D01*
X183448142Y-104028476D01*
X183495761Y-103980857D01*
X183543380Y-103885619D01*
X183543380Y-103695142D01*
X183495761Y-103599904D01*
X183448142Y-103552285D01*
X183352904Y-103504666D01*
X182543380Y-103504666D01*
X183543380Y-102504666D02*
X183543380Y-103076095D01*
X183543380Y-102790380D02*
X182543380Y-102790380D01*
X182686238Y-102885619D01*
X182781476Y-102980857D01*
X182829095Y-103076095D01*
X182638619Y-102123714D02*
X182591000Y-102076095D01*
X182543380Y-101980857D01*
X182543380Y-101742761D01*
X182591000Y-101647523D01*
X182638619Y-101599904D01*
X182733857Y-101552285D01*
X182829095Y-101552285D01*
X182971952Y-101599904D01*
X183543380Y-102171333D01*
X183543380Y-101552285D01*
G04 #@! TO.C,U14*
X144402380Y-91822595D02*
X145211904Y-91822595D01*
X145307142Y-91774976D01*
X145354761Y-91727357D01*
X145402380Y-91632119D01*
X145402380Y-91441642D01*
X145354761Y-91346404D01*
X145307142Y-91298785D01*
X145211904Y-91251166D01*
X144402380Y-91251166D01*
X145402380Y-90251166D02*
X145402380Y-90822595D01*
X145402380Y-90536880D02*
X144402380Y-90536880D01*
X144545238Y-90632119D01*
X144640476Y-90727357D01*
X144688095Y-90822595D01*
X144735714Y-89394023D02*
X145402380Y-89394023D01*
X144354761Y-89632119D02*
X145069047Y-89870214D01*
X145069047Y-89251166D01*
G04 #@! TO.C,C1*
X145870633Y-95442042D02*
X145823014Y-95489661D01*
X145680157Y-95537280D01*
X145584919Y-95537280D01*
X145442061Y-95489661D01*
X145346823Y-95394423D01*
X145299204Y-95299185D01*
X145251585Y-95108709D01*
X145251585Y-94965852D01*
X145299204Y-94775376D01*
X145346823Y-94680138D01*
X145442061Y-94584900D01*
X145584919Y-94537280D01*
X145680157Y-94537280D01*
X145823014Y-94584900D01*
X145870633Y-94632519D01*
X146823014Y-95537280D02*
X146251585Y-95537280D01*
X146537300Y-95537280D02*
X146537300Y-94537280D01*
X146442061Y-94680138D01*
X146346823Y-94775376D01*
X146251585Y-94822995D01*
G04 #@! TO.C,C2*
X146394442Y-88037966D02*
X146442061Y-88085585D01*
X146489680Y-88228442D01*
X146489680Y-88323680D01*
X146442061Y-88466538D01*
X146346823Y-88561776D01*
X146251585Y-88609395D01*
X146061109Y-88657014D01*
X145918252Y-88657014D01*
X145727776Y-88609395D01*
X145632538Y-88561776D01*
X145537300Y-88466538D01*
X145489680Y-88323680D01*
X145489680Y-88228442D01*
X145537300Y-88085585D01*
X145584919Y-88037966D01*
X145584919Y-87657014D02*
X145537300Y-87609395D01*
X145489680Y-87514157D01*
X145489680Y-87276061D01*
X145537300Y-87180823D01*
X145584919Y-87133204D01*
X145680157Y-87085585D01*
X145775395Y-87085585D01*
X145918252Y-87133204D01*
X146489680Y-87704633D01*
X146489680Y-87085585D01*
G04 #@! TO.C,C3*
X148934442Y-88088766D02*
X148982061Y-88136385D01*
X149029680Y-88279242D01*
X149029680Y-88374480D01*
X148982061Y-88517338D01*
X148886823Y-88612576D01*
X148791585Y-88660195D01*
X148601109Y-88707814D01*
X148458252Y-88707814D01*
X148267776Y-88660195D01*
X148172538Y-88612576D01*
X148077300Y-88517338D01*
X148029680Y-88374480D01*
X148029680Y-88279242D01*
X148077300Y-88136385D01*
X148124919Y-88088766D01*
X148029680Y-87755433D02*
X148029680Y-87136385D01*
X148410633Y-87469719D01*
X148410633Y-87326861D01*
X148458252Y-87231623D01*
X148505871Y-87184004D01*
X148601109Y-87136385D01*
X148839204Y-87136385D01*
X148934442Y-87184004D01*
X148982061Y-87231623D01*
X149029680Y-87326861D01*
X149029680Y-87612576D01*
X148982061Y-87707814D01*
X148934442Y-87755433D01*
G04 #@! TO.C,C4*
X185951333Y-95923642D02*
X185903714Y-95971261D01*
X185760857Y-96018880D01*
X185665619Y-96018880D01*
X185522761Y-95971261D01*
X185427523Y-95876023D01*
X185379904Y-95780785D01*
X185332285Y-95590309D01*
X185332285Y-95447452D01*
X185379904Y-95256976D01*
X185427523Y-95161738D01*
X185522761Y-95066500D01*
X185665619Y-95018880D01*
X185760857Y-95018880D01*
X185903714Y-95066500D01*
X185951333Y-95114119D01*
X186808476Y-95352214D02*
X186808476Y-96018880D01*
X186570380Y-94971261D02*
X186332285Y-95685547D01*
X186951333Y-95685547D01*
G04 #@! TO.C,C5*
X185951333Y-87034642D02*
X185903714Y-87082261D01*
X185760857Y-87129880D01*
X185665619Y-87129880D01*
X185522761Y-87082261D01*
X185427523Y-86987023D01*
X185379904Y-86891785D01*
X185332285Y-86701309D01*
X185332285Y-86558452D01*
X185379904Y-86367976D01*
X185427523Y-86272738D01*
X185522761Y-86177500D01*
X185665619Y-86129880D01*
X185760857Y-86129880D01*
X185903714Y-86177500D01*
X185951333Y-86225119D01*
X186856095Y-86129880D02*
X186379904Y-86129880D01*
X186332285Y-86606071D01*
X186379904Y-86558452D01*
X186475142Y-86510833D01*
X186713238Y-86510833D01*
X186808476Y-86558452D01*
X186856095Y-86606071D01*
X186903714Y-86701309D01*
X186903714Y-86939404D01*
X186856095Y-87034642D01*
X186808476Y-87082261D01*
X186713238Y-87129880D01*
X186475142Y-87129880D01*
X186379904Y-87082261D01*
X186332285Y-87034642D01*
G04 #@! TO.C,C6*
X154574333Y-116395142D02*
X154526714Y-116442761D01*
X154383857Y-116490380D01*
X154288619Y-116490380D01*
X154145761Y-116442761D01*
X154050523Y-116347523D01*
X154002904Y-116252285D01*
X153955285Y-116061809D01*
X153955285Y-115918952D01*
X154002904Y-115728476D01*
X154050523Y-115633238D01*
X154145761Y-115538000D01*
X154288619Y-115490380D01*
X154383857Y-115490380D01*
X154526714Y-115538000D01*
X154574333Y-115585619D01*
X155431476Y-115490380D02*
X155241000Y-115490380D01*
X155145761Y-115538000D01*
X155098142Y-115585619D01*
X155002904Y-115728476D01*
X154955285Y-115918952D01*
X154955285Y-116299904D01*
X155002904Y-116395142D01*
X155050523Y-116442761D01*
X155145761Y-116490380D01*
X155336238Y-116490380D01*
X155431476Y-116442761D01*
X155479095Y-116395142D01*
X155526714Y-116299904D01*
X155526714Y-116061809D01*
X155479095Y-115966571D01*
X155431476Y-115918952D01*
X155336238Y-115871333D01*
X155145761Y-115871333D01*
X155050523Y-115918952D01*
X155002904Y-115966571D01*
X154955285Y-116061809D01*
G04 #@! TO.C,C7*
X143838142Y-97754666D02*
X143885761Y-97802285D01*
X143933380Y-97945142D01*
X143933380Y-98040380D01*
X143885761Y-98183238D01*
X143790523Y-98278476D01*
X143695285Y-98326095D01*
X143504809Y-98373714D01*
X143361952Y-98373714D01*
X143171476Y-98326095D01*
X143076238Y-98278476D01*
X142981000Y-98183238D01*
X142933380Y-98040380D01*
X142933380Y-97945142D01*
X142981000Y-97802285D01*
X143028619Y-97754666D01*
X142933380Y-97421333D02*
X142933380Y-96754666D01*
X143933380Y-97183238D01*
G04 #@! TO.C,C8*
X162380633Y-111545642D02*
X162333014Y-111593261D01*
X162190157Y-111640880D01*
X162094919Y-111640880D01*
X161952061Y-111593261D01*
X161856823Y-111498023D01*
X161809204Y-111402785D01*
X161761585Y-111212309D01*
X161761585Y-111069452D01*
X161809204Y-110878976D01*
X161856823Y-110783738D01*
X161952061Y-110688500D01*
X162094919Y-110640880D01*
X162190157Y-110640880D01*
X162333014Y-110688500D01*
X162380633Y-110736119D01*
X162952061Y-111069452D02*
X162856823Y-111021833D01*
X162809204Y-110974214D01*
X162761585Y-110878976D01*
X162761585Y-110831357D01*
X162809204Y-110736119D01*
X162856823Y-110688500D01*
X162952061Y-110640880D01*
X163142538Y-110640880D01*
X163237776Y-110688500D01*
X163285395Y-110736119D01*
X163333014Y-110831357D01*
X163333014Y-110878976D01*
X163285395Y-110974214D01*
X163237776Y-111021833D01*
X163142538Y-111069452D01*
X162952061Y-111069452D01*
X162856823Y-111117071D01*
X162809204Y-111164690D01*
X162761585Y-111259928D01*
X162761585Y-111450404D01*
X162809204Y-111545642D01*
X162856823Y-111593261D01*
X162952061Y-111640880D01*
X163142538Y-111640880D01*
X163237776Y-111593261D01*
X163285395Y-111545642D01*
X163333014Y-111450404D01*
X163333014Y-111259928D01*
X163285395Y-111164690D01*
X163237776Y-111117071D01*
X163142538Y-111069452D01*
G04 #@! TO.C,C9*
X165342842Y-110854666D02*
X165390461Y-110902285D01*
X165438080Y-111045142D01*
X165438080Y-111140380D01*
X165390461Y-111283238D01*
X165295223Y-111378476D01*
X165199985Y-111426095D01*
X165009509Y-111473714D01*
X164866652Y-111473714D01*
X164676176Y-111426095D01*
X164580938Y-111378476D01*
X164485700Y-111283238D01*
X164438080Y-111140380D01*
X164438080Y-111045142D01*
X164485700Y-110902285D01*
X164533319Y-110854666D01*
X165438080Y-110378476D02*
X165438080Y-110188000D01*
X165390461Y-110092761D01*
X165342842Y-110045142D01*
X165199985Y-109949904D01*
X165009509Y-109902285D01*
X164628557Y-109902285D01*
X164533319Y-109949904D01*
X164485700Y-109997523D01*
X164438080Y-110092761D01*
X164438080Y-110283238D01*
X164485700Y-110378476D01*
X164533319Y-110426095D01*
X164628557Y-110473714D01*
X164866652Y-110473714D01*
X164961890Y-110426095D01*
X165009509Y-110378476D01*
X165057128Y-110283238D01*
X165057128Y-110092761D01*
X165009509Y-109997523D01*
X164961890Y-109949904D01*
X164866652Y-109902285D01*
G04 #@! TO.C,C10*
X136538142Y-102730857D02*
X136585761Y-102778476D01*
X136633380Y-102921333D01*
X136633380Y-103016571D01*
X136585761Y-103159428D01*
X136490523Y-103254666D01*
X136395285Y-103302285D01*
X136204809Y-103349904D01*
X136061952Y-103349904D01*
X135871476Y-103302285D01*
X135776238Y-103254666D01*
X135681000Y-103159428D01*
X135633380Y-103016571D01*
X135633380Y-102921333D01*
X135681000Y-102778476D01*
X135728619Y-102730857D01*
X136633380Y-101778476D02*
X136633380Y-102349904D01*
X136633380Y-102064190D02*
X135633380Y-102064190D01*
X135776238Y-102159428D01*
X135871476Y-102254666D01*
X135919095Y-102349904D01*
X135633380Y-101159428D02*
X135633380Y-101064190D01*
X135681000Y-100968952D01*
X135728619Y-100921333D01*
X135823857Y-100873714D01*
X136014333Y-100826095D01*
X136252428Y-100826095D01*
X136442904Y-100873714D01*
X136538142Y-100921333D01*
X136585761Y-100968952D01*
X136633380Y-101064190D01*
X136633380Y-101159428D01*
X136585761Y-101254666D01*
X136538142Y-101302285D01*
X136442904Y-101349904D01*
X136252428Y-101397523D01*
X136014333Y-101397523D01*
X135823857Y-101349904D01*
X135728619Y-101302285D01*
X135681000Y-101254666D01*
X135633380Y-101159428D01*
G04 #@! TO.C,C11*
X143188142Y-110123242D02*
X143140523Y-110170861D01*
X142997666Y-110218480D01*
X142902428Y-110218480D01*
X142759571Y-110170861D01*
X142664333Y-110075623D01*
X142616714Y-109980385D01*
X142569095Y-109789909D01*
X142569095Y-109647052D01*
X142616714Y-109456576D01*
X142664333Y-109361338D01*
X142759571Y-109266100D01*
X142902428Y-109218480D01*
X142997666Y-109218480D01*
X143140523Y-109266100D01*
X143188142Y-109313719D01*
X144140523Y-110218480D02*
X143569095Y-110218480D01*
X143854809Y-110218480D02*
X143854809Y-109218480D01*
X143759571Y-109361338D01*
X143664333Y-109456576D01*
X143569095Y-109504195D01*
X145092904Y-110218480D02*
X144521476Y-110218480D01*
X144807190Y-110218480D02*
X144807190Y-109218480D01*
X144711952Y-109361338D01*
X144616714Y-109456576D01*
X144521476Y-109504195D01*
G04 #@! TO.C,C13*
X133608842Y-108345242D02*
X133561223Y-108392861D01*
X133418366Y-108440480D01*
X133323128Y-108440480D01*
X133180271Y-108392861D01*
X133085033Y-108297623D01*
X133037414Y-108202385D01*
X132989795Y-108011909D01*
X132989795Y-107869052D01*
X133037414Y-107678576D01*
X133085033Y-107583338D01*
X133180271Y-107488100D01*
X133323128Y-107440480D01*
X133418366Y-107440480D01*
X133561223Y-107488100D01*
X133608842Y-107535719D01*
X134561223Y-108440480D02*
X133989795Y-108440480D01*
X134275509Y-108440480D02*
X134275509Y-107440480D01*
X134180271Y-107583338D01*
X134085033Y-107678576D01*
X133989795Y-107726195D01*
X134894557Y-107440480D02*
X135513604Y-107440480D01*
X135180271Y-107821433D01*
X135323128Y-107821433D01*
X135418366Y-107869052D01*
X135465985Y-107916671D01*
X135513604Y-108011909D01*
X135513604Y-108250004D01*
X135465985Y-108345242D01*
X135418366Y-108392861D01*
X135323128Y-108440480D01*
X135037414Y-108440480D01*
X134942176Y-108392861D01*
X134894557Y-108345242D01*
G04 #@! TO.C,C14*
X91648042Y-109970842D02*
X91600423Y-110018461D01*
X91457566Y-110066080D01*
X91362328Y-110066080D01*
X91219471Y-110018461D01*
X91124233Y-109923223D01*
X91076614Y-109827985D01*
X91028995Y-109637509D01*
X91028995Y-109494652D01*
X91076614Y-109304176D01*
X91124233Y-109208938D01*
X91219471Y-109113700D01*
X91362328Y-109066080D01*
X91457566Y-109066080D01*
X91600423Y-109113700D01*
X91648042Y-109161319D01*
X92600423Y-110066080D02*
X92028995Y-110066080D01*
X92314709Y-110066080D02*
X92314709Y-109066080D01*
X92219471Y-109208938D01*
X92124233Y-109304176D01*
X92028995Y-109351795D01*
X93457566Y-109399414D02*
X93457566Y-110066080D01*
X93219471Y-109018461D02*
X92981376Y-109732747D01*
X93600423Y-109732747D01*
G04 #@! TO.C,C15*
X164874142Y-88634842D02*
X164826523Y-88682461D01*
X164683666Y-88730080D01*
X164588428Y-88730080D01*
X164445571Y-88682461D01*
X164350333Y-88587223D01*
X164302714Y-88491985D01*
X164255095Y-88301509D01*
X164255095Y-88158652D01*
X164302714Y-87968176D01*
X164350333Y-87872938D01*
X164445571Y-87777700D01*
X164588428Y-87730080D01*
X164683666Y-87730080D01*
X164826523Y-87777700D01*
X164874142Y-87825319D01*
X165826523Y-88730080D02*
X165255095Y-88730080D01*
X165540809Y-88730080D02*
X165540809Y-87730080D01*
X165445571Y-87872938D01*
X165350333Y-87968176D01*
X165255095Y-88015795D01*
X166731285Y-87730080D02*
X166255095Y-87730080D01*
X166207476Y-88206271D01*
X166255095Y-88158652D01*
X166350333Y-88111033D01*
X166588428Y-88111033D01*
X166683666Y-88158652D01*
X166731285Y-88206271D01*
X166778904Y-88301509D01*
X166778904Y-88539604D01*
X166731285Y-88634842D01*
X166683666Y-88682461D01*
X166588428Y-88730080D01*
X166350333Y-88730080D01*
X166255095Y-88682461D01*
X166207476Y-88634842D01*
G04 #@! TO.C,C16*
X172123142Y-93035357D02*
X172170761Y-93082976D01*
X172218380Y-93225833D01*
X172218380Y-93321071D01*
X172170761Y-93463928D01*
X172075523Y-93559166D01*
X171980285Y-93606785D01*
X171789809Y-93654404D01*
X171646952Y-93654404D01*
X171456476Y-93606785D01*
X171361238Y-93559166D01*
X171266000Y-93463928D01*
X171218380Y-93321071D01*
X171218380Y-93225833D01*
X171266000Y-93082976D01*
X171313619Y-93035357D01*
X172218380Y-92082976D02*
X172218380Y-92654404D01*
X172218380Y-92368690D02*
X171218380Y-92368690D01*
X171361238Y-92463928D01*
X171456476Y-92559166D01*
X171504095Y-92654404D01*
X171218380Y-91225833D02*
X171218380Y-91416309D01*
X171266000Y-91511547D01*
X171313619Y-91559166D01*
X171456476Y-91654404D01*
X171646952Y-91702023D01*
X172027904Y-91702023D01*
X172123142Y-91654404D01*
X172170761Y-91606785D01*
X172218380Y-91511547D01*
X172218380Y-91321071D01*
X172170761Y-91225833D01*
X172123142Y-91178214D01*
X172027904Y-91130595D01*
X171789809Y-91130595D01*
X171694571Y-91178214D01*
X171646952Y-91225833D01*
X171599333Y-91321071D01*
X171599333Y-91511547D01*
X171646952Y-91606785D01*
X171694571Y-91654404D01*
X171789809Y-91702023D01*
G04 #@! TO.C,C17*
X167324042Y-105328957D02*
X167371661Y-105376576D01*
X167419280Y-105519433D01*
X167419280Y-105614671D01*
X167371661Y-105757528D01*
X167276423Y-105852766D01*
X167181185Y-105900385D01*
X166990709Y-105948004D01*
X166847852Y-105948004D01*
X166657376Y-105900385D01*
X166562138Y-105852766D01*
X166466900Y-105757528D01*
X166419280Y-105614671D01*
X166419280Y-105519433D01*
X166466900Y-105376576D01*
X166514519Y-105328957D01*
X167419280Y-104376576D02*
X167419280Y-104948004D01*
X167419280Y-104662290D02*
X166419280Y-104662290D01*
X166562138Y-104757528D01*
X166657376Y-104852766D01*
X166704995Y-104948004D01*
X166419280Y-104043242D02*
X166419280Y-103376576D01*
X167419280Y-103805147D01*
G04 #@! TO.C,C18*
X184154842Y-119775242D02*
X184107223Y-119822861D01*
X183964366Y-119870480D01*
X183869128Y-119870480D01*
X183726271Y-119822861D01*
X183631033Y-119727623D01*
X183583414Y-119632385D01*
X183535795Y-119441909D01*
X183535795Y-119299052D01*
X183583414Y-119108576D01*
X183631033Y-119013338D01*
X183726271Y-118918100D01*
X183869128Y-118870480D01*
X183964366Y-118870480D01*
X184107223Y-118918100D01*
X184154842Y-118965719D01*
X185107223Y-119870480D02*
X184535795Y-119870480D01*
X184821509Y-119870480D02*
X184821509Y-118870480D01*
X184726271Y-119013338D01*
X184631033Y-119108576D01*
X184535795Y-119156195D01*
X185678652Y-119299052D02*
X185583414Y-119251433D01*
X185535795Y-119203814D01*
X185488176Y-119108576D01*
X185488176Y-119060957D01*
X185535795Y-118965719D01*
X185583414Y-118918100D01*
X185678652Y-118870480D01*
X185869128Y-118870480D01*
X185964366Y-118918100D01*
X186011985Y-118965719D01*
X186059604Y-119060957D01*
X186059604Y-119108576D01*
X186011985Y-119203814D01*
X185964366Y-119251433D01*
X185869128Y-119299052D01*
X185678652Y-119299052D01*
X185583414Y-119346671D01*
X185535795Y-119394290D01*
X185488176Y-119489528D01*
X185488176Y-119680004D01*
X185535795Y-119775242D01*
X185583414Y-119822861D01*
X185678652Y-119870480D01*
X185869128Y-119870480D01*
X185964366Y-119822861D01*
X186011985Y-119775242D01*
X186059604Y-119680004D01*
X186059604Y-119489528D01*
X186011985Y-119394290D01*
X185964366Y-119346671D01*
X185869128Y-119299052D01*
G04 #@! TO.C,C19*
X153049242Y-91480857D02*
X153096861Y-91528476D01*
X153144480Y-91671333D01*
X153144480Y-91766571D01*
X153096861Y-91909428D01*
X153001623Y-92004666D01*
X152906385Y-92052285D01*
X152715909Y-92099904D01*
X152573052Y-92099904D01*
X152382576Y-92052285D01*
X152287338Y-92004666D01*
X152192100Y-91909428D01*
X152144480Y-91766571D01*
X152144480Y-91671333D01*
X152192100Y-91528476D01*
X152239719Y-91480857D01*
X153144480Y-90528476D02*
X153144480Y-91099904D01*
X153144480Y-90814190D02*
X152144480Y-90814190D01*
X152287338Y-90909428D01*
X152382576Y-91004666D01*
X152430195Y-91099904D01*
X153144480Y-90052285D02*
X153144480Y-89861809D01*
X153096861Y-89766571D01*
X153049242Y-89718952D01*
X152906385Y-89623714D01*
X152715909Y-89576095D01*
X152334957Y-89576095D01*
X152239719Y-89623714D01*
X152192100Y-89671333D01*
X152144480Y-89766571D01*
X152144480Y-89957047D01*
X152192100Y-90052285D01*
X152239719Y-90099904D01*
X152334957Y-90147523D01*
X152573052Y-90147523D01*
X152668290Y-90099904D01*
X152715909Y-90052285D01*
X152763528Y-89957047D01*
X152763528Y-89766571D01*
X152715909Y-89671333D01*
X152668290Y-89623714D01*
X152573052Y-89576095D01*
G04 #@! TO.C,C20*
X211875642Y-120721357D02*
X211923261Y-120768976D01*
X211970880Y-120911833D01*
X211970880Y-121007071D01*
X211923261Y-121149928D01*
X211828023Y-121245166D01*
X211732785Y-121292785D01*
X211542309Y-121340404D01*
X211399452Y-121340404D01*
X211208976Y-121292785D01*
X211113738Y-121245166D01*
X211018500Y-121149928D01*
X210970880Y-121007071D01*
X210970880Y-120911833D01*
X211018500Y-120768976D01*
X211066119Y-120721357D01*
X211066119Y-120340404D02*
X211018500Y-120292785D01*
X210970880Y-120197547D01*
X210970880Y-119959452D01*
X211018500Y-119864214D01*
X211066119Y-119816595D01*
X211161357Y-119768976D01*
X211256595Y-119768976D01*
X211399452Y-119816595D01*
X211970880Y-120388023D01*
X211970880Y-119768976D01*
X210970880Y-119149928D02*
X210970880Y-119054690D01*
X211018500Y-118959452D01*
X211066119Y-118911833D01*
X211161357Y-118864214D01*
X211351833Y-118816595D01*
X211589928Y-118816595D01*
X211780404Y-118864214D01*
X211875642Y-118911833D01*
X211923261Y-118959452D01*
X211970880Y-119054690D01*
X211970880Y-119149928D01*
X211923261Y-119245166D01*
X211875642Y-119292785D01*
X211780404Y-119340404D01*
X211589928Y-119388023D01*
X211351833Y-119388023D01*
X211161357Y-119340404D01*
X211066119Y-119292785D01*
X211018500Y-119245166D01*
X210970880Y-119149928D01*
G04 #@! TO.C,C21*
X214812642Y-112561642D02*
X214765023Y-112609261D01*
X214622166Y-112656880D01*
X214526928Y-112656880D01*
X214384071Y-112609261D01*
X214288833Y-112514023D01*
X214241214Y-112418785D01*
X214193595Y-112228309D01*
X214193595Y-112085452D01*
X214241214Y-111894976D01*
X214288833Y-111799738D01*
X214384071Y-111704500D01*
X214526928Y-111656880D01*
X214622166Y-111656880D01*
X214765023Y-111704500D01*
X214812642Y-111752119D01*
X215193595Y-111752119D02*
X215241214Y-111704500D01*
X215336452Y-111656880D01*
X215574547Y-111656880D01*
X215669785Y-111704500D01*
X215717404Y-111752119D01*
X215765023Y-111847357D01*
X215765023Y-111942595D01*
X215717404Y-112085452D01*
X215145976Y-112656880D01*
X215765023Y-112656880D01*
X216717404Y-112656880D02*
X216145976Y-112656880D01*
X216431690Y-112656880D02*
X216431690Y-111656880D01*
X216336452Y-111799738D01*
X216241214Y-111894976D01*
X216145976Y-111942595D01*
G04 #@! TO.C,C22*
X157434042Y-100166442D02*
X157386423Y-100214061D01*
X157243566Y-100261680D01*
X157148328Y-100261680D01*
X157005471Y-100214061D01*
X156910233Y-100118823D01*
X156862614Y-100023585D01*
X156814995Y-99833109D01*
X156814995Y-99690252D01*
X156862614Y-99499776D01*
X156910233Y-99404538D01*
X157005471Y-99309300D01*
X157148328Y-99261680D01*
X157243566Y-99261680D01*
X157386423Y-99309300D01*
X157434042Y-99356919D01*
X157814995Y-99356919D02*
X157862614Y-99309300D01*
X157957852Y-99261680D01*
X158195947Y-99261680D01*
X158291185Y-99309300D01*
X158338804Y-99356919D01*
X158386423Y-99452157D01*
X158386423Y-99547395D01*
X158338804Y-99690252D01*
X157767376Y-100261680D01*
X158386423Y-100261680D01*
X158767376Y-99356919D02*
X158814995Y-99309300D01*
X158910233Y-99261680D01*
X159148328Y-99261680D01*
X159243566Y-99309300D01*
X159291185Y-99356919D01*
X159338804Y-99452157D01*
X159338804Y-99547395D01*
X159291185Y-99690252D01*
X158719757Y-100261680D01*
X159338804Y-100261680D01*
G04 #@! TO.C,C23*
X210097642Y-120721357D02*
X210145261Y-120768976D01*
X210192880Y-120911833D01*
X210192880Y-121007071D01*
X210145261Y-121149928D01*
X210050023Y-121245166D01*
X209954785Y-121292785D01*
X209764309Y-121340404D01*
X209621452Y-121340404D01*
X209430976Y-121292785D01*
X209335738Y-121245166D01*
X209240500Y-121149928D01*
X209192880Y-121007071D01*
X209192880Y-120911833D01*
X209240500Y-120768976D01*
X209288119Y-120721357D01*
X209288119Y-120340404D02*
X209240500Y-120292785D01*
X209192880Y-120197547D01*
X209192880Y-119959452D01*
X209240500Y-119864214D01*
X209288119Y-119816595D01*
X209383357Y-119768976D01*
X209478595Y-119768976D01*
X209621452Y-119816595D01*
X210192880Y-120388023D01*
X210192880Y-119768976D01*
X209192880Y-119435642D02*
X209192880Y-118816595D01*
X209573833Y-119149928D01*
X209573833Y-119007071D01*
X209621452Y-118911833D01*
X209669071Y-118864214D01*
X209764309Y-118816595D01*
X210002404Y-118816595D01*
X210097642Y-118864214D01*
X210145261Y-118911833D01*
X210192880Y-119007071D01*
X210192880Y-119292785D01*
X210145261Y-119388023D01*
X210097642Y-119435642D01*
G04 #@! TO.C,C24*
X214812642Y-114593642D02*
X214765023Y-114641261D01*
X214622166Y-114688880D01*
X214526928Y-114688880D01*
X214384071Y-114641261D01*
X214288833Y-114546023D01*
X214241214Y-114450785D01*
X214193595Y-114260309D01*
X214193595Y-114117452D01*
X214241214Y-113926976D01*
X214288833Y-113831738D01*
X214384071Y-113736500D01*
X214526928Y-113688880D01*
X214622166Y-113688880D01*
X214765023Y-113736500D01*
X214812642Y-113784119D01*
X215193595Y-113784119D02*
X215241214Y-113736500D01*
X215336452Y-113688880D01*
X215574547Y-113688880D01*
X215669785Y-113736500D01*
X215717404Y-113784119D01*
X215765023Y-113879357D01*
X215765023Y-113974595D01*
X215717404Y-114117452D01*
X215145976Y-114688880D01*
X215765023Y-114688880D01*
X216622166Y-114022214D02*
X216622166Y-114688880D01*
X216384071Y-113641261D02*
X216145976Y-114355547D01*
X216765023Y-114355547D01*
G04 #@! TO.C,C25*
X162955242Y-97980857D02*
X163002861Y-98028476D01*
X163050480Y-98171333D01*
X163050480Y-98266571D01*
X163002861Y-98409428D01*
X162907623Y-98504666D01*
X162812385Y-98552285D01*
X162621909Y-98599904D01*
X162479052Y-98599904D01*
X162288576Y-98552285D01*
X162193338Y-98504666D01*
X162098100Y-98409428D01*
X162050480Y-98266571D01*
X162050480Y-98171333D01*
X162098100Y-98028476D01*
X162145719Y-97980857D01*
X162145719Y-97599904D02*
X162098100Y-97552285D01*
X162050480Y-97457047D01*
X162050480Y-97218952D01*
X162098100Y-97123714D01*
X162145719Y-97076095D01*
X162240957Y-97028476D01*
X162336195Y-97028476D01*
X162479052Y-97076095D01*
X163050480Y-97647523D01*
X163050480Y-97028476D01*
X162050480Y-96123714D02*
X162050480Y-96599904D01*
X162526671Y-96647523D01*
X162479052Y-96599904D01*
X162431433Y-96504666D01*
X162431433Y-96266571D01*
X162479052Y-96171333D01*
X162526671Y-96123714D01*
X162621909Y-96076095D01*
X162860004Y-96076095D01*
X162955242Y-96123714D01*
X163002861Y-96171333D01*
X163050480Y-96266571D01*
X163050480Y-96504666D01*
X163002861Y-96599904D01*
X162955242Y-96647523D01*
G04 #@! TO.C,C26*
X204763642Y-117038357D02*
X204811261Y-117085976D01*
X204858880Y-117228833D01*
X204858880Y-117324071D01*
X204811261Y-117466928D01*
X204716023Y-117562166D01*
X204620785Y-117609785D01*
X204430309Y-117657404D01*
X204287452Y-117657404D01*
X204096976Y-117609785D01*
X204001738Y-117562166D01*
X203906500Y-117466928D01*
X203858880Y-117324071D01*
X203858880Y-117228833D01*
X203906500Y-117085976D01*
X203954119Y-117038357D01*
X203954119Y-116657404D02*
X203906500Y-116609785D01*
X203858880Y-116514547D01*
X203858880Y-116276452D01*
X203906500Y-116181214D01*
X203954119Y-116133595D01*
X204049357Y-116085976D01*
X204144595Y-116085976D01*
X204287452Y-116133595D01*
X204858880Y-116705023D01*
X204858880Y-116085976D01*
X203858880Y-115228833D02*
X203858880Y-115419309D01*
X203906500Y-115514547D01*
X203954119Y-115562166D01*
X204096976Y-115657404D01*
X204287452Y-115705023D01*
X204668404Y-115705023D01*
X204763642Y-115657404D01*
X204811261Y-115609785D01*
X204858880Y-115514547D01*
X204858880Y-115324071D01*
X204811261Y-115228833D01*
X204763642Y-115181214D01*
X204668404Y-115133595D01*
X204430309Y-115133595D01*
X204335071Y-115181214D01*
X204287452Y-115228833D01*
X204239833Y-115324071D01*
X204239833Y-115514547D01*
X204287452Y-115609785D01*
X204335071Y-115657404D01*
X204430309Y-115705023D01*
G04 #@! TO.C,C27*
X206176642Y-114720642D02*
X206129023Y-114768261D01*
X205986166Y-114815880D01*
X205890928Y-114815880D01*
X205748071Y-114768261D01*
X205652833Y-114673023D01*
X205605214Y-114577785D01*
X205557595Y-114387309D01*
X205557595Y-114244452D01*
X205605214Y-114053976D01*
X205652833Y-113958738D01*
X205748071Y-113863500D01*
X205890928Y-113815880D01*
X205986166Y-113815880D01*
X206129023Y-113863500D01*
X206176642Y-113911119D01*
X206557595Y-113911119D02*
X206605214Y-113863500D01*
X206700452Y-113815880D01*
X206938547Y-113815880D01*
X207033785Y-113863500D01*
X207081404Y-113911119D01*
X207129023Y-114006357D01*
X207129023Y-114101595D01*
X207081404Y-114244452D01*
X206509976Y-114815880D01*
X207129023Y-114815880D01*
X207462357Y-113815880D02*
X208129023Y-113815880D01*
X207700452Y-114815880D01*
G04 #@! TO.C,C28*
X181498142Y-99099642D02*
X181450523Y-99147261D01*
X181307666Y-99194880D01*
X181212428Y-99194880D01*
X181069571Y-99147261D01*
X180974333Y-99052023D01*
X180926714Y-98956785D01*
X180879095Y-98766309D01*
X180879095Y-98623452D01*
X180926714Y-98432976D01*
X180974333Y-98337738D01*
X181069571Y-98242500D01*
X181212428Y-98194880D01*
X181307666Y-98194880D01*
X181450523Y-98242500D01*
X181498142Y-98290119D01*
X181879095Y-98290119D02*
X181926714Y-98242500D01*
X182021952Y-98194880D01*
X182260047Y-98194880D01*
X182355285Y-98242500D01*
X182402904Y-98290119D01*
X182450523Y-98385357D01*
X182450523Y-98480595D01*
X182402904Y-98623452D01*
X181831476Y-99194880D01*
X182450523Y-99194880D01*
X183021952Y-98623452D02*
X182926714Y-98575833D01*
X182879095Y-98528214D01*
X182831476Y-98432976D01*
X182831476Y-98385357D01*
X182879095Y-98290119D01*
X182926714Y-98242500D01*
X183021952Y-98194880D01*
X183212428Y-98194880D01*
X183307666Y-98242500D01*
X183355285Y-98290119D01*
X183402904Y-98385357D01*
X183402904Y-98432976D01*
X183355285Y-98528214D01*
X183307666Y-98575833D01*
X183212428Y-98623452D01*
X183021952Y-98623452D01*
X182926714Y-98671071D01*
X182879095Y-98718690D01*
X182831476Y-98813928D01*
X182831476Y-99004404D01*
X182879095Y-99099642D01*
X182926714Y-99147261D01*
X183021952Y-99194880D01*
X183212428Y-99194880D01*
X183307666Y-99147261D01*
X183355285Y-99099642D01*
X183402904Y-99004404D01*
X183402904Y-98813928D01*
X183355285Y-98718690D01*
X183307666Y-98671071D01*
X183212428Y-98623452D01*
G04 #@! TO.C,C29*
X152506442Y-97778842D02*
X152458823Y-97826461D01*
X152315966Y-97874080D01*
X152220728Y-97874080D01*
X152077871Y-97826461D01*
X151982633Y-97731223D01*
X151935014Y-97635985D01*
X151887395Y-97445509D01*
X151887395Y-97302652D01*
X151935014Y-97112176D01*
X151982633Y-97016938D01*
X152077871Y-96921700D01*
X152220728Y-96874080D01*
X152315966Y-96874080D01*
X152458823Y-96921700D01*
X152506442Y-96969319D01*
X152887395Y-96969319D02*
X152935014Y-96921700D01*
X153030252Y-96874080D01*
X153268347Y-96874080D01*
X153363585Y-96921700D01*
X153411204Y-96969319D01*
X153458823Y-97064557D01*
X153458823Y-97159795D01*
X153411204Y-97302652D01*
X152839776Y-97874080D01*
X153458823Y-97874080D01*
X153935014Y-97874080D02*
X154125490Y-97874080D01*
X154220728Y-97826461D01*
X154268347Y-97778842D01*
X154363585Y-97635985D01*
X154411204Y-97445509D01*
X154411204Y-97064557D01*
X154363585Y-96969319D01*
X154315966Y-96921700D01*
X154220728Y-96874080D01*
X154030252Y-96874080D01*
X153935014Y-96921700D01*
X153887395Y-96969319D01*
X153839776Y-97064557D01*
X153839776Y-97302652D01*
X153887395Y-97397890D01*
X153935014Y-97445509D01*
X154030252Y-97493128D01*
X154220728Y-97493128D01*
X154315966Y-97445509D01*
X154363585Y-97397890D01*
X154411204Y-97302652D01*
G04 #@! TO.C,C30*
X210856142Y-112888857D02*
X210903761Y-112936476D01*
X210951380Y-113079333D01*
X210951380Y-113174571D01*
X210903761Y-113317428D01*
X210808523Y-113412666D01*
X210713285Y-113460285D01*
X210522809Y-113507904D01*
X210379952Y-113507904D01*
X210189476Y-113460285D01*
X210094238Y-113412666D01*
X209999000Y-113317428D01*
X209951380Y-113174571D01*
X209951380Y-113079333D01*
X209999000Y-112936476D01*
X210046619Y-112888857D01*
X209951380Y-112555523D02*
X209951380Y-111936476D01*
X210332333Y-112269809D01*
X210332333Y-112126952D01*
X210379952Y-112031714D01*
X210427571Y-111984095D01*
X210522809Y-111936476D01*
X210760904Y-111936476D01*
X210856142Y-111984095D01*
X210903761Y-112031714D01*
X210951380Y-112126952D01*
X210951380Y-112412666D01*
X210903761Y-112507904D01*
X210856142Y-112555523D01*
X209951380Y-111317428D02*
X209951380Y-111222190D01*
X209999000Y-111126952D01*
X210046619Y-111079333D01*
X210141857Y-111031714D01*
X210332333Y-110984095D01*
X210570428Y-110984095D01*
X210760904Y-111031714D01*
X210856142Y-111079333D01*
X210903761Y-111126952D01*
X210951380Y-111222190D01*
X210951380Y-111317428D01*
X210903761Y-111412666D01*
X210856142Y-111460285D01*
X210760904Y-111507904D01*
X210570428Y-111555523D01*
X210332333Y-111555523D01*
X210141857Y-111507904D01*
X210046619Y-111460285D01*
X209999000Y-111412666D01*
X209951380Y-111317428D01*
G04 #@! TO.C,C31*
X150931642Y-100725242D02*
X150884023Y-100772861D01*
X150741166Y-100820480D01*
X150645928Y-100820480D01*
X150503071Y-100772861D01*
X150407833Y-100677623D01*
X150360214Y-100582385D01*
X150312595Y-100391909D01*
X150312595Y-100249052D01*
X150360214Y-100058576D01*
X150407833Y-99963338D01*
X150503071Y-99868100D01*
X150645928Y-99820480D01*
X150741166Y-99820480D01*
X150884023Y-99868100D01*
X150931642Y-99915719D01*
X151264976Y-99820480D02*
X151884023Y-99820480D01*
X151550690Y-100201433D01*
X151693547Y-100201433D01*
X151788785Y-100249052D01*
X151836404Y-100296671D01*
X151884023Y-100391909D01*
X151884023Y-100630004D01*
X151836404Y-100725242D01*
X151788785Y-100772861D01*
X151693547Y-100820480D01*
X151407833Y-100820480D01*
X151312595Y-100772861D01*
X151264976Y-100725242D01*
X152836404Y-100820480D02*
X152264976Y-100820480D01*
X152550690Y-100820480D02*
X152550690Y-99820480D01*
X152455452Y-99963338D01*
X152360214Y-100058576D01*
X152264976Y-100106195D01*
G04 #@! TO.C,C32*
X218987642Y-105227357D02*
X219035261Y-105274976D01*
X219082880Y-105417833D01*
X219082880Y-105513071D01*
X219035261Y-105655928D01*
X218940023Y-105751166D01*
X218844785Y-105798785D01*
X218654309Y-105846404D01*
X218511452Y-105846404D01*
X218320976Y-105798785D01*
X218225738Y-105751166D01*
X218130500Y-105655928D01*
X218082880Y-105513071D01*
X218082880Y-105417833D01*
X218130500Y-105274976D01*
X218178119Y-105227357D01*
X218082880Y-104894023D02*
X218082880Y-104274976D01*
X218463833Y-104608309D01*
X218463833Y-104465452D01*
X218511452Y-104370214D01*
X218559071Y-104322595D01*
X218654309Y-104274976D01*
X218892404Y-104274976D01*
X218987642Y-104322595D01*
X219035261Y-104370214D01*
X219082880Y-104465452D01*
X219082880Y-104751166D01*
X219035261Y-104846404D01*
X218987642Y-104894023D01*
X218178119Y-103894023D02*
X218130500Y-103846404D01*
X218082880Y-103751166D01*
X218082880Y-103513071D01*
X218130500Y-103417833D01*
X218178119Y-103370214D01*
X218273357Y-103322595D01*
X218368595Y-103322595D01*
X218511452Y-103370214D01*
X219082880Y-103941642D01*
X219082880Y-103322595D01*
G04 #@! TO.C,C33*
X216955642Y-105227357D02*
X217003261Y-105274976D01*
X217050880Y-105417833D01*
X217050880Y-105513071D01*
X217003261Y-105655928D01*
X216908023Y-105751166D01*
X216812785Y-105798785D01*
X216622309Y-105846404D01*
X216479452Y-105846404D01*
X216288976Y-105798785D01*
X216193738Y-105751166D01*
X216098500Y-105655928D01*
X216050880Y-105513071D01*
X216050880Y-105417833D01*
X216098500Y-105274976D01*
X216146119Y-105227357D01*
X216050880Y-104894023D02*
X216050880Y-104274976D01*
X216431833Y-104608309D01*
X216431833Y-104465452D01*
X216479452Y-104370214D01*
X216527071Y-104322595D01*
X216622309Y-104274976D01*
X216860404Y-104274976D01*
X216955642Y-104322595D01*
X217003261Y-104370214D01*
X217050880Y-104465452D01*
X217050880Y-104751166D01*
X217003261Y-104846404D01*
X216955642Y-104894023D01*
X216050880Y-103941642D02*
X216050880Y-103322595D01*
X216431833Y-103655928D01*
X216431833Y-103513071D01*
X216479452Y-103417833D01*
X216527071Y-103370214D01*
X216622309Y-103322595D01*
X216860404Y-103322595D01*
X216955642Y-103370214D01*
X217003261Y-103417833D01*
X217050880Y-103513071D01*
X217050880Y-103798785D01*
X217003261Y-103894023D01*
X216955642Y-103941642D01*
G04 #@! TO.C,C34*
X156773642Y-103722442D02*
X156726023Y-103770061D01*
X156583166Y-103817680D01*
X156487928Y-103817680D01*
X156345071Y-103770061D01*
X156249833Y-103674823D01*
X156202214Y-103579585D01*
X156154595Y-103389109D01*
X156154595Y-103246252D01*
X156202214Y-103055776D01*
X156249833Y-102960538D01*
X156345071Y-102865300D01*
X156487928Y-102817680D01*
X156583166Y-102817680D01*
X156726023Y-102865300D01*
X156773642Y-102912919D01*
X157106976Y-102817680D02*
X157726023Y-102817680D01*
X157392690Y-103198633D01*
X157535547Y-103198633D01*
X157630785Y-103246252D01*
X157678404Y-103293871D01*
X157726023Y-103389109D01*
X157726023Y-103627204D01*
X157678404Y-103722442D01*
X157630785Y-103770061D01*
X157535547Y-103817680D01*
X157249833Y-103817680D01*
X157154595Y-103770061D01*
X157106976Y-103722442D01*
X158583166Y-103151014D02*
X158583166Y-103817680D01*
X158345071Y-102770061D02*
X158106976Y-103484347D01*
X158726023Y-103484347D01*
G04 #@! TO.C,C35*
X207049642Y-105735357D02*
X207097261Y-105782976D01*
X207144880Y-105925833D01*
X207144880Y-106021071D01*
X207097261Y-106163928D01*
X207002023Y-106259166D01*
X206906785Y-106306785D01*
X206716309Y-106354404D01*
X206573452Y-106354404D01*
X206382976Y-106306785D01*
X206287738Y-106259166D01*
X206192500Y-106163928D01*
X206144880Y-106021071D01*
X206144880Y-105925833D01*
X206192500Y-105782976D01*
X206240119Y-105735357D01*
X206144880Y-105402023D02*
X206144880Y-104782976D01*
X206525833Y-105116309D01*
X206525833Y-104973452D01*
X206573452Y-104878214D01*
X206621071Y-104830595D01*
X206716309Y-104782976D01*
X206954404Y-104782976D01*
X207049642Y-104830595D01*
X207097261Y-104878214D01*
X207144880Y-104973452D01*
X207144880Y-105259166D01*
X207097261Y-105354404D01*
X207049642Y-105402023D01*
X206144880Y-103878214D02*
X206144880Y-104354404D01*
X206621071Y-104402023D01*
X206573452Y-104354404D01*
X206525833Y-104259166D01*
X206525833Y-104021071D01*
X206573452Y-103925833D01*
X206621071Y-103878214D01*
X206716309Y-103830595D01*
X206954404Y-103830595D01*
X207049642Y-103878214D01*
X207097261Y-103925833D01*
X207144880Y-104021071D01*
X207144880Y-104259166D01*
X207097261Y-104354404D01*
X207049642Y-104402023D01*
G04 #@! TO.C,C36*
X204763642Y-105735357D02*
X204811261Y-105782976D01*
X204858880Y-105925833D01*
X204858880Y-106021071D01*
X204811261Y-106163928D01*
X204716023Y-106259166D01*
X204620785Y-106306785D01*
X204430309Y-106354404D01*
X204287452Y-106354404D01*
X204096976Y-106306785D01*
X204001738Y-106259166D01*
X203906500Y-106163928D01*
X203858880Y-106021071D01*
X203858880Y-105925833D01*
X203906500Y-105782976D01*
X203954119Y-105735357D01*
X203858880Y-105402023D02*
X203858880Y-104782976D01*
X204239833Y-105116309D01*
X204239833Y-104973452D01*
X204287452Y-104878214D01*
X204335071Y-104830595D01*
X204430309Y-104782976D01*
X204668404Y-104782976D01*
X204763642Y-104830595D01*
X204811261Y-104878214D01*
X204858880Y-104973452D01*
X204858880Y-105259166D01*
X204811261Y-105354404D01*
X204763642Y-105402023D01*
X203858880Y-103925833D02*
X203858880Y-104116309D01*
X203906500Y-104211547D01*
X203954119Y-104259166D01*
X204096976Y-104354404D01*
X204287452Y-104402023D01*
X204668404Y-104402023D01*
X204763642Y-104354404D01*
X204811261Y-104306785D01*
X204858880Y-104211547D01*
X204858880Y-104021071D01*
X204811261Y-103925833D01*
X204763642Y-103878214D01*
X204668404Y-103830595D01*
X204430309Y-103830595D01*
X204335071Y-103878214D01*
X204287452Y-103925833D01*
X204239833Y-104021071D01*
X204239833Y-104211547D01*
X204287452Y-104306785D01*
X204335071Y-104354404D01*
X204430309Y-104402023D01*
G04 #@! TO.C,C37*
X184596042Y-113304557D02*
X184643661Y-113352176D01*
X184691280Y-113495033D01*
X184691280Y-113590271D01*
X184643661Y-113733128D01*
X184548423Y-113828366D01*
X184453185Y-113875985D01*
X184262709Y-113923604D01*
X184119852Y-113923604D01*
X183929376Y-113875985D01*
X183834138Y-113828366D01*
X183738900Y-113733128D01*
X183691280Y-113590271D01*
X183691280Y-113495033D01*
X183738900Y-113352176D01*
X183786519Y-113304557D01*
X183691280Y-112971223D02*
X183691280Y-112352176D01*
X184072233Y-112685509D01*
X184072233Y-112542652D01*
X184119852Y-112447414D01*
X184167471Y-112399795D01*
X184262709Y-112352176D01*
X184500804Y-112352176D01*
X184596042Y-112399795D01*
X184643661Y-112447414D01*
X184691280Y-112542652D01*
X184691280Y-112828366D01*
X184643661Y-112923604D01*
X184596042Y-112971223D01*
X183691280Y-112018842D02*
X183691280Y-111352176D01*
X184691280Y-111780747D01*
G04 #@! TO.C,C38*
X180497242Y-109462842D02*
X180449623Y-109510461D01*
X180306766Y-109558080D01*
X180211528Y-109558080D01*
X180068671Y-109510461D01*
X179973433Y-109415223D01*
X179925814Y-109319985D01*
X179878195Y-109129509D01*
X179878195Y-108986652D01*
X179925814Y-108796176D01*
X179973433Y-108700938D01*
X180068671Y-108605700D01*
X180211528Y-108558080D01*
X180306766Y-108558080D01*
X180449623Y-108605700D01*
X180497242Y-108653319D01*
X180830576Y-108558080D02*
X181449623Y-108558080D01*
X181116290Y-108939033D01*
X181259147Y-108939033D01*
X181354385Y-108986652D01*
X181402004Y-109034271D01*
X181449623Y-109129509D01*
X181449623Y-109367604D01*
X181402004Y-109462842D01*
X181354385Y-109510461D01*
X181259147Y-109558080D01*
X180973433Y-109558080D01*
X180878195Y-109510461D01*
X180830576Y-109462842D01*
X182021052Y-108986652D02*
X181925814Y-108939033D01*
X181878195Y-108891414D01*
X181830576Y-108796176D01*
X181830576Y-108748557D01*
X181878195Y-108653319D01*
X181925814Y-108605700D01*
X182021052Y-108558080D01*
X182211528Y-108558080D01*
X182306766Y-108605700D01*
X182354385Y-108653319D01*
X182402004Y-108748557D01*
X182402004Y-108796176D01*
X182354385Y-108891414D01*
X182306766Y-108939033D01*
X182211528Y-108986652D01*
X182021052Y-108986652D01*
X181925814Y-109034271D01*
X181878195Y-109081890D01*
X181830576Y-109177128D01*
X181830576Y-109367604D01*
X181878195Y-109462842D01*
X181925814Y-109510461D01*
X182021052Y-109558080D01*
X182211528Y-109558080D01*
X182306766Y-109510461D01*
X182354385Y-109462842D01*
X182402004Y-109367604D01*
X182402004Y-109177128D01*
X182354385Y-109081890D01*
X182306766Y-109034271D01*
X182211528Y-108986652D01*
G04 #@! TO.C,C39*
X178490642Y-94654642D02*
X178443023Y-94702261D01*
X178300166Y-94749880D01*
X178204928Y-94749880D01*
X178062071Y-94702261D01*
X177966833Y-94607023D01*
X177919214Y-94511785D01*
X177871595Y-94321309D01*
X177871595Y-94178452D01*
X177919214Y-93987976D01*
X177966833Y-93892738D01*
X178062071Y-93797500D01*
X178204928Y-93749880D01*
X178300166Y-93749880D01*
X178443023Y-93797500D01*
X178490642Y-93845119D01*
X178823976Y-93749880D02*
X179443023Y-93749880D01*
X179109690Y-94130833D01*
X179252547Y-94130833D01*
X179347785Y-94178452D01*
X179395404Y-94226071D01*
X179443023Y-94321309D01*
X179443023Y-94559404D01*
X179395404Y-94654642D01*
X179347785Y-94702261D01*
X179252547Y-94749880D01*
X178966833Y-94749880D01*
X178871595Y-94702261D01*
X178823976Y-94654642D01*
X179919214Y-94749880D02*
X180109690Y-94749880D01*
X180204928Y-94702261D01*
X180252547Y-94654642D01*
X180347785Y-94511785D01*
X180395404Y-94321309D01*
X180395404Y-93940357D01*
X180347785Y-93845119D01*
X180300166Y-93797500D01*
X180204928Y-93749880D01*
X180014452Y-93749880D01*
X179919214Y-93797500D01*
X179871595Y-93845119D01*
X179823976Y-93940357D01*
X179823976Y-94178452D01*
X179871595Y-94273690D01*
X179919214Y-94321309D01*
X180014452Y-94368928D01*
X180204928Y-94368928D01*
X180300166Y-94321309D01*
X180347785Y-94273690D01*
X180395404Y-94178452D01*
G04 #@! TO.C,C40*
X189980842Y-113304557D02*
X190028461Y-113352176D01*
X190076080Y-113495033D01*
X190076080Y-113590271D01*
X190028461Y-113733128D01*
X189933223Y-113828366D01*
X189837985Y-113875985D01*
X189647509Y-113923604D01*
X189504652Y-113923604D01*
X189314176Y-113875985D01*
X189218938Y-113828366D01*
X189123700Y-113733128D01*
X189076080Y-113590271D01*
X189076080Y-113495033D01*
X189123700Y-113352176D01*
X189171319Y-113304557D01*
X189409414Y-112447414D02*
X190076080Y-112447414D01*
X189028461Y-112685509D02*
X189742747Y-112923604D01*
X189742747Y-112304557D01*
X189076080Y-111733128D02*
X189076080Y-111637890D01*
X189123700Y-111542652D01*
X189171319Y-111495033D01*
X189266557Y-111447414D01*
X189457033Y-111399795D01*
X189695128Y-111399795D01*
X189885604Y-111447414D01*
X189980842Y-111495033D01*
X190028461Y-111542652D01*
X190076080Y-111637890D01*
X190076080Y-111733128D01*
X190028461Y-111828366D01*
X189980842Y-111875985D01*
X189885604Y-111923604D01*
X189695128Y-111971223D01*
X189457033Y-111971223D01*
X189266557Y-111923604D01*
X189171319Y-111875985D01*
X189123700Y-111828366D01*
X189076080Y-111733128D01*
G04 #@! TO.C,C41*
X193349642Y-94781642D02*
X193302023Y-94829261D01*
X193159166Y-94876880D01*
X193063928Y-94876880D01*
X192921071Y-94829261D01*
X192825833Y-94734023D01*
X192778214Y-94638785D01*
X192730595Y-94448309D01*
X192730595Y-94305452D01*
X192778214Y-94114976D01*
X192825833Y-94019738D01*
X192921071Y-93924500D01*
X193063928Y-93876880D01*
X193159166Y-93876880D01*
X193302023Y-93924500D01*
X193349642Y-93972119D01*
X194206785Y-94210214D02*
X194206785Y-94876880D01*
X193968690Y-93829261D02*
X193730595Y-94543547D01*
X194349642Y-94543547D01*
X195254404Y-94876880D02*
X194682976Y-94876880D01*
X194968690Y-94876880D02*
X194968690Y-93876880D01*
X194873452Y-94019738D01*
X194778214Y-94114976D01*
X194682976Y-94162595D01*
G04 #@! TO.C,C52*
X183427642Y-92527357D02*
X183475261Y-92574976D01*
X183522880Y-92717833D01*
X183522880Y-92813071D01*
X183475261Y-92955928D01*
X183380023Y-93051166D01*
X183284785Y-93098785D01*
X183094309Y-93146404D01*
X182951452Y-93146404D01*
X182760976Y-93098785D01*
X182665738Y-93051166D01*
X182570500Y-92955928D01*
X182522880Y-92813071D01*
X182522880Y-92717833D01*
X182570500Y-92574976D01*
X182618119Y-92527357D01*
X182522880Y-91622595D02*
X182522880Y-92098785D01*
X182999071Y-92146404D01*
X182951452Y-92098785D01*
X182903833Y-92003547D01*
X182903833Y-91765452D01*
X182951452Y-91670214D01*
X182999071Y-91622595D01*
X183094309Y-91574976D01*
X183332404Y-91574976D01*
X183427642Y-91622595D01*
X183475261Y-91670214D01*
X183522880Y-91765452D01*
X183522880Y-92003547D01*
X183475261Y-92098785D01*
X183427642Y-92146404D01*
X182618119Y-91194023D02*
X182570500Y-91146404D01*
X182522880Y-91051166D01*
X182522880Y-90813071D01*
X182570500Y-90717833D01*
X182618119Y-90670214D01*
X182713357Y-90622595D01*
X182808595Y-90622595D01*
X182951452Y-90670214D01*
X183522880Y-91241642D01*
X183522880Y-90622595D01*
G04 #@! TO.C,C53*
X181395642Y-92527357D02*
X181443261Y-92574976D01*
X181490880Y-92717833D01*
X181490880Y-92813071D01*
X181443261Y-92955928D01*
X181348023Y-93051166D01*
X181252785Y-93098785D01*
X181062309Y-93146404D01*
X180919452Y-93146404D01*
X180728976Y-93098785D01*
X180633738Y-93051166D01*
X180538500Y-92955928D01*
X180490880Y-92813071D01*
X180490880Y-92717833D01*
X180538500Y-92574976D01*
X180586119Y-92527357D01*
X180490880Y-91622595D02*
X180490880Y-92098785D01*
X180967071Y-92146404D01*
X180919452Y-92098785D01*
X180871833Y-92003547D01*
X180871833Y-91765452D01*
X180919452Y-91670214D01*
X180967071Y-91622595D01*
X181062309Y-91574976D01*
X181300404Y-91574976D01*
X181395642Y-91622595D01*
X181443261Y-91670214D01*
X181490880Y-91765452D01*
X181490880Y-92003547D01*
X181443261Y-92098785D01*
X181395642Y-92146404D01*
X180490880Y-91241642D02*
X180490880Y-90622595D01*
X180871833Y-90955928D01*
X180871833Y-90813071D01*
X180919452Y-90717833D01*
X180967071Y-90670214D01*
X181062309Y-90622595D01*
X181300404Y-90622595D01*
X181395642Y-90670214D01*
X181443261Y-90717833D01*
X181490880Y-90813071D01*
X181490880Y-91098785D01*
X181443261Y-91194023D01*
X181395642Y-91241642D01*
G04 #@! TO.C,C54*
X177839642Y-89733357D02*
X177887261Y-89780976D01*
X177934880Y-89923833D01*
X177934880Y-90019071D01*
X177887261Y-90161928D01*
X177792023Y-90257166D01*
X177696785Y-90304785D01*
X177506309Y-90352404D01*
X177363452Y-90352404D01*
X177172976Y-90304785D01*
X177077738Y-90257166D01*
X176982500Y-90161928D01*
X176934880Y-90019071D01*
X176934880Y-89923833D01*
X176982500Y-89780976D01*
X177030119Y-89733357D01*
X176934880Y-88828595D02*
X176934880Y-89304785D01*
X177411071Y-89352404D01*
X177363452Y-89304785D01*
X177315833Y-89209547D01*
X177315833Y-88971452D01*
X177363452Y-88876214D01*
X177411071Y-88828595D01*
X177506309Y-88780976D01*
X177744404Y-88780976D01*
X177839642Y-88828595D01*
X177887261Y-88876214D01*
X177934880Y-88971452D01*
X177934880Y-89209547D01*
X177887261Y-89304785D01*
X177839642Y-89352404D01*
X177268214Y-87923833D02*
X177934880Y-87923833D01*
X176887261Y-88161928D02*
X177601547Y-88400023D01*
X177601547Y-87780976D01*
G04 #@! TO.C,FB1*
X102481166Y-103598671D02*
X102147833Y-103598671D01*
X102147833Y-104122480D02*
X102147833Y-103122480D01*
X102624023Y-103122480D01*
X103338309Y-103598671D02*
X103481166Y-103646290D01*
X103528785Y-103693909D01*
X103576404Y-103789147D01*
X103576404Y-103932004D01*
X103528785Y-104027242D01*
X103481166Y-104074861D01*
X103385928Y-104122480D01*
X103004976Y-104122480D01*
X103004976Y-103122480D01*
X103338309Y-103122480D01*
X103433547Y-103170100D01*
X103481166Y-103217719D01*
X103528785Y-103312957D01*
X103528785Y-103408195D01*
X103481166Y-103503433D01*
X103433547Y-103551052D01*
X103338309Y-103598671D01*
X103004976Y-103598671D01*
X104528785Y-104122480D02*
X103957357Y-104122480D01*
X104243071Y-104122480D02*
X104243071Y-103122480D01*
X104147833Y-103265338D01*
X104052595Y-103360576D01*
X103957357Y-103408195D01*
G04 #@! TO.C,FB2*
X98569471Y-106230633D02*
X98569471Y-106563966D01*
X99093280Y-106563966D02*
X98093280Y-106563966D01*
X98093280Y-106087776D01*
X98569471Y-105373490D02*
X98617090Y-105230633D01*
X98664709Y-105183014D01*
X98759947Y-105135395D01*
X98902804Y-105135395D01*
X98998042Y-105183014D01*
X99045661Y-105230633D01*
X99093280Y-105325871D01*
X99093280Y-105706823D01*
X98093280Y-105706823D01*
X98093280Y-105373490D01*
X98140900Y-105278252D01*
X98188519Y-105230633D01*
X98283757Y-105183014D01*
X98378995Y-105183014D01*
X98474233Y-105230633D01*
X98521852Y-105278252D01*
X98569471Y-105373490D01*
X98569471Y-105706823D01*
X98188519Y-104754442D02*
X98140900Y-104706823D01*
X98093280Y-104611585D01*
X98093280Y-104373490D01*
X98140900Y-104278252D01*
X98188519Y-104230633D01*
X98283757Y-104183014D01*
X98378995Y-104183014D01*
X98521852Y-104230633D01*
X99093280Y-104802061D01*
X99093280Y-104183014D01*
G04 #@! TO.C,R1*
X138869680Y-96724766D02*
X138393490Y-97058100D01*
X138869680Y-97296195D02*
X137869680Y-97296195D01*
X137869680Y-96915242D01*
X137917300Y-96820004D01*
X137964919Y-96772385D01*
X138060157Y-96724766D01*
X138203014Y-96724766D01*
X138298252Y-96772385D01*
X138345871Y-96820004D01*
X138393490Y-96915242D01*
X138393490Y-97296195D01*
X138869680Y-95772385D02*
X138869680Y-96343814D01*
X138869680Y-96058100D02*
X137869680Y-96058100D01*
X138012538Y-96153338D01*
X138107776Y-96248576D01*
X138155395Y-96343814D01*
G04 #@! TO.C,R2*
X138971280Y-99721966D02*
X138495090Y-100055300D01*
X138971280Y-100293395D02*
X137971280Y-100293395D01*
X137971280Y-99912442D01*
X138018900Y-99817204D01*
X138066519Y-99769585D01*
X138161757Y-99721966D01*
X138304614Y-99721966D01*
X138399852Y-99769585D01*
X138447471Y-99817204D01*
X138495090Y-99912442D01*
X138495090Y-100293395D01*
X138066519Y-99341014D02*
X138018900Y-99293395D01*
X137971280Y-99198157D01*
X137971280Y-98960061D01*
X138018900Y-98864823D01*
X138066519Y-98817204D01*
X138161757Y-98769585D01*
X138256995Y-98769585D01*
X138399852Y-98817204D01*
X138971280Y-99388633D01*
X138971280Y-98769585D01*
G04 #@! TO.C,R3*
X156700480Y-118254666D02*
X156224290Y-118588000D01*
X156700480Y-118826095D02*
X155700480Y-118826095D01*
X155700480Y-118445142D01*
X155748100Y-118349904D01*
X155795719Y-118302285D01*
X155890957Y-118254666D01*
X156033814Y-118254666D01*
X156129052Y-118302285D01*
X156176671Y-118349904D01*
X156224290Y-118445142D01*
X156224290Y-118826095D01*
X155700480Y-117921333D02*
X155700480Y-117302285D01*
X156081433Y-117635619D01*
X156081433Y-117492761D01*
X156129052Y-117397523D01*
X156176671Y-117349904D01*
X156271909Y-117302285D01*
X156510004Y-117302285D01*
X156605242Y-117349904D01*
X156652861Y-117397523D01*
X156700480Y-117492761D01*
X156700480Y-117778476D01*
X156652861Y-117873714D01*
X156605242Y-117921333D01*
G04 #@! TO.C,R4*
X143933380Y-101004666D02*
X143457190Y-101338000D01*
X143933380Y-101576095D02*
X142933380Y-101576095D01*
X142933380Y-101195142D01*
X142981000Y-101099904D01*
X143028619Y-101052285D01*
X143123857Y-101004666D01*
X143266714Y-101004666D01*
X143361952Y-101052285D01*
X143409571Y-101099904D01*
X143457190Y-101195142D01*
X143457190Y-101576095D01*
X143266714Y-100147523D02*
X143933380Y-100147523D01*
X142885761Y-100385619D02*
X143600047Y-100623714D01*
X143600047Y-100004666D01*
G04 #@! TO.C,R5*
X136685280Y-106275166D02*
X136209090Y-106608500D01*
X136685280Y-106846595D02*
X135685280Y-106846595D01*
X135685280Y-106465642D01*
X135732900Y-106370404D01*
X135780519Y-106322785D01*
X135875757Y-106275166D01*
X136018614Y-106275166D01*
X136113852Y-106322785D01*
X136161471Y-106370404D01*
X136209090Y-106465642D01*
X136209090Y-106846595D01*
X135685280Y-105370404D02*
X135685280Y-105846595D01*
X136161471Y-105894214D01*
X136113852Y-105846595D01*
X136066233Y-105751357D01*
X136066233Y-105513261D01*
X136113852Y-105418023D01*
X136161471Y-105370404D01*
X136256709Y-105322785D01*
X136494804Y-105322785D01*
X136590042Y-105370404D01*
X136637661Y-105418023D01*
X136685280Y-105513261D01*
X136685280Y-105751357D01*
X136637661Y-105846595D01*
X136590042Y-105894214D01*
G04 #@! TO.C,R6*
X134593033Y-111183680D02*
X134259700Y-110707490D01*
X134021604Y-111183680D02*
X134021604Y-110183680D01*
X134402557Y-110183680D01*
X134497795Y-110231300D01*
X134545414Y-110278919D01*
X134593033Y-110374157D01*
X134593033Y-110517014D01*
X134545414Y-110612252D01*
X134497795Y-110659871D01*
X134402557Y-110707490D01*
X134021604Y-110707490D01*
X135450176Y-110183680D02*
X135259700Y-110183680D01*
X135164461Y-110231300D01*
X135116842Y-110278919D01*
X135021604Y-110421776D01*
X134973985Y-110612252D01*
X134973985Y-110993204D01*
X135021604Y-111088442D01*
X135069223Y-111136061D01*
X135164461Y-111183680D01*
X135354938Y-111183680D01*
X135450176Y-111136061D01*
X135497795Y-111088442D01*
X135545414Y-110993204D01*
X135545414Y-110755109D01*
X135497795Y-110659871D01*
X135450176Y-110612252D01*
X135354938Y-110564633D01*
X135164461Y-110564633D01*
X135069223Y-110612252D01*
X135021604Y-110659871D01*
X134973985Y-110755109D01*
G04 #@! TO.C,R7*
X92581433Y-112453680D02*
X92248100Y-111977490D01*
X92010004Y-112453680D02*
X92010004Y-111453680D01*
X92390957Y-111453680D01*
X92486195Y-111501300D01*
X92533814Y-111548919D01*
X92581433Y-111644157D01*
X92581433Y-111787014D01*
X92533814Y-111882252D01*
X92486195Y-111929871D01*
X92390957Y-111977490D01*
X92010004Y-111977490D01*
X92914766Y-111453680D02*
X93581433Y-111453680D01*
X93152861Y-112453680D01*
G04 #@! TO.C,R8*
X140414333Y-112690380D02*
X140081000Y-112214190D01*
X139842904Y-112690380D02*
X139842904Y-111690380D01*
X140223857Y-111690380D01*
X140319095Y-111738000D01*
X140366714Y-111785619D01*
X140414333Y-111880857D01*
X140414333Y-112023714D01*
X140366714Y-112118952D01*
X140319095Y-112166571D01*
X140223857Y-112214190D01*
X139842904Y-112214190D01*
X140985761Y-112118952D02*
X140890523Y-112071333D01*
X140842904Y-112023714D01*
X140795285Y-111928476D01*
X140795285Y-111880857D01*
X140842904Y-111785619D01*
X140890523Y-111738000D01*
X140985761Y-111690380D01*
X141176238Y-111690380D01*
X141271476Y-111738000D01*
X141319095Y-111785619D01*
X141366714Y-111880857D01*
X141366714Y-111928476D01*
X141319095Y-112023714D01*
X141271476Y-112071333D01*
X141176238Y-112118952D01*
X140985761Y-112118952D01*
X140890523Y-112166571D01*
X140842904Y-112214190D01*
X140795285Y-112309428D01*
X140795285Y-112499904D01*
X140842904Y-112595142D01*
X140890523Y-112642761D01*
X140985761Y-112690380D01*
X141176238Y-112690380D01*
X141271476Y-112642761D01*
X141319095Y-112595142D01*
X141366714Y-112499904D01*
X141366714Y-112309428D01*
X141319095Y-112214190D01*
X141271476Y-112166571D01*
X141176238Y-112118952D01*
G04 #@! TO.C,R9*
X183093380Y-120154666D02*
X182617190Y-120488000D01*
X183093380Y-120726095D02*
X182093380Y-120726095D01*
X182093380Y-120345142D01*
X182141000Y-120249904D01*
X182188619Y-120202285D01*
X182283857Y-120154666D01*
X182426714Y-120154666D01*
X182521952Y-120202285D01*
X182569571Y-120249904D01*
X182617190Y-120345142D01*
X182617190Y-120726095D01*
X183093380Y-119678476D02*
X183093380Y-119488000D01*
X183045761Y-119392761D01*
X182998142Y-119345142D01*
X182855285Y-119249904D01*
X182664809Y-119202285D01*
X182283857Y-119202285D01*
X182188619Y-119249904D01*
X182141000Y-119297523D01*
X182093380Y-119392761D01*
X182093380Y-119583238D01*
X182141000Y-119678476D01*
X182188619Y-119726095D01*
X182283857Y-119773714D01*
X182521952Y-119773714D01*
X182617190Y-119726095D01*
X182664809Y-119678476D01*
X182712428Y-119583238D01*
X182712428Y-119392761D01*
X182664809Y-119297523D01*
X182617190Y-119249904D01*
X182521952Y-119202285D01*
G04 #@! TO.C,R10*
X156011642Y-89085680D02*
X155678309Y-88609490D01*
X155440214Y-89085680D02*
X155440214Y-88085680D01*
X155821166Y-88085680D01*
X155916404Y-88133300D01*
X155964023Y-88180919D01*
X156011642Y-88276157D01*
X156011642Y-88419014D01*
X155964023Y-88514252D01*
X155916404Y-88561871D01*
X155821166Y-88609490D01*
X155440214Y-88609490D01*
X156964023Y-89085680D02*
X156392595Y-89085680D01*
X156678309Y-89085680D02*
X156678309Y-88085680D01*
X156583071Y-88228538D01*
X156487833Y-88323776D01*
X156392595Y-88371395D01*
X157583071Y-88085680D02*
X157678309Y-88085680D01*
X157773547Y-88133300D01*
X157821166Y-88180919D01*
X157868785Y-88276157D01*
X157916404Y-88466633D01*
X157916404Y-88704728D01*
X157868785Y-88895204D01*
X157821166Y-88990442D01*
X157773547Y-89038061D01*
X157678309Y-89085680D01*
X157583071Y-89085680D01*
X157487833Y-89038061D01*
X157440214Y-88990442D01*
X157392595Y-88895204D01*
X157344976Y-88704728D01*
X157344976Y-88466633D01*
X157392595Y-88276157D01*
X157440214Y-88180919D01*
X157487833Y-88133300D01*
X157583071Y-88085680D01*
G04 #@! TO.C,R11*
X206253142Y-119133880D02*
X205919809Y-118657690D01*
X205681714Y-119133880D02*
X205681714Y-118133880D01*
X206062666Y-118133880D01*
X206157904Y-118181500D01*
X206205523Y-118229119D01*
X206253142Y-118324357D01*
X206253142Y-118467214D01*
X206205523Y-118562452D01*
X206157904Y-118610071D01*
X206062666Y-118657690D01*
X205681714Y-118657690D01*
X207205523Y-119133880D02*
X206634095Y-119133880D01*
X206919809Y-119133880D02*
X206919809Y-118133880D01*
X206824571Y-118276738D01*
X206729333Y-118371976D01*
X206634095Y-118419595D01*
X208157904Y-119133880D02*
X207586476Y-119133880D01*
X207872190Y-119133880D02*
X207872190Y-118133880D01*
X207776952Y-118276738D01*
X207681714Y-118371976D01*
X207586476Y-118419595D01*
G04 #@! TO.C,R12*
X214510880Y-120594357D02*
X214034690Y-120927690D01*
X214510880Y-121165785D02*
X213510880Y-121165785D01*
X213510880Y-120784833D01*
X213558500Y-120689595D01*
X213606119Y-120641976D01*
X213701357Y-120594357D01*
X213844214Y-120594357D01*
X213939452Y-120641976D01*
X213987071Y-120689595D01*
X214034690Y-120784833D01*
X214034690Y-121165785D01*
X214510880Y-119641976D02*
X214510880Y-120213404D01*
X214510880Y-119927690D02*
X213510880Y-119927690D01*
X213653738Y-120022928D01*
X213748976Y-120118166D01*
X213796595Y-120213404D01*
X213606119Y-119261023D02*
X213558500Y-119213404D01*
X213510880Y-119118166D01*
X213510880Y-118880071D01*
X213558500Y-118784833D01*
X213606119Y-118737214D01*
X213701357Y-118689595D01*
X213796595Y-118689595D01*
X213939452Y-118737214D01*
X214510880Y-119308642D01*
X214510880Y-118689595D01*
G04 #@! TO.C,R13*
X200206142Y-110098380D02*
X199872809Y-109622190D01*
X199634714Y-110098380D02*
X199634714Y-109098380D01*
X200015666Y-109098380D01*
X200110904Y-109146000D01*
X200158523Y-109193619D01*
X200206142Y-109288857D01*
X200206142Y-109431714D01*
X200158523Y-109526952D01*
X200110904Y-109574571D01*
X200015666Y-109622190D01*
X199634714Y-109622190D01*
X201158523Y-110098380D02*
X200587095Y-110098380D01*
X200872809Y-110098380D02*
X200872809Y-109098380D01*
X200777571Y-109241238D01*
X200682333Y-109336476D01*
X200587095Y-109384095D01*
X201491857Y-109098380D02*
X202110904Y-109098380D01*
X201777571Y-109479333D01*
X201920428Y-109479333D01*
X202015666Y-109526952D01*
X202063285Y-109574571D01*
X202110904Y-109669809D01*
X202110904Y-109907904D01*
X202063285Y-110003142D01*
X202015666Y-110050761D01*
X201920428Y-110098380D01*
X201634714Y-110098380D01*
X201539476Y-110050761D01*
X201491857Y-110003142D01*
G04 #@! TO.C,R14*
X200106142Y-113398380D02*
X199772809Y-112922190D01*
X199534714Y-113398380D02*
X199534714Y-112398380D01*
X199915666Y-112398380D01*
X200010904Y-112446000D01*
X200058523Y-112493619D01*
X200106142Y-112588857D01*
X200106142Y-112731714D01*
X200058523Y-112826952D01*
X200010904Y-112874571D01*
X199915666Y-112922190D01*
X199534714Y-112922190D01*
X201058523Y-113398380D02*
X200487095Y-113398380D01*
X200772809Y-113398380D02*
X200772809Y-112398380D01*
X200677571Y-112541238D01*
X200582333Y-112636476D01*
X200487095Y-112684095D01*
X201915666Y-112731714D02*
X201915666Y-113398380D01*
X201677571Y-112350761D02*
X201439476Y-113065047D01*
X202058523Y-113065047D01*
G04 #@! TO.C,R15*
X186367680Y-113355357D02*
X185891490Y-113688690D01*
X186367680Y-113926785D02*
X185367680Y-113926785D01*
X185367680Y-113545833D01*
X185415300Y-113450595D01*
X185462919Y-113402976D01*
X185558157Y-113355357D01*
X185701014Y-113355357D01*
X185796252Y-113402976D01*
X185843871Y-113450595D01*
X185891490Y-113545833D01*
X185891490Y-113926785D01*
X186367680Y-112402976D02*
X186367680Y-112974404D01*
X186367680Y-112688690D02*
X185367680Y-112688690D01*
X185510538Y-112783928D01*
X185605776Y-112879166D01*
X185653395Y-112974404D01*
X185367680Y-111498214D02*
X185367680Y-111974404D01*
X185843871Y-112022023D01*
X185796252Y-111974404D01*
X185748633Y-111879166D01*
X185748633Y-111641071D01*
X185796252Y-111545833D01*
X185843871Y-111498214D01*
X185939109Y-111450595D01*
X186177204Y-111450595D01*
X186272442Y-111498214D01*
X186320061Y-111545833D01*
X186367680Y-111641071D01*
X186367680Y-111879166D01*
X186320061Y-111974404D01*
X186272442Y-112022023D01*
G04 #@! TO.C,R16*
X180497242Y-104935280D02*
X180163909Y-104459090D01*
X179925814Y-104935280D02*
X179925814Y-103935280D01*
X180306766Y-103935280D01*
X180402004Y-103982900D01*
X180449623Y-104030519D01*
X180497242Y-104125757D01*
X180497242Y-104268614D01*
X180449623Y-104363852D01*
X180402004Y-104411471D01*
X180306766Y-104459090D01*
X179925814Y-104459090D01*
X181449623Y-104935280D02*
X180878195Y-104935280D01*
X181163909Y-104935280D02*
X181163909Y-103935280D01*
X181068671Y-104078138D01*
X180973433Y-104173376D01*
X180878195Y-104220995D01*
X182306766Y-103935280D02*
X182116290Y-103935280D01*
X182021052Y-103982900D01*
X181973433Y-104030519D01*
X181878195Y-104173376D01*
X181830576Y-104363852D01*
X181830576Y-104744804D01*
X181878195Y-104840042D01*
X181925814Y-104887661D01*
X182021052Y-104935280D01*
X182211528Y-104935280D01*
X182306766Y-104887661D01*
X182354385Y-104840042D01*
X182402004Y-104744804D01*
X182402004Y-104506709D01*
X182354385Y-104411471D01*
X182306766Y-104363852D01*
X182211528Y-104316233D01*
X182021052Y-104316233D01*
X181925814Y-104363852D01*
X181878195Y-104411471D01*
X181830576Y-104506709D01*
G04 #@! TO.C,R17*
X178516042Y-96705680D02*
X178182709Y-96229490D01*
X177944614Y-96705680D02*
X177944614Y-95705680D01*
X178325566Y-95705680D01*
X178420804Y-95753300D01*
X178468423Y-95800919D01*
X178516042Y-95896157D01*
X178516042Y-96039014D01*
X178468423Y-96134252D01*
X178420804Y-96181871D01*
X178325566Y-96229490D01*
X177944614Y-96229490D01*
X179468423Y-96705680D02*
X178896995Y-96705680D01*
X179182709Y-96705680D02*
X179182709Y-95705680D01*
X179087471Y-95848538D01*
X178992233Y-95943776D01*
X178896995Y-95991395D01*
X179801757Y-95705680D02*
X180468423Y-95705680D01*
X180039852Y-96705680D01*
G04 #@! TO.C,R18*
X192486042Y-100261680D02*
X192152709Y-99785490D01*
X191914614Y-100261680D02*
X191914614Y-99261680D01*
X192295566Y-99261680D01*
X192390804Y-99309300D01*
X192438423Y-99356919D01*
X192486042Y-99452157D01*
X192486042Y-99595014D01*
X192438423Y-99690252D01*
X192390804Y-99737871D01*
X192295566Y-99785490D01*
X191914614Y-99785490D01*
X193438423Y-100261680D02*
X192866995Y-100261680D01*
X193152709Y-100261680D02*
X193152709Y-99261680D01*
X193057471Y-99404538D01*
X192962233Y-99499776D01*
X192866995Y-99547395D01*
X194009852Y-99690252D02*
X193914614Y-99642633D01*
X193866995Y-99595014D01*
X193819376Y-99499776D01*
X193819376Y-99452157D01*
X193866995Y-99356919D01*
X193914614Y-99309300D01*
X194009852Y-99261680D01*
X194200328Y-99261680D01*
X194295566Y-99309300D01*
X194343185Y-99356919D01*
X194390804Y-99452157D01*
X194390804Y-99499776D01*
X194343185Y-99595014D01*
X194295566Y-99642633D01*
X194200328Y-99690252D01*
X194009852Y-99690252D01*
X193914614Y-99737871D01*
X193866995Y-99785490D01*
X193819376Y-99880728D01*
X193819376Y-100071204D01*
X193866995Y-100166442D01*
X193914614Y-100214061D01*
X194009852Y-100261680D01*
X194200328Y-100261680D01*
X194295566Y-100214061D01*
X194343185Y-100166442D01*
X194390804Y-100071204D01*
X194390804Y-99880728D01*
X194343185Y-99785490D01*
X194295566Y-99737871D01*
X194200328Y-99690252D01*
G04 #@! TO.C,R19*
X188399680Y-113304557D02*
X187923490Y-113637890D01*
X188399680Y-113875985D02*
X187399680Y-113875985D01*
X187399680Y-113495033D01*
X187447300Y-113399795D01*
X187494919Y-113352176D01*
X187590157Y-113304557D01*
X187733014Y-113304557D01*
X187828252Y-113352176D01*
X187875871Y-113399795D01*
X187923490Y-113495033D01*
X187923490Y-113875985D01*
X188399680Y-112352176D02*
X188399680Y-112923604D01*
X188399680Y-112637890D02*
X187399680Y-112637890D01*
X187542538Y-112733128D01*
X187637776Y-112828366D01*
X187685395Y-112923604D01*
X188399680Y-111875985D02*
X188399680Y-111685509D01*
X188352061Y-111590271D01*
X188304442Y-111542652D01*
X188161585Y-111447414D01*
X187971109Y-111399795D01*
X187590157Y-111399795D01*
X187494919Y-111447414D01*
X187447300Y-111495033D01*
X187399680Y-111590271D01*
X187399680Y-111780747D01*
X187447300Y-111875985D01*
X187494919Y-111923604D01*
X187590157Y-111971223D01*
X187828252Y-111971223D01*
X187923490Y-111923604D01*
X187971109Y-111875985D01*
X188018728Y-111780747D01*
X188018728Y-111590271D01*
X187971109Y-111495033D01*
X187923490Y-111447414D01*
X187828252Y-111399795D01*
G04 #@! TO.C,R20*
X193349642Y-97416880D02*
X193016309Y-96940690D01*
X192778214Y-97416880D02*
X192778214Y-96416880D01*
X193159166Y-96416880D01*
X193254404Y-96464500D01*
X193302023Y-96512119D01*
X193349642Y-96607357D01*
X193349642Y-96750214D01*
X193302023Y-96845452D01*
X193254404Y-96893071D01*
X193159166Y-96940690D01*
X192778214Y-96940690D01*
X193730595Y-96512119D02*
X193778214Y-96464500D01*
X193873452Y-96416880D01*
X194111547Y-96416880D01*
X194206785Y-96464500D01*
X194254404Y-96512119D01*
X194302023Y-96607357D01*
X194302023Y-96702595D01*
X194254404Y-96845452D01*
X193682976Y-97416880D01*
X194302023Y-97416880D01*
X194921071Y-96416880D02*
X195016309Y-96416880D01*
X195111547Y-96464500D01*
X195159166Y-96512119D01*
X195206785Y-96607357D01*
X195254404Y-96797833D01*
X195254404Y-97035928D01*
X195206785Y-97226404D01*
X195159166Y-97321642D01*
X195111547Y-97369261D01*
X195016309Y-97416880D01*
X194921071Y-97416880D01*
X194825833Y-97369261D01*
X194778214Y-97321642D01*
X194730595Y-97226404D01*
X194682976Y-97035928D01*
X194682976Y-96797833D01*
X194730595Y-96607357D01*
X194778214Y-96512119D01*
X194825833Y-96464500D01*
X194921071Y-96416880D01*
G04 #@! TO.C,R22*
X199826642Y-100210880D02*
X199493309Y-99734690D01*
X199255214Y-100210880D02*
X199255214Y-99210880D01*
X199636166Y-99210880D01*
X199731404Y-99258500D01*
X199779023Y-99306119D01*
X199826642Y-99401357D01*
X199826642Y-99544214D01*
X199779023Y-99639452D01*
X199731404Y-99687071D01*
X199636166Y-99734690D01*
X199255214Y-99734690D01*
X200207595Y-99306119D02*
X200255214Y-99258500D01*
X200350452Y-99210880D01*
X200588547Y-99210880D01*
X200683785Y-99258500D01*
X200731404Y-99306119D01*
X200779023Y-99401357D01*
X200779023Y-99496595D01*
X200731404Y-99639452D01*
X200159976Y-100210880D01*
X200779023Y-100210880D01*
X201159976Y-99306119D02*
X201207595Y-99258500D01*
X201302833Y-99210880D01*
X201540928Y-99210880D01*
X201636166Y-99258500D01*
X201683785Y-99306119D01*
X201731404Y-99401357D01*
X201731404Y-99496595D01*
X201683785Y-99639452D01*
X201112357Y-100210880D01*
X201731404Y-100210880D01*
G04 #@! TO.C,R23*
X199826642Y-102369880D02*
X199493309Y-101893690D01*
X199255214Y-102369880D02*
X199255214Y-101369880D01*
X199636166Y-101369880D01*
X199731404Y-101417500D01*
X199779023Y-101465119D01*
X199826642Y-101560357D01*
X199826642Y-101703214D01*
X199779023Y-101798452D01*
X199731404Y-101846071D01*
X199636166Y-101893690D01*
X199255214Y-101893690D01*
X200207595Y-101465119D02*
X200255214Y-101417500D01*
X200350452Y-101369880D01*
X200588547Y-101369880D01*
X200683785Y-101417500D01*
X200731404Y-101465119D01*
X200779023Y-101560357D01*
X200779023Y-101655595D01*
X200731404Y-101798452D01*
X200159976Y-102369880D01*
X200779023Y-102369880D01*
X201112357Y-101369880D02*
X201731404Y-101369880D01*
X201398071Y-101750833D01*
X201540928Y-101750833D01*
X201636166Y-101798452D01*
X201683785Y-101846071D01*
X201731404Y-101941309D01*
X201731404Y-102179404D01*
X201683785Y-102274642D01*
X201636166Y-102322261D01*
X201540928Y-102369880D01*
X201255214Y-102369880D01*
X201159976Y-102322261D01*
X201112357Y-102274642D01*
G04 #@! TO.C,R24*
X199826642Y-98178880D02*
X199493309Y-97702690D01*
X199255214Y-98178880D02*
X199255214Y-97178880D01*
X199636166Y-97178880D01*
X199731404Y-97226500D01*
X199779023Y-97274119D01*
X199826642Y-97369357D01*
X199826642Y-97512214D01*
X199779023Y-97607452D01*
X199731404Y-97655071D01*
X199636166Y-97702690D01*
X199255214Y-97702690D01*
X200207595Y-97274119D02*
X200255214Y-97226500D01*
X200350452Y-97178880D01*
X200588547Y-97178880D01*
X200683785Y-97226500D01*
X200731404Y-97274119D01*
X200779023Y-97369357D01*
X200779023Y-97464595D01*
X200731404Y-97607452D01*
X200159976Y-98178880D01*
X200779023Y-98178880D01*
X201636166Y-97512214D02*
X201636166Y-98178880D01*
X201398071Y-97131261D02*
X201159976Y-97845547D01*
X201779023Y-97845547D01*
G04 #@! TO.C,R25*
X103385880Y-111323357D02*
X102909690Y-111656690D01*
X103385880Y-111894785D02*
X102385880Y-111894785D01*
X102385880Y-111513833D01*
X102433500Y-111418595D01*
X102481119Y-111370976D01*
X102576357Y-111323357D01*
X102719214Y-111323357D01*
X102814452Y-111370976D01*
X102862071Y-111418595D01*
X102909690Y-111513833D01*
X102909690Y-111894785D01*
X102481119Y-110942404D02*
X102433500Y-110894785D01*
X102385880Y-110799547D01*
X102385880Y-110561452D01*
X102433500Y-110466214D01*
X102481119Y-110418595D01*
X102576357Y-110370976D01*
X102671595Y-110370976D01*
X102814452Y-110418595D01*
X103385880Y-110990023D01*
X103385880Y-110370976D01*
X102385880Y-109466214D02*
X102385880Y-109942404D01*
X102862071Y-109990023D01*
X102814452Y-109942404D01*
X102766833Y-109847166D01*
X102766833Y-109609071D01*
X102814452Y-109513833D01*
X102862071Y-109466214D01*
X102957309Y-109418595D01*
X103195404Y-109418595D01*
X103290642Y-109466214D01*
X103338261Y-109513833D01*
X103385880Y-109609071D01*
X103385880Y-109847166D01*
X103338261Y-109942404D01*
X103290642Y-109990023D01*
G04 #@! TO.C,R26*
X120175280Y-109088157D02*
X119699090Y-109421490D01*
X120175280Y-109659585D02*
X119175280Y-109659585D01*
X119175280Y-109278633D01*
X119222900Y-109183395D01*
X119270519Y-109135776D01*
X119365757Y-109088157D01*
X119508614Y-109088157D01*
X119603852Y-109135776D01*
X119651471Y-109183395D01*
X119699090Y-109278633D01*
X119699090Y-109659585D01*
X119270519Y-108707204D02*
X119222900Y-108659585D01*
X119175280Y-108564347D01*
X119175280Y-108326252D01*
X119222900Y-108231014D01*
X119270519Y-108183395D01*
X119365757Y-108135776D01*
X119460995Y-108135776D01*
X119603852Y-108183395D01*
X120175280Y-108754823D01*
X120175280Y-108135776D01*
X119175280Y-107278633D02*
X119175280Y-107469109D01*
X119222900Y-107564347D01*
X119270519Y-107611966D01*
X119413376Y-107707204D01*
X119603852Y-107754823D01*
X119984804Y-107754823D01*
X120080042Y-107707204D01*
X120127661Y-107659585D01*
X120175280Y-107564347D01*
X120175280Y-107373871D01*
X120127661Y-107278633D01*
X120080042Y-107231014D01*
X119984804Y-107183395D01*
X119746709Y-107183395D01*
X119651471Y-107231014D01*
X119603852Y-107278633D01*
X119556233Y-107373871D01*
X119556233Y-107564347D01*
X119603852Y-107659585D01*
X119651471Y-107707204D01*
X119746709Y-107754823D01*
G04 #@! TO.C,IC1*
X121897769Y-103406411D02*
X121190662Y-102699304D01*
X122571204Y-102598289D02*
X122571204Y-102665633D01*
X122503861Y-102800320D01*
X122436517Y-102867663D01*
X122301830Y-102935007D01*
X122167143Y-102935007D01*
X122066128Y-102901335D01*
X121897769Y-102800320D01*
X121796754Y-102699304D01*
X121695739Y-102530946D01*
X121662067Y-102429930D01*
X121662067Y-102295243D01*
X121729410Y-102160556D01*
X121796754Y-102093213D01*
X121931441Y-102025869D01*
X121998784Y-102025869D01*
X123311983Y-101992197D02*
X122907922Y-102396259D01*
X123109952Y-102194228D02*
X122402846Y-101487121D01*
X122436517Y-101655480D01*
X122436517Y-101790167D01*
X122402846Y-101891182D01*
G04 #@! TO.C,MH1*
X88773166Y-85732880D02*
X88773166Y-84732880D01*
X89106500Y-85447166D01*
X89439833Y-84732880D01*
X89439833Y-85732880D01*
X89916023Y-85732880D02*
X89916023Y-84732880D01*
X89916023Y-85209071D02*
X90487452Y-85209071D01*
X90487452Y-85732880D02*
X90487452Y-84732880D01*
X91487452Y-85732880D02*
X90916023Y-85732880D01*
X91201738Y-85732880D02*
X91201738Y-84732880D01*
X91106500Y-84875738D01*
X91011261Y-84970976D01*
X90916023Y-85018595D01*
G04 #@! TO.C,MH2*
X88773166Y-120022880D02*
X88773166Y-119022880D01*
X89106500Y-119737166D01*
X89439833Y-119022880D01*
X89439833Y-120022880D01*
X89916023Y-120022880D02*
X89916023Y-119022880D01*
X89916023Y-119499071D02*
X90487452Y-119499071D01*
X90487452Y-120022880D02*
X90487452Y-119022880D01*
X90916023Y-119118119D02*
X90963642Y-119070500D01*
X91058880Y-119022880D01*
X91296976Y-119022880D01*
X91392214Y-119070500D01*
X91439833Y-119118119D01*
X91487452Y-119213357D01*
X91487452Y-119308595D01*
X91439833Y-119451452D01*
X90868404Y-120022880D01*
X91487452Y-120022880D01*
G04 #@! TO.C,MH3*
X220853166Y-120149880D02*
X220853166Y-119149880D01*
X221186500Y-119864166D01*
X221519833Y-119149880D01*
X221519833Y-120149880D01*
X221996023Y-120149880D02*
X221996023Y-119149880D01*
X221996023Y-119626071D02*
X222567452Y-119626071D01*
X222567452Y-120149880D02*
X222567452Y-119149880D01*
X222948404Y-119149880D02*
X223567452Y-119149880D01*
X223234119Y-119530833D01*
X223376976Y-119530833D01*
X223472214Y-119578452D01*
X223519833Y-119626071D01*
X223567452Y-119721309D01*
X223567452Y-119959404D01*
X223519833Y-120054642D01*
X223472214Y-120102261D01*
X223376976Y-120149880D01*
X223091261Y-120149880D01*
X222996023Y-120102261D01*
X222948404Y-120054642D01*
G04 #@! TO.C,MH4*
X220853166Y-85732880D02*
X220853166Y-84732880D01*
X221186500Y-85447166D01*
X221519833Y-84732880D01*
X221519833Y-85732880D01*
X221996023Y-85732880D02*
X221996023Y-84732880D01*
X221996023Y-85209071D02*
X222567452Y-85209071D01*
X222567452Y-85732880D02*
X222567452Y-84732880D01*
X223472214Y-85066214D02*
X223472214Y-85732880D01*
X223234119Y-84685261D02*
X222996023Y-85399547D01*
X223615071Y-85399547D01*
G04 #@! TO.C,C12*
X136453142Y-114288842D02*
X136405523Y-114336461D01*
X136262666Y-114384080D01*
X136167428Y-114384080D01*
X136024571Y-114336461D01*
X135929333Y-114241223D01*
X135881714Y-114145985D01*
X135834095Y-113955509D01*
X135834095Y-113812652D01*
X135881714Y-113622176D01*
X135929333Y-113526938D01*
X136024571Y-113431700D01*
X136167428Y-113384080D01*
X136262666Y-113384080D01*
X136405523Y-113431700D01*
X136453142Y-113479319D01*
X137405523Y-114384080D02*
X136834095Y-114384080D01*
X137119809Y-114384080D02*
X137119809Y-113384080D01*
X137024571Y-113526938D01*
X136929333Y-113622176D01*
X136834095Y-113669795D01*
X137786476Y-113479319D02*
X137834095Y-113431700D01*
X137929333Y-113384080D01*
X138167428Y-113384080D01*
X138262666Y-113431700D01*
X138310285Y-113479319D01*
X138357904Y-113574557D01*
X138357904Y-113669795D01*
X138310285Y-113812652D01*
X137738857Y-114384080D01*
X138357904Y-114384080D01*
G04 #@! TD*
M02*
